<?xml version="1.0" encoding="UTF-8"?>
<svg xmlns="http://www.w3.org/2000/svg" xmlns:xlink="http://www.w3.org/1999/xlink" width="374.666667" height="289.333333" viewBox="0 0 374.666667 289.333333" version="1.1">
<g id="surface1">
<path style="fill:none;stroke-width:1;stroke-linecap:round;stroke-linejoin:round;stroke:rgb(0%,0%,0%);stroke-opacity:1;stroke-miterlimit:10;" d="M 292 231.999023 L 463.999023 231.999023 C 470.628906 231.999023 475.999023 237.37207 475.999023 243.999023 L 475.999023 363.999023 C 475.999023 370.628906 470.628906 375.999023 463.999023 375.999023 L 292 375.999023 C 285.370117 375.999023 280 370.628906 280 363.999023 L 280 243.999023 C 280 237.37207 285.370117 231.999023 292 231.999023 Z M 292 231.999023 " transform="matrix(1.333333,0,0,1.333333,-281.333333,-308)"/>
<path style=" stroke:none;fill-rule:nonzero;fill:rgb(40.000001%,74.901962%,100%);fill-opacity:1;" d="M 153.605469 140 L 190.9375 140 L 190.9375 118.667969 L 153.605469 118.667969 Z M 153.605469 140 "/>
<path style="fill:none;stroke-width:1;stroke-linecap:round;stroke-linejoin:round;stroke:rgb(0%,0%,0%);stroke-opacity:1;stroke-miterlimit:10;" d="M 326.204102 320.000977 L 354.203125 320.000977 L 354.203125 336 L 326.204102 336 Z M 326.204102 320.000977 " transform="matrix(1.333333,0,0,1.333333,-281.333333,-308)"/>
<path style=" stroke:none;fill-rule:nonzero;fill:rgb(0%,0%,0%);fill-opacity:1;" d="M 176.378906 126.90625 L 176.210938 127.804688 L 174.648438 127.804688 C 174.953125 128.234375 175.109375 128.777344 175.109375 129.429688 C 175.109375 130.445312 174.804688 131.339844 174.210938 132.117188 C 173.613281 132.898438 172.800781 133.28125 171.773438 133.28125 C 170.984375 133.28125 170.359375 133.054688 169.898438 132.59375 C 169.453125 132.125 169.234375 131.511719 169.234375 130.761719 C 169.234375 129.652344 169.535156 128.714844 170.148438 127.949219 C 170.773438 127.171875 171.578125 126.78125 172.566406 126.78125 C 172.882812 126.78125 173.175781 126.824219 173.441406 126.90625 Z M 170.296875 130.742188 C 170.296875 131.242188 170.425781 131.652344 170.691406 131.96875 C 170.953125 132.292969 171.316406 132.449219 171.773438 132.449219 C 172.484375 132.449219 173.035156 132.117188 173.441406 131.449219 C 173.84375 130.773438 174.046875 130.085938 174.046875 129.386719 C 174.046875 128.804688 173.910156 128.359375 173.648438 128.054688 C 173.398438 127.75 173.050781 127.59375 172.609375 127.59375 C 171.898438 127.59375 171.335938 127.917969 170.921875 128.554688 C 170.503906 129.195312 170.296875 129.921875 170.296875 130.742188 Z M 170.296875 130.742188 "/>
<path style="fill:none;stroke-width:1;stroke-linecap:round;stroke-linejoin:round;stroke:rgb(0%,0%,0%);stroke-opacity:1;stroke-miterlimit:10;" d="M 253.500977 251.780273 L 292 251.323242 " transform="matrix(1.333333,0,0,1.333333,-281.333333,-308)"/>
<path style="fill:none;stroke-width:1;stroke-linecap:round;stroke-linejoin:round;stroke:rgb(0%,0%,0%);stroke-opacity:1;stroke-miterlimit:10;" d="M 269.374023 251.554688 L 293.957031 251.370117 C 297.270508 251.34668 299.977539 254.012695 300.000977 257.329102 C 300.000977 257.34082 300.000977 257.355469 300.000977 257.370117 L 300.000977 345.999023 C 300.000977 349.3125 302.6875 351.999023 306.000977 351.999023 L 334.049805 351.999023 C 337.342773 351.999023 340.023438 349.344727 340.049805 346.051758 L 340.084961 341.897461 " transform="matrix(1.333333,0,0,1.333333,-281.333333,-308)"/>
<path style="fill:none;stroke-width:1;stroke-linecap:butt;stroke-linejoin:miter;stroke:rgb(0%,0%,0%);stroke-opacity:1;stroke-miterlimit:10;" d="M 340.117188 337.898438 L 340.084961 341.897461 M 338.584961 341.885742 L 340.117188 337.898438 L 341.584961 341.915039 " transform="matrix(1.333333,0,0,1.333333,-281.333333,-308)"/>
<path style=" stroke:none;fill-rule:nonzero;fill:rgb(40.000001%,74.901962%,100%);fill-opacity:1;" d="M 222.59375 140 L 259.925781 140 L 259.925781 118.667969 L 222.59375 118.667969 Z M 222.59375 140 "/>
<path style="fill:none;stroke-width:1;stroke-linecap:round;stroke-linejoin:round;stroke:rgb(0%,0%,0%);stroke-opacity:1;stroke-miterlimit:10;" d="M 377.945312 320.000977 L 405.944336 320.000977 L 405.944336 336 L 377.945312 336 Z M 377.945312 320.000977 " transform="matrix(1.333333,0,0,1.333333,-281.333333,-308)"/>
<path style=" stroke:none;fill-rule:nonzero;fill:rgb(0%,0%,0%);fill-opacity:1;" d="M 245.371094 126.90625 L 245.203125 127.804688 L 243.640625 127.804688 C 243.941406 128.234375 244.097656 128.777344 244.097656 129.429688 C 244.097656 130.445312 243.796875 131.339844 243.203125 132.117188 C 242.605469 132.898438 241.792969 133.28125 240.765625 133.28125 C 239.972656 133.28125 239.347656 133.054688 238.890625 132.59375 C 238.441406 132.125 238.222656 131.511719 238.222656 130.761719 C 238.222656 129.652344 238.527344 128.714844 239.140625 127.949219 C 239.765625 127.171875 240.566406 126.78125 241.558594 126.78125 C 241.875 126.78125 242.167969 126.824219 242.433594 126.90625 Z M 239.285156 130.742188 C 239.285156 131.242188 239.417969 131.652344 239.683594 131.96875 C 239.941406 132.292969 240.308594 132.449219 240.765625 132.449219 C 241.472656 132.449219 242.027344 132.117188 242.433594 131.449219 C 242.832031 130.773438 243.035156 130.085938 243.035156 129.386719 C 243.035156 128.804688 242.902344 128.359375 242.640625 128.054688 C 242.390625 127.75 242.042969 127.59375 241.597656 127.59375 C 240.890625 127.59375 240.328125 127.917969 239.910156 128.554688 C 239.496094 129.195312 239.285156 129.921875 239.285156 130.742188 Z M 239.285156 130.742188 "/>
<path style=" stroke:none;fill-rule:nonzero;fill:rgb(0%,0%,0%);fill-opacity:1;" d="M 156.179688 55.855469 L 156.179688 59.835938 L 159.886719 59.835938 L 159.886719 60.667969 L 155.617188 60.667969 L 155.617188 61.355469 L 159.886719 61.355469 L 159.886719 62.253906 L 155.011719 62.253906 L 155.011719 63.023438 L 165.636719 63.023438 L 165.636719 62.253906 L 160.742188 62.253906 L 160.742188 61.355469 L 165.035156 61.355469 L 165.035156 60.667969 L 160.742188 60.667969 L 160.742188 59.835938 L 164.472656 59.835938 L 164.472656 55.855469 L 160.742188 55.855469 L 160.742188 55.085938 L 165.472656 55.085938 L 165.472656 54.335938 L 160.742188 54.335938 L 160.742188 53.417969 C 162.074219 53.335938 163.324219 53.253906 164.472656 53.128906 L 164.222656 52.398438 C 161.824219 52.667969 159.074219 52.855469 155.949219 52.941406 L 156.097656 53.648438 C 157.410156 53.605469 158.679688 53.542969 159.886719 53.480469 L 159.886719 54.335938 L 155.179688 54.335938 L 155.179688 55.085938 L 159.886719 55.085938 L 159.886719 55.855469 Z M 163.617188 59.148438 L 160.742188 59.148438 L 160.742188 58.167969 L 163.617188 58.167969 Z M 159.886719 59.148438 L 156.992188 59.148438 L 156.992188 58.167969 L 159.886719 58.167969 Z M 156.992188 57.503906 L 156.992188 56.542969 L 159.886719 56.542969 L 159.886719 57.503906 Z M 160.742188 56.542969 L 163.617188 56.542969 L 163.617188 57.503906 L 160.742188 57.503906 Z M 160.742188 56.542969 "/>
<path style=" stroke:none;fill-rule:nonzero;fill:rgb(0%,0%,0%);fill-opacity:1;" d="M 167.179688 55.710938 L 167.179688 56.378906 L 171.742188 56.378906 C 171.699219 56.605469 171.660156 56.835938 171.617188 57.066406 L 168.699219 57.066406 L 168.699219 62.355469 L 166.972656 62.355469 L 166.972656 63.042969 L 177.699219 63.042969 L 177.699219 62.355469 L 175.972656 62.355469 L 175.972656 57.066406 L 172.472656 57.066406 C 172.535156 56.855469 172.574219 56.628906 172.617188 56.378906 L 177.492188 56.378906 L 177.492188 55.710938 L 172.699219 55.710938 L 172.785156 55.023438 L 176.679688 55.023438 L 176.679688 52.773438 L 167.972656 52.773438 L 167.972656 55.023438 L 171.910156 55.023438 L 171.847656 55.710938 Z M 169.535156 62.355469 L 169.535156 61.566406 L 175.117188 61.566406 L 175.117188 62.355469 Z M 169.535156 61.023438 L 169.535156 60.273438 L 175.117188 60.273438 L 175.117188 61.023438 Z M 169.535156 59.710938 L 169.535156 58.960938 L 175.117188 58.960938 L 175.117188 59.710938 Z M 169.535156 58.417969 L 169.535156 57.667969 L 175.117188 57.667969 L 175.117188 58.417969 Z M 175.847656 54.417969 L 174.074219 54.417969 L 174.074219 53.417969 L 175.847656 53.417969 Z M 173.285156 54.417969 L 171.367188 54.417969 L 171.367188 53.417969 L 173.285156 53.417969 Z M 170.597656 54.417969 L 168.804688 54.417969 L 168.804688 53.417969 L 170.597656 53.417969 Z M 170.597656 54.417969 "/>
<path style=" stroke:none;fill-rule:nonzero;fill:rgb(0%,0%,0%);fill-opacity:1;" d="M 187.929688 63.230469 C 188.722656 63.230469 189.117188 62.816406 189.117188 62.003906 L 189.117188 52.941406 L 183.660156 52.941406 L 183.660156 53.730469 L 188.285156 53.730469 L 188.285156 61.773438 C 188.285156 62.230469 188.097656 62.460938 187.742188 62.460938 L 186.679688 62.417969 L 186.886719 63.230469 Z M 179.511719 54.316406 L 179.511719 63.335938 L 180.347656 63.335938 L 180.347656 54.316406 Z M 181.261719 52.210938 L 180.472656 52.566406 C 181.011719 53.210938 181.511719 53.960938 181.972656 54.792969 L 182.742188 54.378906 C 182.304688 53.585938 181.804688 52.878906 181.261719 52.210938 Z M 181.261719 52.210938 "/>
<path style=" stroke:none;fill-rule:nonzero;fill:rgb(0%,0%,0%);fill-opacity:1;" d="M 175.464844 78.128906 L 175.464844 77.835938 C 175.257812 77.835938 175.046875 77.710938 174.945312 77.566406 L 172.546875 74.167969 C 173.257812 73.980469 173.570312 73.792969 173.902344 73.503906 C 174.257812 73.167969 174.445312 72.628906 174.445312 72.085938 C 174.445312 70.691406 173.234375 70.023438 170.882812 70.023438 L 167.195312 70.023438 L 167.195312 70.316406 C 168.089844 70.378906 168.257812 70.585938 168.257812 71.523438 L 168.257812 76.691406 C 168.257812 77.628906 168.132812 77.710938 167.195312 77.835938 L 167.195312 78.128906 L 171.257812 78.128906 L 171.257812 77.835938 C 170.320312 77.710938 170.195312 77.605469 170.195312 76.730469 L 170.195312 74.378906 L 170.527344 74.378906 L 173.007812 78.128906 Z M 170.195312 70.960938 C 170.195312 70.566406 170.359375 70.417969 170.839844 70.417969 C 171.945312 70.417969 172.382812 70.917969 172.382812 72.191406 C 172.382812 73.667969 171.757812 73.980469 170.195312 73.980469 Z M 170.195312 70.960938 "/>
<path style=" stroke:none;fill-rule:nonzero;fill:rgb(0%,0%,0%);fill-opacity:1;" d="M 177.921875 78.710938 L 177.273438 78.710938 L 177.503906 77.878906 C 177.503906 77.855469 177.503906 77.816406 177.503906 77.816406 C 177.503906 77.773438 177.484375 77.753906 177.441406 77.753906 C 177.398438 77.753906 177.359375 77.773438 177.316406 77.835938 C 177.023438 78.273438 176.503906 78.648438 176.253906 78.710938 C 176.066406 78.753906 176.003906 78.816406 176.003906 78.917969 C 176.003906 78.917969 176.003906 78.941406 176.003906 78.960938 L 176.609375 78.960938 L 175.984375 81.335938 C 175.921875 81.585938 175.859375 81.835938 175.859375 81.917969 C 175.859375 82.128906 176.003906 82.210938 176.210938 82.210938 C 176.628906 82.210938 176.878906 81.980469 177.359375 81.253906 L 177.253906 81.191406 C 176.859375 81.691406 176.734375 81.816406 176.609375 81.816406 C 176.546875 81.816406 176.484375 81.792969 176.484375 81.691406 C 176.484375 81.667969 176.503906 81.605469 176.503906 81.585938 L 177.191406 78.960938 L 177.878906 78.960938 Z M 177.921875 78.710938 "/>
<path style=" stroke:none;fill-rule:nonzero;fill:rgb(0%,0%,0%);fill-opacity:1;" d="M 224.199219 53.332031 L 224.199219 54.144531 L 228.910156 54.144531 L 228.910156 55.1875 L 225.242188 55.1875 L 225.242188 59.9375 L 228.761719 59.9375 C 228.636719 60.5625 228.429688 61.082031 228.136719 61.5 C 227.472656 61.144531 226.847656 60.730469 226.285156 60.269531 L 225.617188 60.730469 C 226.199219 61.230469 226.847656 61.667969 227.554688 62.0625 C 226.785156 62.605469 225.554688 62.9375 223.886719 63.082031 L 224.261719 63.875 C 226.160156 63.644531 227.554688 63.1875 228.386719 62.480469 C 230.179688 63.292969 232.285156 63.75 234.679688 63.855469 L 234.910156 63.019531 C 232.597656 62.957031 230.597656 62.5625 228.929688 61.855469 C 229.261719 61.375 229.492188 60.730469 229.636719 59.9375 L 233.492188 59.9375 L 233.492188 55.1875 L 229.785156 55.1875 L 229.785156 54.144531 L 234.492188 54.144531 L 234.492188 53.332031 Z M 232.636719 59.1875 L 229.742188 59.1875 L 229.785156 58.332031 L 229.785156 57.917969 L 232.636719 57.917969 Z M 228.886719 59.1875 L 226.097656 59.1875 L 226.097656 57.917969 L 228.910156 57.917969 L 228.910156 58.332031 C 228.910156 58.625 228.910156 58.917969 228.886719 59.1875 Z M 226.097656 57.1875 L 226.097656 55.9375 L 228.910156 55.9375 L 228.910156 57.1875 Z M 229.785156 55.9375 L 232.636719 55.9375 L 232.636719 57.1875 L 229.785156 57.1875 Z M 229.785156 55.9375 "/>
<path style=" stroke:none;fill-rule:nonzero;fill:rgb(0%,0%,0%);fill-opacity:1;" d="M 246.074219 52.980469 C 244.910156 53.480469 243.597656 53.769531 242.160156 53.792969 L 242.160156 58.917969 C 242.097656 60.75 241.699219 62.167969 240.992188 63.207031 L 241.617188 63.855469 C 242.472656 62.625 242.929688 60.980469 242.992188 58.917969 L 242.992188 57.5 L 244.761719 57.5 L 244.761719 63.894531 L 245.617188 63.894531 L 245.617188 57.5 L 246.867188 57.5 L 246.867188 56.667969 L 242.992188 56.667969 L 242.992188 54.480469 C 244.285156 54.417969 245.449219 54.167969 246.511719 53.75 Z M 236.074219 53.917969 L 236.074219 54.707031 L 241.492188 54.707031 L 241.492188 53.917969 L 239.222656 53.917969 C 239.054688 53.480469 238.886719 53.082031 238.699219 52.707031 L 237.824219 52.855469 C 238.011719 53.167969 238.199219 53.519531 238.367188 53.917969 Z M 235.949219 56.625 L 235.949219 57.417969 L 238.386719 57.417969 L 238.386719 58.75 L 236.160156 58.75 L 236.160156 59.542969 L 238.386719 59.542969 L 238.386719 62.730469 C 238.386719 63.019531 238.222656 63.167969 237.910156 63.167969 C 237.742188 63.167969 237.574219 63.144531 237.367188 63.105469 L 237.554688 63.917969 L 238.199219 63.917969 C 238.886719 63.917969 239.242188 63.582031 239.242188 62.9375 L 239.242188 59.542969 L 241.367188 59.542969 L 241.367188 58.75 L 239.242188 58.75 L 239.242188 57.417969 L 241.554688 57.417969 L 241.554688 56.625 L 240.199219 56.625 C 240.429688 56.230469 240.636719 55.75 240.824219 55.230469 L 240.054688 54.980469 C 239.867188 55.542969 239.660156 56.105469 239.429688 56.625 L 238.097656 56.625 C 237.910156 55.980469 237.699219 55.4375 237.472656 55 L 236.699219 55.269531 C 236.949219 55.6875 237.160156 56.144531 237.347656 56.625 Z M 236.992188 60.1875 C 236.722656 61.25 236.324219 62.207031 235.761719 63.082031 L 236.472656 63.519531 C 237.035156 62.625 237.472656 61.582031 237.785156 60.355469 Z M 240.429688 60.105469 L 239.722656 60.3125 C 240.054688 61.019531 240.324219 61.769531 240.554688 62.519531 L 241.285156 62.25 C 241.074219 61.605469 240.804688 60.894531 240.429688 60.105469 Z M 240.429688 60.105469 "/>
<path style=" stroke:none;fill-rule:nonzero;fill:rgb(0%,0%,0%);fill-opacity:1;" d="M 256.949219 63.769531 C 257.742188 63.769531 258.136719 63.355469 258.136719 62.542969 L 258.136719 53.480469 L 252.679688 53.480469 L 252.679688 54.269531 L 257.304688 54.269531 L 257.304688 62.3125 C 257.304688 62.769531 257.117188 63 256.761719 63 L 255.699219 62.957031 L 255.910156 63.769531 Z M 248.535156 54.855469 L 248.535156 63.875 L 249.367188 63.875 L 249.367188 54.855469 Z M 250.285156 52.75 L 249.492188 53.105469 C 250.035156 53.75 250.535156 54.5 250.992188 55.332031 L 251.761719 54.917969 C 251.324219 54.125 250.824219 53.417969 250.285156 52.75 Z M 250.285156 52.75 "/>
<path style=" stroke:none;fill-rule:nonzero;fill:rgb(0%,0%,0%);fill-opacity:1;" d="M 243.835938 75.769531 L 243.523438 75.769531 C 243.191406 76.792969 243.023438 77.292969 242.359375 77.769531 C 241.859375 78.125 241.066406 78.25 239.921875 78.25 L 238.941406 78.25 L 243.484375 70.75 L 243.484375 70.5625 L 237.210938 70.5625 L 236.941406 73.042969 L 237.273438 73.042969 C 237.816406 71.3125 238.316406 71.082031 240.148438 71.019531 L 241.148438 70.980469 L 236.566406 78.480469 L 236.566406 78.667969 L 243.523438 78.667969 Z M 243.835938 75.769531 "/>
<path style=" stroke:none;fill-rule:nonzero;fill:rgb(0%,0%,0%);fill-opacity:1;" d="M 246.613281 79.25 L 245.964844 79.25 L 246.195312 78.417969 C 246.195312 78.394531 246.195312 78.355469 246.195312 78.355469 C 246.195312 78.3125 246.175781 78.292969 246.132812 78.292969 C 246.089844 78.292969 246.050781 78.3125 246.007812 78.375 C 245.714844 78.8125 245.195312 79.1875 244.945312 79.25 C 244.757812 79.292969 244.695312 79.355469 244.695312 79.457031 C 244.695312 79.457031 244.695312 79.480469 244.695312 79.5 L 245.300781 79.5 L 244.675781 81.875 C 244.613281 82.125 244.550781 82.375 244.550781 82.457031 C 244.550781 82.667969 244.695312 82.75 244.902344 82.75 C 245.320312 82.75 245.570312 82.519531 246.050781 81.792969 L 245.945312 81.730469 C 245.550781 82.230469 245.425781 82.355469 245.300781 82.355469 C 245.238281 82.355469 245.175781 82.332031 245.175781 82.230469 C 245.175781 82.207031 245.195312 82.144531 245.195312 82.125 L 245.882812 79.5 L 246.570312 79.5 Z M 246.613281 79.25 "/>
<path style="fill:none;stroke-width:1;stroke-linecap:round;stroke-linejoin:round;stroke:rgb(0%,0%,0%);stroke-opacity:1;stroke-miterlimit:10;" d="M 319.960938 351.999023 L 385.999023 351.999023 C 389.3125 351.999023 391.999023 349.3125 391.999023 345.999023 L 391.999023 341.897461 " transform="matrix(1.333333,0,0,1.333333,-281.333333,-308)"/>
<path style="fill:none;stroke-width:1;stroke-linecap:butt;stroke-linejoin:miter;stroke:rgb(0%,0%,0%);stroke-opacity:1;stroke-miterlimit:10;" d="M 391.999023 337.898438 L 391.999023 341.897461 M 390.499023 341.897461 L 391.999023 337.898438 L 393.499023 341.897461 " transform="matrix(1.333333,0,0,1.333333,-281.333333,-308)"/>
<path style="fill:none;stroke-width:1;stroke-linecap:round;stroke-linejoin:round;stroke:rgb(0%,0%,0%);stroke-opacity:1;stroke-miterlimit:10;" d="M 300.039062 384.500977 L 300.006836 358.007812 C 300.003906 354.691406 302.6875 352.004883 306.000977 351.999023 C 306.003906 351.999023 306.003906 351.999023 306.006836 351.999023 L 325.635742 351.999023 " transform="matrix(1.333333,0,0,1.333333,-281.333333,-308)"/>
<path style=" stroke:none;fill-rule:nonzero;fill:rgb(0%,0%,0%);fill-opacity:1;" d="M 102.042969 218.207031 L 102.042969 219.980469 L 100.855469 219.980469 C 101.148438 219.207031 101.441406 218.332031 101.691406 217.355469 L 104.003906 217.355469 L 104.003906 216.542969 L 101.898438 216.542969 C 102.003906 216.0625 102.105469 215.542969 102.230469 215 L 101.441406 214.832031 C 101.316406 215.417969 101.210938 216 101.085938 216.542969 L 99.898438 216.542969 L 99.898438 217.355469 L 100.898438 217.355469 C 100.628906 218.417969 100.335938 219.332031 99.980469 220.042969 L 100.167969 220.769531 L 102.042969 220.769531 L 102.042969 222.5625 C 101.335938 222.6875 100.605469 222.8125 99.816406 222.894531 L 99.917969 223.75 C 100.648438 223.625 101.355469 223.519531 102.042969 223.375 L 102.042969 225.875 L 102.835938 225.875 L 102.835938 223.207031 L 103.980469 222.917969 L 103.980469 222.105469 C 103.628906 222.1875 103.253906 222.292969 102.835938 222.394531 L 102.835938 220.769531 L 103.941406 220.769531 L 103.941406 219.980469 L 102.835938 219.980469 L 102.835938 218.207031 Z M 105.585938 217.582031 L 105.585938 218.292969 L 109.023438 218.292969 L 109.023438 217.582031 L 105.585938 217.582031 C 106.191406 217 106.773438 216.355469 107.335938 215.667969 C 108.253906 216.832031 109.273438 217.832031 110.398438 218.644531 L 110.855469 217.980469 C 109.773438 217.207031 108.710938 216.1875 107.648438 214.894531 L 107.042969 214.894531 C 106.066406 216.082031 104.960938 217.144531 103.730469 218.042969 L 104.210938 218.769531 C 104.667969 218.394531 105.128906 218 105.585938 217.582031 Z M 106.417969 225.792969 C 107.003906 225.792969 107.316406 225.480469 107.316406 224.855469 L 107.316406 219.25 L 104.480469 219.25 L 104.480469 225.875 L 105.230469 225.875 L 105.230469 223.625 L 106.585938 223.625 L 106.585938 224.707031 C 106.585938 224.957031 106.441406 225.105469 106.191406 225.105469 L 105.648438 225.082031 L 105.835938 225.792969 Z M 105.230469 222.957031 L 105.230469 221.8125 L 106.585938 221.8125 L 106.585938 222.957031 Z M 105.230469 221.144531 L 105.230469 219.957031 L 106.585938 219.957031 L 106.585938 221.144531 Z M 108.023438 219.582031 L 108.023438 223.894531 L 108.710938 223.894531 L 108.710938 219.582031 Z M 109.335938 225.8125 C 109.917969 225.8125 110.210938 225.457031 110.210938 224.769531 L 110.210938 219.042969 L 109.460938 219.042969 L 109.460938 224.582031 C 109.460938 224.917969 109.335938 225.105469 109.066406 225.105469 C 108.773438 225.105469 108.460938 225.082031 108.148438 225.042969 L 108.316406 225.8125 Z M 109.335938 225.8125 "/>
<path style=" stroke:none;fill-rule:nonzero;fill:rgb(0%,0%,0%);fill-opacity:1;" d="M 116.773438 217.644531 C 116.003906 220.832031 114.335938 223.292969 111.753906 224.957031 L 112.273438 225.707031 C 114.792969 224.0625 116.460938 221.707031 117.253906 218.644531 C 117.316406 218.792969 117.355469 218.957031 117.441406 219.167969 C 118.667969 222.332031 120.253906 224.519531 122.210938 225.6875 L 122.753906 225 C 120.835938 223.8125 119.335938 221.769531 118.210938 218.917969 C 117.480469 216.957031 116.566406 215.605469 115.503906 214.855469 L 114.792969 215.3125 C 115.542969 215.875 116.210938 216.644531 116.773438 217.644531 Z M 116.773438 217.644531 "/>
<path style=" stroke:none;fill-rule:nonzero;fill:rgb(0%,0%,0%);fill-opacity:1;" d="M 135.6875 224.667969 L 135.6875 224.375 C 135.269531 224.355469 135.082031 224.207031 134.519531 223.332031 L 132.332031 219.9375 L 133.289062 218.605469 C 134.332031 217.144531 134.644531 216.9375 135.539062 216.855469 L 135.539062 216.5625 L 132.539062 216.5625 L 132.539062 216.855469 L 132.789062 216.875 C 133.25 216.917969 133.414062 217.019531 133.414062 217.292969 C 133.414062 217.5625 133.269531 217.792969 132.707031 218.5625 L 132.039062 219.5 L 130.875 217.6875 C 130.726562 217.457031 130.707031 217.394531 130.707031 217.25 C 130.707031 217 130.832031 216.894531 131.269531 216.875 L 131.644531 216.855469 L 131.644531 216.5625 L 127.5 216.5625 L 127.5 216.855469 C 127.9375 216.894531 128.082031 217.019531 128.457031 217.542969 L 130.832031 221.042969 L 128.726562 223.6875 C 128.375 224.144531 128.082031 224.292969 127.476562 224.375 L 127.476562 224.667969 L 130.476562 224.667969 L 130.476562 224.375 C 129.75 224.292969 129.519531 224.167969 129.519531 223.855469 C 129.519531 223.605469 129.75 223.230469 130.644531 222.019531 L 131.101562 221.417969 L 132.3125 223.355469 C 132.457031 223.582031 132.5625 223.855469 132.5625 224 C 132.5625 224.207031 132.351562 224.3125 131.9375 224.332031 L 131.601562 224.375 L 131.601562 224.667969 Z M 135.6875 224.667969 "/>
<path style=" stroke:none;fill-rule:nonzero;fill:rgb(0%,0%,0%);fill-opacity:1;" d="M 138.328125 225.25 L 137.683594 225.25 L 137.914062 224.417969 C 137.914062 224.394531 137.914062 224.355469 137.914062 224.355469 C 137.914062 224.3125 137.890625 224.292969 137.851562 224.292969 C 137.808594 224.292969 137.765625 224.3125 137.726562 224.375 C 137.433594 224.8125 136.914062 225.1875 136.664062 225.25 C 136.476562 225.292969 136.414062 225.355469 136.414062 225.457031 C 136.414062 225.457031 136.414062 225.480469 136.414062 225.5 L 137.015625 225.5 L 136.390625 227.875 C 136.328125 228.125 136.265625 228.375 136.265625 228.457031 C 136.265625 228.667969 136.414062 228.75 136.621094 228.75 C 137.039062 228.75 137.289062 228.519531 137.765625 227.792969 L 137.664062 227.730469 C 137.265625 228.230469 137.140625 228.355469 137.015625 228.355469 C 136.953125 228.355469 136.890625 228.332031 136.890625 228.230469 C 136.890625 228.207031 136.914062 228.144531 136.914062 228.125 L 137.601562 225.5 L 138.289062 225.5 Z M 138.328125 225.25 "/>
<path style=" stroke:none;fill-rule:nonzero;fill:rgb(0%,0%,0%);fill-opacity:1;" d="M 24.625 19.9375 L 24.625 15.855469 L 22.730469 15.855469 C 23.105469 15.4375 23.457031 14.917969 23.832031 14.332031 L 23.832031 13.6875 L 21.042969 13.6875 C 21.167969 13.457031 21.292969 13.1875 21.375 12.917969 L 20.519531 12.8125 C 20.105469 13.917969 19.3125 14.832031 18.144531 15.605469 L 18.644531 16.269531 C 18.792969 16.167969 18.9375 16.0625 19.105469 15.9375 L 19.105469 16.625 L 23.792969 16.625 L 23.792969 17.542969 L 18.9375 17.542969 L 18.9375 18.292969 L 23.792969 18.292969 L 23.792969 19.1875 L 18.667969 19.1875 L 18.667969 19.9375 Z M 20.582031 14.4375 L 22.875 14.4375 C 22.519531 14.980469 22.167969 15.457031 21.8125 15.855469 L 19.207031 15.855469 C 19.730469 15.4375 20.1875 14.980469 20.582031 14.4375 Z M 15 13.355469 L 15 23.875 L 15.855469 23.875 L 15.855469 14.167969 L 17.582031 14.167969 C 17.292969 15.1875 16.894531 16.3125 16.394531 17.5625 C 17.042969 18.582031 17.355469 19.519531 17.355469 20.332031 C 17.355469 20.582031 17.292969 20.769531 17.207031 20.875 C 17.105469 20.980469 16.894531 21.042969 16.605469 21.0625 C 16.480469 21.0625 16.3125 21.042969 16.144531 21.019531 L 16.417969 21.894531 C 17.105469 21.894531 17.605469 21.75 17.894531 21.457031 C 18.082031 21.230469 18.1875 20.855469 18.1875 20.332031 C 18.144531 19.480469 17.832031 18.5 17.25 17.4375 C 17.707031 16.25 18.105469 15.125 18.4375 14.042969 L 18.4375 13.355469 Z M 24.457031 20.4375 L 23.707031 20.6875 C 24.125 21.417969 24.519531 22.25 24.875 23.1875 L 25.582031 22.855469 C 25.25 22 24.875 21.207031 24.457031 20.4375 Z M 18.769531 20.667969 C 18.582031 21.519531 18.292969 22.3125 17.894531 23.019531 L 18.605469 23.480469 C 19 22.730469 19.3125 21.855469 19.542969 20.832031 Z M 22.75 23.769531 C 23.105469 23.769531 23.375 23.6875 23.542969 23.542969 C 23.75 23.355469 23.894531 22.855469 23.957031 22.042969 L 23.207031 21.792969 C 23.167969 22.375 23.105469 22.730469 23.019531 22.855469 C 22.9375 22.9375 22.792969 23 22.605469 23 L 21.3125 23 C 21.019531 23 20.875 22.8125 20.875 22.480469 L 20.875 20.519531 L 20.0625 20.519531 L 20.0625 22.667969 C 20.0625 23.394531 20.394531 23.769531 21.0625 23.769531 Z M 21.957031 20.25 L 21.355469 20.644531 C 21.792969 21.167969 22.144531 21.625 22.394531 22.0625 L 23.042969 21.605469 C 22.792969 21.230469 22.417969 20.769531 21.957031 20.25 Z M 21.957031 20.25 "/>
<path style=" stroke:none;fill-rule:nonzero;fill:rgb(0%,0%,0%);fill-opacity:1;" d="M 29.230469 18.625 C 28.417969 19.5 27.5 20.269531 26.5 20.917969 L 26.769531 21.832031 C 27.6875 21.144531 28.5 20.417969 29.230469 19.644531 L 29.230469 23.832031 L 30.082031 23.832031 L 30.082031 12.9375 L 29.230469 12.9375 Z M 27.480469 14.125 L 26.667969 14.394531 C 27.125 15.292969 27.542969 16.355469 27.917969 17.5625 L 28.667969 17.207031 C 28.332031 16.125 27.9375 15.082031 27.480469 14.125 Z M 35.582031 13.105469 L 34.894531 13.519531 C 35.519531 14.230469 36.042969 14.875 36.394531 15.480469 L 37.0625 15 C 36.707031 14.457031 36.230469 13.8125 35.582031 13.105469 Z M 34.25 12.894531 L 33.394531 12.894531 C 33.394531 13.625 33.375 14.707031 33.332031 16.082031 L 30.875 16.082031 L 30.875 16.917969 L 33.292969 16.917969 C 33.042969 19.292969 32.125 21.394531 30.519531 23.1875 L 31.082031 23.832031 C 32.457031 22.375 33.394531 20.5625 33.917969 18.375 C 34.4375 20.5625 35.457031 22.375 36.957031 23.8125 L 37.5625 23.167969 C 35.894531 21.6875 34.8125 19.605469 34.3125 16.917969 L 37.144531 16.917969 L 37.144531 16.082031 L 34.207031 16.082031 C 34.230469 14.832031 34.25 13.792969 34.25 12.894531 Z M 34.25 12.894531 "/>
<path style=" stroke:none;fill-rule:nonzero;fill:rgb(0%,0%,0%);fill-opacity:1;" d="M 43.5625 12.75 C 43.519531 13.230469 43.417969 13.6875 43.292969 14.125 L 39.0625 14.125 L 39.0625 14.957031 L 43 14.957031 C 42.769531 15.417969 42.519531 15.832031 42.167969 16.207031 C 41.417969 17 40.1875 17.625 38.480469 18.042969 L 38.8125 18.832031 C 40.25 18.457031 41.375 17.980469 42.167969 17.394531 C 42.75 17.832031 43.332031 18.355469 43.894531 18.9375 L 44.5 18.332031 C 43.855469 17.75 43.269531 17.269531 42.75 16.894531 C 42.792969 16.855469 42.832031 16.8125 42.875 16.769531 C 43.3125 16.25 43.667969 15.644531 43.9375 14.957031 L 44.125 14.957031 C 44.730469 16.582031 46.332031 17.875 49 18.8125 L 49.457031 18.0625 C 47.0625 17.3125 45.582031 16.292969 45 14.957031 L 48.832031 14.957031 L 48.832031 14.125 L 44.207031 14.125 C 44.292969 13.707031 44.375 13.292969 44.4375 12.832031 Z M 39.707031 19.855469 C 39.480469 20.917969 39.125 21.917969 38.605469 22.792969 L 39.355469 23.269531 C 39.875 22.355469 40.269531 21.269531 40.5625 20.019531 Z M 44.269531 19.417969 L 43.5 19.644531 C 43.894531 20.269531 44.25 20.980469 44.582031 21.769531 L 45.375 21.4375 C 45.0625 20.707031 44.6875 20.042969 44.269531 19.417969 Z M 47.855469 19.667969 L 47.019531 19.9375 C 47.582031 20.792969 48.105469 21.769531 48.5625 22.894531 L 49.355469 22.542969 C 48.9375 21.519531 48.4375 20.5625 47.855469 19.667969 Z M 45.644531 23.625 C 46.105469 23.625 46.4375 23.5 46.644531 23.3125 C 46.894531 23.0625 47.0625 22.417969 47.144531 21.332031 L 46.332031 21.0625 C 46.269531 21.894531 46.1875 22.394531 46.042969 22.5625 C 45.9375 22.707031 45.75 22.769531 45.5 22.769531 L 42.875 22.769531 C 42.519531 22.769531 42.355469 22.605469 42.355469 22.230469 L 42.355469 19.8125 L 41.457031 19.8125 L 41.457031 22.417969 C 41.457031 23.207031 41.832031 23.625 42.605469 23.625 Z M 45.644531 23.625 "/>
<path style=" stroke:none;fill-rule:nonzero;fill:rgb(0%,0%,0%);fill-opacity:1;" d="M 30.585938 38.667969 L 30.585938 38.375 C 29.730469 38.25 29.523438 38.125 29.523438 37.5 L 29.523438 31.75 C 29.523438 31.105469 29.773438 30.917969 30.585938 30.855469 L 30.585938 30.5625 L 26.523438 30.5625 L 26.523438 30.855469 C 27.355469 30.917969 27.585938 31.0625 27.585938 31.75 L 27.585938 34.1875 L 24.6875 34.1875 L 24.6875 31.75 C 24.6875 31.0625 24.917969 30.917969 25.773438 30.855469 L 25.773438 30.5625 L 21.730469 30.5625 L 21.730469 30.855469 C 22.542969 30.917969 22.75 31.082031 22.75 31.75 L 22.75 37.5 C 22.75 38.125 22.5625 38.25 21.730469 38.375 L 21.730469 38.667969 L 25.773438 38.667969 L 25.773438 38.375 C 24.898438 38.269531 24.6875 38.125 24.6875 37.5 L 24.6875 34.75 L 27.585938 34.75 L 27.585938 37.5 C 27.585938 38.105469 27.398438 38.269531 26.523438 38.375 L 26.523438 38.667969 Z M 30.585938 38.667969 "/>
<path style=" stroke:none;fill-rule:nonzero;fill:rgb(0%,0%,0%);fill-opacity:1;" d="M 33.191406 39.25 L 32.546875 39.25 L 32.773438 38.417969 C 32.773438 38.394531 32.773438 38.355469 32.773438 38.355469 C 32.773438 38.3125 32.753906 38.292969 32.710938 38.292969 C 32.671875 38.292969 32.628906 38.3125 32.585938 38.375 C 32.296875 38.8125 31.773438 39.1875 31.523438 39.25 C 31.335938 39.292969 31.273438 39.355469 31.273438 39.457031 C 31.273438 39.457031 31.273438 39.480469 31.273438 39.5 L 31.878906 39.5 L 31.253906 41.875 C 31.191406 42.125 31.128906 42.375 31.128906 42.457031 C 31.128906 42.667969 31.273438 42.75 31.484375 42.75 C 31.898438 42.75 32.148438 42.519531 32.628906 41.792969 L 32.523438 41.730469 C 32.128906 42.230469 32.003906 42.355469 31.878906 42.355469 C 31.816406 42.355469 31.753906 42.332031 31.753906 42.230469 C 31.753906 42.207031 31.773438 42.144531 31.773438 42.125 L 32.460938 39.5 L 33.148438 39.5 Z M 33.191406 39.25 "/>
<path style=" stroke:none;fill-rule:nonzero;fill:rgb(0%,0%,0%);fill-opacity:1;" d="M 38 40.917969 L 38 40.375 L 33.5625 40.375 L 33.5625 40.917969 Z M 38 40.917969 "/>
<path style=" stroke:none;fill-rule:nonzero;fill:rgb(0%,0%,0%);fill-opacity:1;" d="M 41.664062 42.667969 L 41.664062 42.542969 C 41.0625 42.542969 40.914062 42.394531 40.914062 42.0625 L 40.914062 37.292969 L 40.832031 37.25 L 39.414062 37.980469 L 39.414062 38.105469 L 39.625 38.019531 C 39.769531 37.957031 39.894531 37.917969 39.976562 37.917969 C 40.144531 37.917969 40.226562 38.042969 40.226562 38.3125 L 40.226562 41.917969 C 40.226562 42.355469 40.0625 42.519531 39.457031 42.542969 L 39.457031 42.667969 Z M 41.664062 42.667969 "/>
<path style="fill:none;stroke-width:1;stroke-linecap:round;stroke-linejoin:round;stroke:rgb(0%,0%,0%);stroke-opacity:1;stroke-miterlimit:10;" d="M 340.208008 320.000977 L 340.225586 301.49707 " transform="matrix(1.333333,0,0,1.333333,-281.333333,-308)"/>
<path style="fill:none;stroke-width:1;stroke-linecap:butt;stroke-linejoin:miter;stroke:rgb(0%,0%,0%);stroke-opacity:1;stroke-miterlimit:10;" d="M 340.231445 297.495117 L 340.225586 301.49707 M 338.725586 301.49707 L 340.231445 297.495117 L 341.725586 301.49707 " transform="matrix(1.333333,0,0,1.333333,-281.333333,-308)"/>
<path style="fill:none;stroke-width:1;stroke-linecap:round;stroke-linejoin:round;stroke:rgb(0%,0%,0%);stroke-opacity:1;stroke-miterlimit:10;" d="M 391.958008 320.000977 L 391.975586 306.899414 " transform="matrix(1.333333,0,0,1.333333,-281.333333,-308)"/>
<path style="fill:none;stroke-width:1;stroke-linecap:butt;stroke-linejoin:miter;stroke:rgb(0%,0%,0%);stroke-opacity:1;stroke-miterlimit:10;" d="M 391.984375 302.897461 L 391.975586 306.899414 M 390.475586 306.899414 L 391.984375 302.897461 L 393.475586 306.902344 " transform="matrix(1.333333,0,0,1.333333,-281.333333,-308)"/>
<path style=" stroke:none;fill-rule:nonzero;fill:rgb(40.000001%,74.901962%,100%);fill-opacity:1;" d="M 1.332031 273.332031 L 38.667969 273.332031 L 38.667969 252 L 1.332031 252 Z M 1.332031 273.332031 "/>
<path style="fill:none;stroke-width:1;stroke-linecap:round;stroke-linejoin:round;stroke:rgb(0%,0%,0%);stroke-opacity:1;stroke-miterlimit:10;" d="M 211.999023 420 L 240.000977 420 L 240.000977 435.999023 L 211.999023 435.999023 Z M 211.999023 420 " transform="matrix(1.333333,0,0,1.333333,-281.333333,-308)"/>
<path style=" stroke:none;fill-rule:nonzero;fill:rgb(0%,0%,0%);fill-opacity:1;" d="M 24.109375 260.242188 L 23.945312 261.136719 L 22.382812 261.136719 C 22.683594 261.570312 22.839844 262.109375 22.839844 262.761719 C 22.839844 263.777344 22.539062 264.671875 21.945312 265.449219 C 21.34375 266.230469 20.53125 266.617188 19.507812 266.617188 C 18.714844 266.617188 18.089844 266.386719 17.632812 265.929688 C 17.183594 265.460938 16.964844 264.84375 16.964844 264.09375 C 16.964844 262.984375 17.265625 262.046875 17.882812 261.28125 C 18.507812 260.507812 19.308594 260.117188 20.296875 260.117188 C 20.617188 260.117188 20.90625 260.15625 21.171875 260.242188 Z M 18.027344 264.074219 C 18.027344 264.574219 18.15625 264.984375 18.421875 265.304688 C 18.683594 265.625 19.046875 265.78125 19.507812 265.78125 C 20.214844 265.78125 20.765625 265.449219 21.171875 264.78125 C 21.574219 264.105469 21.777344 263.417969 21.777344 262.71875 C 21.777344 262.136719 21.640625 261.695312 21.382812 261.386719 C 21.132812 261.085938 20.78125 260.929688 20.339844 260.929688 C 19.632812 260.929688 19.070312 261.25 18.652344 261.886719 C 18.234375 262.527344 18.027344 263.257812 18.027344 264.074219 Z M 18.027344 264.074219 "/>
<path style="fill:none;stroke-width:1;stroke-linecap:round;stroke-linejoin:round;stroke:rgb(0%,0%,0%);stroke-opacity:1;stroke-miterlimit:10;" d="M 420.000977 423.999023 L 442.102539 423.999023 " transform="matrix(1.333333,0,0,1.333333,-281.333333,-308)"/>
<path style="fill:none;stroke-width:1;stroke-linecap:butt;stroke-linejoin:miter;stroke:rgb(0%,0%,0%);stroke-opacity:1;stroke-miterlimit:10;" d="M 446.101562 423.999023 L 442.102539 423.999023 M 442.102539 422.499023 L 446.101562 423.999023 L 442.102539 425.499023 " transform="matrix(1.333333,0,0,1.333333,-281.333333,-308)"/>
<path style="fill:none;stroke-width:1;stroke-linecap:round;stroke-linejoin:round;stroke:rgb(0%,0%,0%);stroke-opacity:1;stroke-miterlimit:10;" d="M 429.000977 435.999023 L 429.000977 429.999023 C 429.000977 426.688477 431.6875 423.999023 435.000977 423.999023 L 445.788086 423.999023 " transform="matrix(1.333333,0,0,1.333333,-281.333333,-308)"/>
<path style="fill:none;stroke-width:1;stroke-linecap:round;stroke-linejoin:round;stroke:rgb(0%,0%,0%);stroke-opacity:1;stroke-miterlimit:10;" d="M 340 435 L 362.101562 435 " transform="matrix(1.333333,0,0,1.333333,-281.333333,-308)"/>
<path style="fill:none;stroke-width:1;stroke-linecap:butt;stroke-linejoin:miter;stroke:rgb(0%,0%,0%);stroke-opacity:1;stroke-miterlimit:10;" d="M 366.100586 435 L 362.101562 435 M 362.101562 433.5 L 366.100586 435 L 362.101562 436.5 " transform="matrix(1.333333,0,0,1.333333,-281.333333,-308)"/>
<path style="fill:none;stroke-width:1;stroke-linecap:round;stroke-linejoin:round;stroke:rgb(0%,0%,0%);stroke-opacity:1;stroke-miterlimit:10;" d="M 340 435 L 346 435 C 349.313477 435 352 432.313477 352 429 L 352 424.898438 " transform="matrix(1.333333,0,0,1.333333,-281.333333,-308)"/>
<path style="fill:none;stroke-width:1;stroke-linecap:butt;stroke-linejoin:miter;stroke:rgb(0%,0%,0%);stroke-opacity:1;stroke-miterlimit:10;" d="M 352 420.899414 L 352 424.898438 M 350.5 424.898438 L 352 420.899414 L 353.5 424.898438 " transform="matrix(1.333333,0,0,1.333333,-281.333333,-308)"/>
<path style=" stroke:none;fill-rule:nonzero;fill:rgb(0%,0%,0%);fill-opacity:1;" d="M 62 252.855469 L 62 253.6875 L 63.792969 253.6875 L 63.792969 254.957031 L 64.582031 254.957031 L 64.582031 253.6875 L 66.875 253.6875 L 66.875 255 L 67.707031 255 L 67.707031 253.6875 L 70.019531 253.6875 L 70.019531 254.957031 L 70.832031 254.957031 L 70.832031 253.6875 L 72.667969 253.6875 L 72.667969 252.855469 L 70.832031 252.855469 L 70.832031 251.625 L 70.019531 251.625 L 70.019531 252.855469 L 67.707031 252.855469 L 67.707031 251.582031 L 66.875 251.582031 L 66.875 252.855469 L 64.582031 252.855469 L 64.582031 251.625 L 63.792969 251.625 L 63.792969 252.855469 Z M 72.269531 255.6875 L 62.394531 255.6875 L 62.394531 258.042969 L 63.230469 258.042969 L 63.230469 256.5 L 66.875 256.5 L 66.875 257.8125 L 63.875 257.8125 L 63.875 261.730469 L 64.707031 261.730469 L 64.707031 258.625 L 66.875 258.625 L 66.875 262.542969 L 67.75 262.542969 L 67.75 258.625 L 70 258.625 L 70 260.480469 C 70 260.769531 69.875 260.917969 69.605469 260.917969 L 68.5625 260.875 L 68.792969 261.707031 L 69.875 261.707031 C 70.519531 261.707031 70.855469 261.355469 70.855469 260.644531 L 70.855469 257.8125 L 67.75 257.8125 L 67.75 256.5 L 71.417969 256.5 L 71.417969 258 L 72.269531 258 Z M 72.269531 255.6875 "/>
<path style=" stroke:none;fill-rule:nonzero;fill:rgb(0%,0%,0%);fill-opacity:1;" d="M 76.75 252.582031 L 76.75 256.332031 L 77.792969 256.332031 L 78.144531 257.355469 L 76.292969 257.355469 L 76.292969 258.082031 L 77.480469 258.082031 C 77.355469 259 77.1875 259.730469 76.980469 260.269531 C 76.75 260.855469 76.394531 261.375 75.917969 261.855469 L 76.4375 262.542969 C 77 261.980469 77.417969 261.355469 77.707031 260.644531 C 77.8125 260.375 77.894531 260.082031 77.980469 259.730469 L 79.457031 259.730469 C 79.4375 260.5625 79.394531 261.082031 79.332031 261.3125 C 79.269531 261.542969 79.0625 261.644531 78.75 261.667969 L 78.019531 261.667969 L 78.230469 262.417969 L 78.980469 262.417969 C 79.457031 262.394531 79.8125 262.230469 80 261.875 C 80.1875 261.542969 80.292969 260.582031 80.292969 259.019531 L 78.125 259.019531 C 78.167969 258.730469 78.207031 258.4375 78.269531 258.082031 L 80.667969 258.082031 L 80.667969 257.355469 L 78.957031 257.355469 L 78.605469 256.332031 L 80.144531 256.332031 L 80.625 256.917969 C 80.769531 256.707031 80.9375 256.457031 81.105469 256.1875 C 81.375 257.4375 81.75 258.542969 82.207031 259.480469 C 81.75 260.394531 81.144531 261.144531 80.394531 261.75 L 80.855469 262.5 C 81.582031 261.917969 82.1875 261.1875 82.667969 260.332031 C 83.167969 261.207031 83.75 261.894531 84.417969 262.417969 L 84.917969 261.6875 C 84.1875 261.1875 83.582031 260.4375 83.0625 259.5 C 83.667969 258.144531 83.980469 256.480469 84.042969 254.519531 L 84.730469 254.519531 L 84.730469 253.707031 L 82.125 253.707031 C 82.292969 253.082031 82.4375 252.394531 82.542969 251.667969 L 81.75 251.519531 C 81.480469 253.332031 81.019531 254.8125 80.332031 255.9375 L 80.332031 252.582031 L 78.75 252.582031 C 78.875 252.269531 78.980469 251.957031 79.042969 251.625 L 78.1875 251.5 C 78.125 251.875 78.042969 252.230469 77.917969 252.582031 Z M 81.582031 255.230469 C 81.6875 255 81.769531 254.75 81.875 254.519531 L 83.25 254.519531 C 83.230469 256.0625 83 257.417969 82.605469 258.5625 C 82.1875 257.605469 81.855469 256.5 81.582031 255.230469 Z M 79.582031 255.6875 L 77.5 255.6875 L 77.5 254.8125 L 79.582031 254.8125 Z M 77.5 254.167969 L 77.5 253.230469 L 79.582031 253.230469 L 79.582031 254.167969 Z M 74.5 251.75 L 73.9375 252.292969 C 74.730469 252.875 75.332031 253.4375 75.792969 253.957031 L 76.355469 253.417969 C 75.832031 252.855469 75.230469 252.3125 74.5 251.75 Z M 74.332031 254.667969 L 73.75 255.230469 C 74.480469 255.832031 75.042969 256.394531 75.480469 256.957031 L 76.042969 256.375 C 75.582031 255.792969 75 255.230469 74.332031 254.667969 Z M 75.417969 258.230469 C 74.980469 259.542969 74.5 260.832031 73.917969 262.105469 L 74.6875 262.417969 C 75.207031 261.207031 75.707031 259.894531 76.144531 258.5 Z M 75.417969 258.230469 "/>
<path style=" stroke:none;fill-rule:nonzero;fill:rgb(0%,0%,0%);fill-opacity:1;" d="M 89.019531 255.019531 L 89.019531 255.855469 L 92.457031 255.855469 L 92.457031 257.707031 L 89.832031 257.707031 L 89.832031 262.542969 L 90.6875 262.542969 L 90.6875 261.875 L 95.1875 261.875 L 95.1875 262.519531 L 96.042969 262.519531 L 96.042969 257.707031 L 93.332031 257.707031 L 93.332031 255.855469 L 96.792969 255.855469 L 96.792969 255.019531 L 93.332031 255.019531 L 93.332031 253.019531 C 94.4375 252.875 95.394531 252.644531 96.230469 252.355469 L 95.8125 251.605469 C 94.082031 252.1875 91.894531 252.480469 89.292969 252.480469 L 89.542969 253.269531 C 90.582031 253.269531 91.542969 253.230469 92.457031 253.144531 L 92.457031 255.019531 Z M 90.6875 261.0625 L 90.6875 258.519531 L 95.1875 258.519531 L 95.1875 261.0625 Z M 86.855469 251.6875 L 86.269531 252.269531 C 87.125 252.832031 87.8125 253.375 88.3125 253.875 L 88.894531 253.292969 C 88.355469 252.75 87.667969 252.230469 86.855469 251.6875 Z M 86.582031 254.5625 L 85.980469 255.144531 C 86.855469 255.769531 87.542969 256.375 88.042969 256.9375 L 88.644531 256.332031 C 88.082031 255.75 87.394531 255.144531 86.582031 254.5625 Z M 88 257.75 C 87.5 259.207031 86.875 260.625 86.1875 262.019531 L 87.042969 262.394531 C 87.667969 261.042969 88.25 259.582031 88.769531 258.0625 Z M 88 257.75 "/>
<path style=" stroke:none;fill-rule:nonzero;fill:rgb(0%,0%,0%);fill-opacity:1;" d="M 99.875 259.875 C 101.019531 259.144531 102.105469 258.292969 103.125 257.3125 L 103.125 259.167969 C 103.125 259.5625 102.957031 259.75 102.625 259.75 C 102.269531 259.75 101.9375 259.730469 101.625 259.730469 L 101.855469 260.519531 L 102.9375 260.519531 C 103.582031 260.519531 103.917969 260.167969 103.917969 259.480469 L 103.917969 257.457031 C 104.644531 258.019531 105.542969 258.792969 106.582031 259.8125 L 107.082031 259.0625 C 106 258.125 104.957031 257.3125 103.917969 256.582031 L 103.917969 254.75 C 105.105469 254.105469 106.167969 253.457031 107.125 252.792969 L 107.125 251.980469 L 99.6875 251.980469 L 99.6875 252.792969 L 105.832031 252.792969 C 105.230469 253.1875 104.332031 253.6875 103.125 254.269531 L 103.125 256.332031 C 101.980469 257.417969 100.8125 258.3125 99.5625 259.019531 Z M 107.332031 254.167969 L 107.332031 261.082031 L 99.332031 261.082031 L 99.332031 254.167969 L 98.5 254.167969 L 98.5 262.542969 L 99.332031 262.542969 L 99.332031 261.875 L 107.332031 261.875 L 107.332031 262.5625 L 108.167969 262.5625 L 108.167969 254.167969 Z M 100.625 254.542969 L 100 254.9375 C 100.6875 255.605469 101.25 256.1875 101.667969 256.75 L 102.332031 256.292969 C 101.9375 255.792969 101.375 255.207031 100.625 254.542969 Z M 106.082031 254.457031 C 105.644531 255.1875 105.082031 255.832031 104.457031 256.355469 L 105.082031 256.792969 C 105.730469 256.230469 106.3125 255.5625 106.792969 254.792969 Z M 106.082031 254.457031 "/>
<path style=" stroke:none;fill-rule:nonzero;fill:rgb(0%,0%,0%);fill-opacity:1;" d="M 117.230469 254.1875 L 119 254.1875 C 118.957031 255.8125 118.707031 257.230469 118.230469 258.4375 C 117.75 257.4375 117.375 256.230469 117.082031 254.8125 Z M 117.832031 259.3125 C 117.292969 260.332031 116.5625 261.144531 115.625 261.792969 L 116.0625 262.519531 C 116.957031 261.875 117.707031 261.0625 118.292969 260.105469 C 118.875 261.125 119.605469 261.9375 120.4375 262.542969 L 120.917969 261.832031 C 120.042969 261.230469 119.3125 260.417969 118.6875 259.332031 C 119.375 257.917969 119.730469 256.1875 119.792969 254.1875 L 120.582031 254.1875 L 120.582031 253.375 L 117.417969 253.375 C 117.5 252.832031 117.605469 252.269531 117.667969 251.644531 L 116.832031 251.5 C 116.582031 253.792969 116.105469 255.605469 115.394531 256.9375 L 115.9375 257.605469 C 116.1875 257.167969 116.4375 256.6875 116.644531 256.125 C 116.980469 257.332031 117.375 258.375 117.832031 259.3125 Z M 112.144531 257.105469 C 112.0625 257.355469 111.980469 257.605469 111.875 257.875 L 110.105469 257.875 L 110.105469 258.625 L 111.519531 258.625 C 111.292969 259.105469 111.019531 259.582031 110.707031 260.125 C 111.292969 260.332031 111.832031 260.5625 112.375 260.792969 C 111.667969 261.1875 110.8125 261.519531 109.832031 261.769531 L 110.25 262.5 C 111.4375 262.167969 112.4375 261.707031 113.230469 261.167969 C 113.9375 261.480469 114.5625 261.792969 115.082031 262.105469 L 115.542969 261.4375 C 115.019531 261.144531 114.480469 260.894531 113.894531 260.625 C 114.519531 260.042969 114.957031 259.375 115.230469 258.582031 L 115.230469 257.875 L 112.707031 257.875 C 112.792969 257.644531 112.875 257.4375 112.957031 257.207031 Z M 113.105469 260.292969 C 112.667969 260.105469 112.207031 259.9375 111.730469 259.769531 C 111.980469 259.417969 112.1875 259.019531 112.375 258.625 L 114.4375 258.625 C 114.167969 259.25 113.707031 259.8125 113.105469 260.292969 Z M 111.0625 251.75 L 110.375 251.980469 C 110.667969 252.4375 110.9375 252.957031 111.1875 253.542969 L 111.8125 253.25 C 111.582031 252.730469 111.355469 252.230469 111.0625 251.75 Z M 114.707031 251.730469 C 114.5 252.230469 114.1875 252.730469 113.792969 253.25 L 114.417969 253.5625 C 114.792969 253.0625 115.082031 252.542969 115.332031 252 Z M 110.144531 253.832031 L 110.144531 254.582031 L 111.832031 254.582031 C 111.480469 255.25 110.832031 255.855469 109.917969 256.394531 L 110.332031 257.082031 C 111.355469 256.394531 112.082031 255.582031 112.480469 254.625 L 112.480469 256.894531 L 113.292969 256.894531 L 113.292969 255.355469 C 113.707031 255.625 114.230469 256.019531 114.832031 256.5 L 115.269531 255.832031 C 114.605469 255.417969 113.9375 255.042969 113.292969 254.730469 L 113.292969 254.582031 L 115.457031 254.582031 L 115.457031 253.832031 L 113.292969 253.832031 L 113.292969 251.542969 L 112.480469 251.542969 L 112.480469 253.832031 Z M 110.144531 253.832031 "/>
<path style=" stroke:none;fill-rule:nonzero;fill:rgb(0%,0%,0%);fill-opacity:1;" d="M 126.1875 253.605469 L 124.25 253.605469 C 124.480469 253 124.667969 252.355469 124.8125 251.644531 L 123.957031 251.519531 C 123.832031 252.230469 123.667969 252.9375 123.4375 253.605469 L 122.3125 253.605469 L 122.3125 262.144531 L 123.167969 262.144531 L 123.167969 261.105469 L 125.332031 261.105469 L 125.332031 261.792969 L 126.1875 261.792969 Z M 123.167969 260.292969 L 123.167969 257.667969 L 125.332031 257.667969 L 125.332031 260.292969 Z M 123.167969 256.894531 L 123.167969 254.417969 L 125.332031 254.417969 L 125.332031 256.894531 Z M 128.269531 256.394531 L 127.582031 256.8125 C 128.394531 257.8125 129.0625 258.6875 129.5625 259.480469 L 130.230469 259 C 129.792969 258.269531 129.125 257.375 128.269531 256.394531 Z M 132.375 253.625 L 128.5625 253.625 C 128.769531 253 128.9375 252.3125 129.082031 251.605469 L 128.230469 251.5 C 127.917969 253.207031 127.355469 254.644531 126.519531 255.832031 L 127.042969 256.5 C 127.5 255.894531 127.894531 255.207031 128.230469 254.457031 L 131.542969 254.457031 C 131.5 257.917969 131.457031 259.980469 131.394531 260.667969 C 131.292969 261.269531 130.980469 261.582031 130.394531 261.582031 C 130.042969 261.582031 129.605469 261.582031 129.105469 261.542969 L 129.292969 262.332031 C 129.875 262.375 130.292969 262.394531 130.519531 262.394531 C 131.542969 262.394531 132.082031 261.917969 132.207031 261 C 132.332031 260.082031 132.375 257.605469 132.375 253.625 Z M 132.375 253.625 "/>
<path style=" stroke:none;fill-rule:nonzero;fill:rgb(0%,0%,0%);fill-opacity:1;" d="M 79.019531 268.894531 C 77.625 270.417969 75.875 271.6875 73.769531 272.707031 L 74.1875 273.457031 C 76.3125 272.394531 78.019531 271.125 79.332031 269.6875 C 80.75 271.207031 82.4375 272.4375 84.4375 273.394531 L 84.875 272.625 C 82.894531 271.707031 81.167969 270.480469 79.644531 268.894531 Z M 75.980469 272.6875 L 75.980469 273.519531 L 78.894531 273.519531 L 78.894531 275.605469 L 75.417969 275.605469 L 75.417969 276.4375 L 78.894531 276.4375 L 78.894531 278.644531 L 74.332031 278.644531 L 74.332031 279.5 L 84.332031 279.5 L 84.332031 278.644531 L 79.769531 278.644531 L 79.769531 276.4375 L 83.25 276.4375 L 83.25 275.605469 L 79.769531 275.605469 L 79.769531 273.519531 L 82.6875 273.519531 L 82.6875 272.6875 Z M 75.980469 272.6875 "/>
<path style=" stroke:none;fill-rule:nonzero;fill:rgb(0%,0%,0%);fill-opacity:1;" d="M 86.875 269.0625 L 86.292969 269.625 C 87.125 270.3125 87.8125 270.9375 88.292969 271.519531 L 88.917969 270.917969 C 88.355469 270.292969 87.667969 269.6875 86.875 269.0625 Z M 93.832031 279.644531 L 96.582031 279.644531 L 96.792969 278.792969 C 96.480469 278.8125 96.019531 278.8125 95.457031 278.832031 C 94.855469 278.855469 94.292969 278.855469 93.730469 278.855469 C 92.792969 278.855469 92.019531 278.855469 91.394531 278.832031 C 90.6875 278.8125 90.167969 278.707031 89.792969 278.542969 C 89.457031 278.394531 89.167969 278.144531 88.875 277.792969 C 88.769531 277.6875 88.6875 277.582031 88.582031 277.519531 L 88.582031 273.019531 L 86.0625 273.019531 L 86.0625 273.8125 L 87.792969 273.8125 L 87.792969 277.457031 C 87.292969 277.6875 86.730469 278.292969 86.082031 279.3125 L 86.730469 279.894531 C 87.394531 278.792969 87.875 278.230469 88.144531 278.230469 C 88.292969 278.230469 88.457031 278.332031 88.605469 278.542969 C 88.980469 278.957031 89.394531 279.269531 89.875 279.417969 C 90.355469 279.542969 90.957031 279.625 91.730469 279.625 C 92.480469 279.644531 93.1875 279.644531 93.832031 279.644531 Z M 89.417969 270.105469 L 89.417969 270.894531 L 91 270.894531 C 90.605469 271.75 90.167969 272.480469 89.6875 273.042969 L 89.875 273.832031 L 92.644531 273.832031 L 92.644531 275.269531 L 89.3125 275.269531 L 89.3125 276.082031 L 92.644531 276.082031 L 92.644531 278.3125 L 93.480469 278.3125 L 93.480469 276.082031 L 96.605469 276.082031 L 96.605469 275.269531 L 93.480469 275.269531 L 93.480469 273.832031 L 96.082031 273.832031 L 96.082031 273.042969 L 93.480469 273.042969 L 93.480469 271.625 L 92.644531 271.625 L 92.644531 273.042969 L 90.707031 273.042969 C 91.144531 272.417969 91.542969 271.707031 91.917969 270.894531 L 96.457031 270.894531 L 96.457031 270.105469 L 92.25 270.105469 C 92.394531 269.730469 92.519531 269.375 92.644531 268.980469 L 91.832031 268.769531 C 91.6875 269.230469 91.519531 269.6875 91.355469 270.105469 Z M 89.417969 270.105469 "/>
<path style=" stroke:none;fill-rule:nonzero;fill:rgb(0%,0%,0%);fill-opacity:1;" d="M 103.6875 270.894531 L 102.980469 271.230469 C 103.230469 271.667969 103.457031 272.144531 103.707031 272.667969 L 101.875 272.667969 L 101.875 273.5 L 108.5625 273.5 L 108.5625 272.667969 L 106.625 272.667969 C 106.894531 272.1875 107.144531 271.644531 107.375 271.042969 L 106.5625 270.75 C 106.3125 271.4375 106.042969 272.0625 105.707031 272.667969 L 104.542969 272.667969 C 104.269531 272.019531 104 271.4375 103.6875 270.894531 Z M 105.269531 268.792969 L 104.375 268.9375 C 104.5 269.230469 104.644531 269.5625 104.792969 269.9375 L 102.144531 269.9375 L 102.144531 270.730469 L 108.355469 270.730469 L 108.355469 269.9375 L 105.667969 269.9375 C 105.519531 269.519531 105.394531 269.125 105.269531 268.792969 Z M 99.269531 279.75 C 99.980469 279.75 100.355469 279.417969 100.355469 278.707031 L 100.355469 275.167969 C 100.6875 275 101.019531 274.832031 101.355469 274.667969 L 101.355469 273.792969 C 101.019531 273.957031 100.6875 274.125 100.355469 274.292969 L 100.355469 272 L 101.332031 272 L 101.332031 271.167969 L 100.355469 271.167969 L 100.355469 268.894531 L 99.457031 268.894531 L 99.457031 271.167969 L 98 271.167969 L 98 272 L 99.457031 272 L 99.457031 274.667969 C 98.894531 274.894531 98.332031 275.0625 97.769531 275.207031 L 98 276.082031 C 98.480469 275.917969 98.980469 275.730469 99.457031 275.542969 L 99.457031 278.5 C 99.457031 278.8125 99.292969 278.957031 98.980469 278.957031 C 98.6875 278.957031 98.375 278.9375 98.0625 278.917969 L 98.230469 279.75 Z M 104.207031 273.832031 C 104.082031 274.167969 103.9375 274.5 103.769531 274.855469 L 101.707031 274.855469 L 101.707031 275.707031 L 103.3125 275.707031 C 103.0625 276.167969 102.792969 276.625 102.457031 277.125 C 103.292969 277.457031 104.082031 277.769531 104.8125 278.125 C 104.0625 278.542969 102.980469 278.875 101.582031 279.125 L 101.9375 279.917969 C 103.667969 279.582031 104.917969 279.105469 105.707031 278.542969 C 106.667969 279 107.5 279.4375 108.207031 279.875 L 108.6875 279.1875 C 107.9375 278.75 107.144531 278.332031 106.3125 277.957031 C 106.875 277.355469 107.25 276.582031 107.4375 275.707031 L 108.75 275.707031 L 108.75 274.855469 L 104.644531 274.855469 C 104.792969 274.5625 104.917969 274.25 105.042969 273.917969 Z M 106.625 275.707031 C 106.4375 276.480469 106.0625 277.105469 105.519531 277.605469 C 104.875 277.3125 104.207031 277.042969 103.519531 276.769531 C 103.75 276.4375 103.980469 276.082031 104.1875 275.707031 Z M 106.625 275.707031 "/>
<path style=" stroke:none;fill-rule:nonzero;fill:rgb(0%,0%,0%);fill-opacity:1;" d="M 113.230469 273.457031 L 113.230469 274.230469 L 119.730469 274.230469 L 119.730469 273.457031 Z M 112.375 275.417969 L 112.375 276.207031 L 115 276.207031 C 114.167969 277.5625 113.457031 278.394531 112.9375 278.707031 C 112.875 278.730469 112.832031 278.769531 112.75 278.792969 L 112.9375 279.519531 C 115.207031 279.375 117.292969 279.167969 119.1875 278.917969 C 119.4375 279.207031 119.644531 279.519531 119.855469 279.832031 L 120.542969 279.355469 C 120.019531 278.582031 119.25 277.667969 118.269531 276.625 L 117.625 277.019531 C 117.980469 277.4375 118.332031 277.832031 118.667969 278.230469 C 117.125 278.457031 115.5625 278.625 113.980469 278.730469 C 114.542969 278.230469 115.1875 277.375 115.917969 276.207031 L 120.519531 276.207031 L 120.519531 275.417969 Z M 119.0625 270.144531 L 119.0625 271.542969 L 112 271.542969 L 112 270.144531 Z M 112 272.3125 L 119.894531 272.3125 L 119.894531 269.332031 L 111.167969 269.332031 L 111.167969 273.3125 C 111.144531 275.730469 110.730469 277.6875 109.894531 279.207031 L 110.519531 279.792969 C 111.5 277.980469 112 275.8125 112 273.3125 Z M 112 272.3125 "/>
<path style=" stroke:none;fill-rule:nonzero;fill:rgb(0%,0%,0%);fill-opacity:1;" d="M 345.542969 257.0625 L 344.957031 257.625 C 345.792969 258.3125 346.480469 258.9375 346.957031 259.519531 L 347.582031 258.917969 C 347.019531 258.292969 346.332031 257.6875 345.542969 257.0625 Z M 352.5 267.644531 L 355.25 267.644531 L 355.457031 266.792969 C 355.144531 266.8125 354.6875 266.8125 354.125 266.832031 C 353.519531 266.855469 352.957031 266.855469 352.394531 266.855469 C 351.457031 266.855469 350.6875 266.855469 350.0625 266.832031 C 349.355469 266.8125 348.832031 266.707031 348.457031 266.542969 C 348.125 266.394531 347.832031 266.144531 347.542969 265.792969 C 347.4375 265.6875 347.355469 265.582031 347.25 265.519531 L 347.25 261.019531 L 344.730469 261.019531 L 344.730469 261.8125 L 346.457031 261.8125 L 346.457031 265.457031 C 345.957031 265.6875 345.394531 266.292969 344.75 267.3125 L 345.394531 267.894531 C 346.0625 266.792969 346.542969 266.230469 346.8125 266.230469 C 346.957031 266.230469 347.125 266.332031 347.269531 266.542969 C 347.644531 266.957031 348.0625 267.269531 348.542969 267.417969 C 349.019531 267.542969 349.625 267.625 350.394531 267.625 C 351.144531 267.644531 351.855469 267.644531 352.5 267.644531 Z M 348.082031 258.105469 L 348.082031 258.894531 L 349.667969 258.894531 C 349.269531 259.75 348.832031 260.480469 348.355469 261.042969 L 348.542969 261.832031 L 351.3125 261.832031 L 351.3125 263.269531 L 347.980469 263.269531 L 347.980469 264.082031 L 351.3125 264.082031 L 351.3125 266.3125 L 352.144531 266.3125 L 352.144531 264.082031 L 355.269531 264.082031 L 355.269531 263.269531 L 352.144531 263.269531 L 352.144531 261.832031 L 354.75 261.832031 L 354.75 261.042969 L 352.144531 261.042969 L 352.144531 259.625 L 351.3125 259.625 L 351.3125 261.042969 L 349.375 261.042969 C 349.8125 260.417969 350.207031 259.707031 350.582031 258.894531 L 355.125 258.894531 L 355.125 258.105469 L 350.917969 258.105469 C 351.0625 257.730469 351.1875 257.375 351.3125 256.980469 L 350.5 256.769531 C 350.355469 257.230469 350.1875 257.6875 350.019531 258.105469 Z M 348.082031 258.105469 "/>
<path style=" stroke:none;fill-rule:nonzero;fill:rgb(0%,0%,0%);fill-opacity:1;" d="M 360.9375 265.457031 C 359.730469 265.917969 358.3125 266.269531 356.667969 266.542969 L 356.769531 267.375 C 358.332031 267.082031 359.730469 266.730469 360.9375 266.292969 Z M 358.730469 256.832031 C 358.25 258.25 357.667969 259.519531 357 260.625 C 356.894531 260.769531 356.769531 260.875 356.644531 260.9375 L 356.855469 261.730469 C 357.542969 261.644531 358.230469 261.542969 358.917969 261.4375 C 358.25 262.5625 357.6875 263.355469 357.230469 263.8125 C 357.125 263.917969 356.980469 264 356.832031 264.082031 L 357.0625 264.855469 C 358.25 264.707031 359.5 264.394531 360.792969 263.957031 L 360.792969 263.1875 C 359.917969 263.480469 359.019531 263.730469 358.105469 263.917969 C 358.832031 263.042969 359.75 261.605469 360.832031 259.582031 L 360.082031 259.292969 C 359.832031 259.75 359.605469 260.207031 359.375 260.625 C 358.792969 260.730469 358.230469 260.8125 357.667969 260.875 C 358.292969 259.9375 358.917969 258.707031 359.519531 257.144531 Z M 360.792969 258.355469 L 360.792969 259.1875 L 363.667969 259.1875 L 363.667969 260.957031 L 361.1875 260.957031 L 361.1875 261.8125 L 367.042969 261.8125 L 367.042969 260.957031 L 364.542969 260.957031 L 364.542969 259.1875 L 367.394531 259.1875 L 367.394531 258.355469 L 364.542969 258.355469 L 364.542969 256.894531 L 363.667969 256.894531 L 363.667969 258.355469 Z M 366.707031 263 L 361.582031 263 L 361.582031 267.832031 L 362.4375 267.832031 L 362.4375 267.25 L 365.855469 267.25 L 365.855469 267.832031 L 366.707031 267.832031 Z M 362.4375 266.4375 L 362.4375 263.8125 L 365.855469 263.8125 L 365.855469 266.4375 Z M 362.4375 266.4375 "/>
<path style=" stroke:none;fill-rule:nonzero;fill:rgb(0%,0%,0%);fill-opacity:1;" d="M 227.332031 258.5 L 234.75 258.5 L 234.75 257.75 L 227.730469 257.75 C 227.855469 257.480469 227.957031 257.1875 228.0625 256.894531 L 227.207031 256.75 C 226.75 258.105469 225.917969 259.230469 224.6875 260.167969 L 225.207031 260.832031 C 225.730469 260.4375 226.1875 260 226.582031 259.542969 L 226.582031 263.125 L 228.125 263.125 C 227.480469 264 226.480469 264.707031 225.082031 265.25 L 225.542969 265.980469 C 226.167969 265.6875 226.730469 265.375 227.207031 265.042969 C 227.855469 265.605469 228.605469 266.082031 229.417969 266.480469 C 228.167969 266.832031 226.6875 267.042969 224.957031 267.125 L 225.292969 267.875 C 227.3125 267.75 229.019531 267.4375 230.4375 266.917969 C 231.792969 267.4375 233.375 267.75 235.125 267.832031 L 235.332031 267.042969 C 233.917969 267 232.625 266.792969 231.457031 266.457031 C 232.457031 265.957031 233.25 265.332031 233.832031 264.5625 L 233.832031 263.9375 L 228.457031 263.9375 C 228.6875 263.6875 228.875 263.417969 229.0625 263.125 L 233.8125 263.125 L 233.8125 259.332031 L 226.75 259.332031 C 226.957031 259.0625 227.144531 258.792969 227.332031 258.5 Z M 230.4375 266.125 C 229.480469 265.75 228.605469 265.25 227.832031 264.644531 L 232.769531 264.644531 C 232.1875 265.230469 231.394531 265.730469 230.4375 266.125 Z M 232.980469 262.4375 L 227.4375 262.4375 L 227.4375 261.542969 L 232.980469 261.542969 Z M 227.4375 260.894531 L 227.4375 260.019531 L 232.980469 260.019531 L 232.980469 260.894531 Z M 227.4375 260.894531 "/>
<path style=" stroke:none;fill-rule:nonzero;fill:rgb(0%,0%,0%);fill-opacity:1;" d="M 237.875 259.1875 L 239.542969 259.1875 L 239.542969 260.730469 L 236.644531 260.730469 L 236.644531 261.542969 L 239.542969 261.542969 L 239.542969 262.8125 L 237.1875 262.8125 L 237.1875 267.125 L 238.019531 267.125 L 238.019531 263.605469 L 239.542969 263.605469 L 239.542969 267.875 L 240.417969 267.875 L 240.417969 263.605469 L 241.9375 263.605469 L 241.9375 265.792969 C 241.9375 266.105469 241.75 266.25 241.417969 266.25 L 240.832031 266.230469 L 241.042969 267.042969 L 241.667969 267.042969 C 242.394531 267.042969 242.75 266.6875 242.75 265.980469 L 242.75 262.8125 L 240.417969 262.8125 L 240.417969 261.542969 L 243 261.542969 L 243 260.730469 L 240.417969 260.730469 L 240.417969 259.1875 L 242.667969 259.1875 L 242.667969 258.394531 L 240.417969 258.394531 L 240.417969 256.894531 L 239.542969 256.894531 L 239.542969 258.394531 L 238.167969 258.394531 C 238.25 258.0625 238.332031 257.707031 238.394531 257.332031 L 237.5625 257.207031 C 237.394531 258.332031 237.019531 259.230469 236.417969 259.875 L 237.125 260.375 C 237.394531 260.0625 237.644531 259.667969 237.875 259.1875 Z M 243.707031 257.980469 L 243.707031 265.394531 L 244.5625 265.394531 L 244.5625 257.980469 Z M 245.917969 267.75 C 246.644531 267.75 247.019531 267.375 247.019531 266.625 L 247.019531 256.894531 L 246.167969 256.894531 L 246.167969 266.417969 C 246.167969 266.792969 245.980469 267 245.605469 267 C 245.082031 267 244.542969 266.957031 243.957031 266.9375 L 244.144531 267.75 Z M 245.917969 267.75 "/>
</g>
</svg>
