<?xml version="1.0" encoding="UTF-8"?>
<svg xmlns="http://www.w3.org/2000/svg" xmlns:xlink="http://www.w3.org/1999/xlink" width="524" height="284" viewBox="0 0 524 284" version="1.1">
<defs>
<clipPath id="clip1">
  <path d="M 220.734375 90.109375 L 230.667969 90.109375 L 230.667969 100 L 220.734375 100 Z M 220.734375 90.109375 "/>
</clipPath>
<clipPath id="clip2">
  <path d="M 223.71875 93.332031 L 227 93.332031 L 227 96.566406 L 223.71875 96.566406 Z M 223.71875 93.332031 "/>
</clipPath>
<clipPath id="clip3">
  <path d="M 220.734375 90.109375 L 230.667969 90.109375 L 230.667969 100 L 220.734375 100 Z M 220.734375 90.109375 "/>
</clipPath>
<clipPath id="clip4">
  <path d="M 223.71875 93.332031 L 227 93.332031 L 227 96.566406 L 223.71875 96.566406 Z M 223.71875 93.332031 "/>
</clipPath>
</defs>
<g id="surface1">
<path style="fill:none;stroke-width:1;stroke-linecap:round;stroke-linejoin:round;stroke:rgb(0%,0%,0%);stroke-opacity:1;stroke-miterlimit:10;" d="M 291.999023 231.999023 L 464.000977 231.999023 C 470.62793 231.999023 476.000977 237.37207 476.000977 243.999023 L 476.000977 363.999023 C 476.000977 370.628906 470.62793 375.999023 464.000977 375.999023 L 291.999023 375.999023 C 285.37207 375.999023 279.999023 370.628906 279.999023 363.999023 L 279.999023 243.999023 C 279.999023 237.37207 285.37207 231.999023 291.999023 231.999023 Z M 291.999023 231.999023 " transform="matrix(1.333333,0,0,1.333333,-196,-308)"/>
<path style=" stroke:none;fill-rule:nonzero;fill:rgb(40.000001%,74.901962%,100%);fill-opacity:1;" d="M 238.9375 140 L 276.269531 140 L 276.269531 118.667969 L 238.9375 118.667969 Z M 238.9375 140 "/>
<path style="fill:none;stroke-width:1;stroke-linecap:round;stroke-linejoin:round;stroke:rgb(0%,0%,0%);stroke-opacity:1;stroke-miterlimit:10;" d="M 326.203125 320.000977 L 354.202148 320.000977 L 354.202148 336 L 326.203125 336 Z M 326.203125 320.000977 " transform="matrix(1.333333,0,0,1.333333,-196,-308)"/>
<path style=" stroke:none;fill-rule:nonzero;fill:rgb(0%,0%,0%);fill-opacity:1;" d="M 261.710938 126.90625 L 261.546875 127.804688 L 259.984375 127.804688 C 260.285156 128.234375 260.441406 128.777344 260.441406 129.429688 C 260.441406 130.445312 260.140625 131.339844 259.546875 132.117188 C 258.945312 132.898438 258.132812 133.28125 257.109375 133.28125 C 256.316406 133.28125 255.691406 133.054688 255.234375 132.59375 C 254.785156 132.125 254.566406 131.511719 254.566406 130.761719 C 254.566406 129.652344 254.867188 128.714844 255.484375 127.949219 C 256.109375 127.171875 256.910156 126.78125 257.898438 126.78125 C 258.21875 126.78125 258.507812 126.824219 258.773438 126.90625 Z M 255.628906 130.742188 C 255.628906 131.242188 255.757812 131.652344 256.023438 131.96875 C 256.285156 132.292969 256.648438 132.449219 257.109375 132.449219 C 257.816406 132.449219 258.367188 132.117188 258.773438 131.449219 C 259.175781 130.773438 259.378906 130.085938 259.378906 129.386719 C 259.378906 128.804688 259.242188 128.359375 258.984375 128.054688 C 258.734375 127.75 258.382812 127.59375 257.941406 127.59375 C 257.234375 127.59375 256.671875 127.917969 256.253906 128.554688 C 255.835938 129.195312 255.628906 129.921875 255.628906 130.742188 Z M 255.628906 130.742188 "/>
<path style="fill:none;stroke-width:1;stroke-linecap:round;stroke-linejoin:round;stroke:rgb(0%,0%,0%);stroke-opacity:1;stroke-miterlimit:10;" d="M 253.5 252.75293 L 300.043945 252.128906 " transform="matrix(1.333333,0,0,1.333333,-196,-308)"/>
<path style="fill-rule:nonzero;fill:rgb(69.803923%,85.09804%,100%);fill-opacity:1;stroke-width:1;stroke-linecap:round;stroke-linejoin:round;stroke:rgb(0%,0%,0%);stroke-opacity:1;stroke-miterlimit:10;" d="M 322.207031 296.926758 C 325.333008 300.049805 325.333008 305.112305 322.207031 308.238281 C 319.081055 311.364258 314.018555 311.364258 310.895508 308.238281 C 307.769531 305.112305 307.769531 300.049805 310.895508 296.926758 C 314.018555 293.800781 319.081055 293.800781 322.207031 296.926758 " transform="matrix(1.333333,0,0,1.333333,-196,-308)"/>
<g clip-path="url(#clip1)" clip-rule="nonzero">
<path style="fill:none;stroke-width:1;stroke-linecap:round;stroke-linejoin:round;stroke:rgb(0%,0%,0%);stroke-opacity:1;stroke-miterlimit:10;" d="M 318.67215 300.461746 C 319.844025 301.633621 319.844025 303.532059 318.67215 304.703934 C 317.500275 305.875809 315.601837 305.875809 314.429962 304.703934 C 313.258087 303.532059 313.258087 301.633621 314.429962 300.461746 C 315.601837 299.289871 317.500275 299.289871 318.67215 300.461746 " transform="matrix(1.333333,0,0,1.333333,-196.599325,-308.557068)"/>
</g>
<g clip-path="url(#clip2)" clip-rule="nonzero">
<path style=" stroke:none;fill-rule:nonzero;fill:rgb(0%,0%,0%);fill-opacity:1;" d="M 226.988281 94.878906 C 226.988281 94.046875 226.300781 93.359375 225.464844 93.359375 C 224.632812 93.359375 223.945312 94.046875 223.945312 94.878906 C 223.945312 95.714844 224.632812 96.402344 225.464844 96.402344 C 226.300781 96.402344 226.988281 95.714844 226.988281 94.878906 Z M 226.988281 94.878906 "/>
</g>
<g clip-path="url(#clip3)" clip-rule="nonzero">
<path style="fill:none;stroke-width:1;stroke-linecap:round;stroke-linejoin:round;stroke:rgb(0%,0%,0%);stroke-opacity:1;stroke-miterlimit:10;" d="M 318.67215 300.461746 C 319.844025 301.633621 319.844025 303.532059 318.67215 304.703934 C 317.500275 305.875809 315.601837 305.875809 314.429962 304.703934 C 313.258087 303.532059 313.258087 301.633621 314.429962 300.461746 C 315.601837 299.289871 317.500275 299.289871 318.67215 300.461746 " transform="matrix(1.333333,0,0,1.333333,-196.599325,-308.557068)"/>
</g>
<g clip-path="url(#clip4)" clip-rule="nonzero">
<path style=" stroke:none;fill-rule:nonzero;fill:rgb(0%,0%,0%);fill-opacity:1;" d="M 226.988281 94.878906 C 226.988281 94.046875 226.300781 93.359375 225.464844 93.359375 C 224.632812 93.359375 223.945312 94.046875 223.945312 94.878906 C 223.945312 95.714844 224.632812 96.402344 225.464844 96.402344 C 226.300781 96.402344 226.988281 95.714844 226.988281 94.878906 Z M 226.988281 94.878906 "/>
</g>
<path style="fill:none;stroke-width:1;stroke-linecap:round;stroke-linejoin:round;stroke:rgb(0%,0%,0%);stroke-opacity:1;stroke-miterlimit:10;" d="M 270.553711 252.37207 L 293.926758 252.079102 C 297.237305 252.035156 299.956055 254.686523 300 258 C 300 258.026367 300 258.049805 300 258.073242 L 300 345.999023 C 300 349.3125 302.686523 351.999023 306 351.999023 L 334.051758 351.999023 C 337.344727 351.999023 340.022461 349.344727 340.051758 346.051758 L 340.086914 341.897461 " transform="matrix(1.333333,0,0,1.333333,-196,-308)"/>
<path style="fill:none;stroke-width:1;stroke-linecap:butt;stroke-linejoin:miter;stroke:rgb(0%,0%,0%);stroke-opacity:1;stroke-miterlimit:10;" d="M 340.116211 337.898438 L 340.086914 341.897461 M 338.586914 341.885742 L 340.116211 337.898438 L 341.586914 341.915039 " transform="matrix(1.333333,0,0,1.333333,-196,-308)"/>
<path style="fill:none;stroke-width:1;stroke-linecap:round;stroke-linejoin:round;stroke:rgb(0%,0%,0%);stroke-opacity:1;stroke-miterlimit:10;" d="M 340.133789 320.000977 L 340.045898 309.430664 C 340.019531 306.348633 337.664062 303.785156 334.59375 303.503906 L 330.424805 303.120117 " transform="matrix(1.333333,0,0,1.333333,-196,-308)"/>
<path style="fill:none;stroke-width:1;stroke-linecap:butt;stroke-linejoin:miter;stroke:rgb(0%,0%,0%);stroke-opacity:1;stroke-miterlimit:10;" d="M 326.44043 302.753906 L 330.424805 303.120117 M 330.290039 304.614258 L 326.44043 302.753906 L 330.5625 301.628906 " transform="matrix(1.333333,0,0,1.333333,-196,-308)"/>
<path style=" stroke:none;fill-rule:nonzero;fill:rgb(40.000001%,74.901962%,100%);fill-opacity:1;" d="M 307.925781 140 L 345.261719 140 L 345.261719 118.667969 L 307.925781 118.667969 Z M 307.925781 140 "/>
<path style="fill:none;stroke-width:1;stroke-linecap:round;stroke-linejoin:round;stroke:rgb(0%,0%,0%);stroke-opacity:1;stroke-miterlimit:10;" d="M 377.944336 320.000977 L 405.946289 320.000977 L 405.946289 336 L 377.944336 336 Z M 377.944336 320.000977 " transform="matrix(1.333333,0,0,1.333333,-196,-308)"/>
<path style=" stroke:none;fill-rule:nonzero;fill:rgb(0%,0%,0%);fill-opacity:1;" d="M 330.703125 126.90625 L 330.535156 127.804688 L 328.972656 127.804688 C 329.277344 128.234375 329.433594 128.777344 329.433594 129.429688 C 329.433594 130.445312 329.128906 131.339844 328.535156 132.117188 C 327.9375 132.898438 327.125 133.28125 326.097656 133.28125 C 325.308594 133.28125 324.683594 133.054688 324.222656 132.59375 C 323.777344 132.125 323.558594 131.511719 323.558594 130.761719 C 323.558594 129.652344 323.859375 128.714844 324.472656 127.949219 C 325.097656 127.171875 325.902344 126.78125 326.890625 126.78125 C 327.207031 126.78125 327.5 126.824219 327.765625 126.90625 Z M 324.621094 130.742188 C 324.621094 131.242188 324.75 131.652344 325.015625 131.96875 C 325.277344 132.292969 325.640625 132.449219 326.097656 132.449219 C 326.808594 132.449219 327.359375 132.117188 327.765625 131.449219 C 328.167969 130.773438 328.371094 130.085938 328.371094 129.386719 C 328.371094 128.804688 328.234375 128.359375 327.972656 128.054688 C 327.722656 127.75 327.375 127.59375 326.933594 127.59375 C 326.222656 127.59375 325.660156 127.917969 325.246094 128.554688 C 324.828125 129.195312 324.621094 129.921875 324.621094 130.742188 Z M 324.621094 130.742188 "/>
<path style=" stroke:none;fill-rule:nonzero;fill:rgb(0%,0%,0%);fill-opacity:1;" d="M 251.855469 60.003906 L 251.855469 63.984375 L 255.5625 63.984375 L 255.5625 64.816406 L 251.292969 64.816406 L 251.292969 65.503906 L 255.5625 65.503906 L 255.5625 66.398438 L 250.6875 66.398438 L 250.6875 67.171875 L 261.3125 67.171875 L 261.3125 66.398438 L 256.417969 66.398438 L 256.417969 65.503906 L 260.707031 65.503906 L 260.707031 64.816406 L 256.417969 64.816406 L 256.417969 63.984375 L 260.144531 63.984375 L 260.144531 60.003906 L 256.417969 60.003906 L 256.417969 59.234375 L 261.144531 59.234375 L 261.144531 58.484375 L 256.417969 58.484375 L 256.417969 57.566406 C 257.75 57.484375 259 57.398438 260.144531 57.273438 L 259.894531 56.546875 C 257.5 56.816406 254.75 57.003906 251.625 57.085938 L 251.769531 57.796875 C 253.082031 57.753906 254.355469 57.691406 255.5625 57.628906 L 255.5625 58.484375 L 250.855469 58.484375 L 250.855469 59.234375 L 255.5625 59.234375 L 255.5625 60.003906 Z M 259.292969 63.296875 L 256.417969 63.296875 L 256.417969 62.316406 L 259.292969 62.316406 Z M 255.5625 63.296875 L 252.667969 63.296875 L 252.667969 62.316406 L 255.5625 62.316406 Z M 252.667969 61.648438 L 252.667969 60.691406 L 255.5625 60.691406 L 255.5625 61.648438 Z M 256.417969 60.691406 L 259.292969 60.691406 L 259.292969 61.648438 L 256.417969 61.648438 Z M 256.417969 60.691406 "/>
<path style=" stroke:none;fill-rule:nonzero;fill:rgb(0%,0%,0%);fill-opacity:1;" d="M 262.855469 59.859375 L 262.855469 60.523438 L 267.417969 60.523438 C 267.375 60.753906 267.332031 60.984375 267.292969 61.210938 L 264.375 61.210938 L 264.375 66.503906 L 262.644531 66.503906 L 262.644531 67.191406 L 273.375 67.191406 L 273.375 66.503906 L 271.644531 66.503906 L 271.644531 61.210938 L 268.144531 61.210938 C 268.207031 61.003906 268.25 60.773438 268.292969 60.523438 L 273.167969 60.523438 L 273.167969 59.859375 L 268.375 59.859375 L 268.457031 59.171875 L 272.355469 59.171875 L 272.355469 56.921875 L 263.644531 56.921875 L 263.644531 59.171875 L 267.582031 59.171875 L 267.519531 59.859375 Z M 265.207031 66.503906 L 265.207031 65.710938 L 270.792969 65.710938 L 270.792969 66.503906 Z M 265.207031 65.171875 L 265.207031 64.421875 L 270.792969 64.421875 L 270.792969 65.171875 Z M 265.207031 63.859375 L 265.207031 63.109375 L 270.792969 63.109375 L 270.792969 63.859375 Z M 265.207031 62.566406 L 265.207031 61.816406 L 270.792969 61.816406 L 270.792969 62.566406 Z M 271.519531 58.566406 L 269.75 58.566406 L 269.75 57.566406 L 271.519531 57.566406 Z M 268.957031 58.566406 L 267.042969 58.566406 L 267.042969 57.566406 L 268.957031 57.566406 Z M 266.269531 58.566406 L 264.480469 58.566406 L 264.480469 57.566406 L 266.269531 57.566406 Z M 266.269531 58.566406 "/>
<path style=" stroke:none;fill-rule:nonzero;fill:rgb(0%,0%,0%);fill-opacity:1;" d="M 283.605469 67.378906 C 284.394531 67.378906 284.792969 66.960938 284.792969 66.148438 L 284.792969 57.085938 L 279.332031 57.085938 L 279.332031 57.878906 L 283.957031 57.878906 L 283.957031 65.921875 C 283.957031 66.378906 283.769531 66.609375 283.417969 66.609375 L 282.355469 66.566406 L 282.5625 67.378906 Z M 275.1875 58.460938 L 275.1875 67.484375 L 276.019531 67.484375 L 276.019531 58.460938 Z M 276.9375 56.359375 L 276.144531 56.710938 C 276.6875 57.359375 277.1875 58.109375 277.644531 58.941406 L 278.417969 58.523438 C 277.980469 57.734375 277.480469 57.023438 276.9375 56.359375 Z M 276.9375 56.359375 "/>
<path style=" stroke:none;fill-rule:nonzero;fill:rgb(0%,0%,0%);fill-opacity:1;" d="M 271.140625 82.273438 L 271.140625 81.984375 C 270.929688 81.984375 270.722656 81.859375 270.617188 81.710938 L 268.222656 78.316406 C 268.929688 78.128906 269.242188 77.941406 269.578125 77.648438 C 269.929688 77.316406 270.117188 76.773438 270.117188 76.234375 C 270.117188 74.835938 268.910156 74.171875 266.554688 74.171875 L 262.867188 74.171875 L 262.867188 74.460938 C 263.765625 74.523438 263.929688 74.734375 263.929688 75.671875 L 263.929688 80.835938 C 263.929688 81.773438 263.804688 81.859375 262.867188 81.984375 L 262.867188 82.273438 L 266.929688 82.273438 L 266.929688 81.984375 C 265.992188 81.859375 265.867188 81.753906 265.867188 80.878906 L 265.867188 78.523438 L 266.203125 78.523438 L 268.679688 82.273438 Z M 265.867188 75.109375 C 265.867188 74.710938 266.035156 74.566406 266.515625 74.566406 C 267.617188 74.566406 268.054688 75.066406 268.054688 76.335938 C 268.054688 77.816406 267.429688 78.128906 265.867188 78.128906 Z M 265.867188 75.109375 "/>
<path style=" stroke:none;fill-rule:nonzero;fill:rgb(0%,0%,0%);fill-opacity:1;" d="M 273.59375 82.859375 L 272.949219 82.859375 L 273.179688 82.023438 C 273.179688 82.003906 273.179688 81.960938 273.179688 81.960938 C 273.179688 81.921875 273.15625 81.898438 273.117188 81.898438 C 273.074219 81.898438 273.03125 81.921875 272.992188 81.984375 C 272.699219 82.421875 272.179688 82.796875 271.929688 82.859375 C 271.742188 82.898438 271.679688 82.960938 271.679688 83.066406 C 271.679688 83.066406 271.679688 83.085938 271.679688 83.109375 L 272.28125 83.109375 L 271.65625 85.484375 C 271.59375 85.734375 271.53125 85.984375 271.53125 86.066406 C 271.53125 86.273438 271.679688 86.359375 271.886719 86.359375 C 272.304688 86.359375 272.554688 86.128906 273.03125 85.398438 L 272.929688 85.335938 C 272.53125 85.835938 272.40625 85.960938 272.28125 85.960938 C 272.21875 85.960938 272.15625 85.941406 272.15625 85.835938 C 272.15625 85.816406 272.179688 85.753906 272.179688 85.734375 L 272.867188 83.109375 L 273.554688 83.109375 Z M 273.59375 82.859375 "/>
<path style=" stroke:none;fill-rule:nonzero;fill:rgb(0%,0%,0%);fill-opacity:1;" d="M 308.1875 56.941406 L 308.1875 57.753906 L 312.894531 57.753906 L 312.894531 58.796875 L 309.230469 58.796875 L 309.230469 63.546875 L 312.75 63.546875 C 312.625 64.171875 312.417969 64.691406 312.125 65.109375 C 311.457031 64.753906 310.832031 64.335938 310.269531 63.878906 L 309.605469 64.335938 C 310.1875 64.835938 310.832031 65.273438 311.542969 65.671875 C 310.769531 66.210938 309.542969 66.546875 307.875 66.691406 L 308.25 67.484375 C 310.144531 67.253906 311.542969 66.796875 312.375 66.085938 C 314.167969 66.898438 316.269531 67.359375 318.667969 67.460938 L 318.894531 66.628906 C 316.582031 66.566406 314.582031 66.171875 312.917969 65.460938 C 313.25 64.984375 313.480469 64.335938 313.625 63.546875 L 317.480469 63.546875 L 317.480469 58.796875 L 313.769531 58.796875 L 313.769531 57.753906 L 318.480469 57.753906 L 318.480469 56.941406 Z M 316.625 62.796875 L 313.730469 62.796875 L 313.769531 61.941406 L 313.769531 61.523438 L 316.625 61.523438 Z M 312.875 62.796875 L 310.082031 62.796875 L 310.082031 61.523438 L 312.894531 61.523438 L 312.894531 61.941406 C 312.894531 62.234375 312.894531 62.523438 312.875 62.796875 Z M 310.082031 60.796875 L 310.082031 59.546875 L 312.894531 59.546875 L 312.894531 60.796875 Z M 313.769531 59.546875 L 316.625 59.546875 L 316.625 60.796875 L 313.769531 60.796875 Z M 313.769531 59.546875 "/>
<path style=" stroke:none;fill-rule:nonzero;fill:rgb(0%,0%,0%);fill-opacity:1;" d="M 330.0625 56.585938 C 328.894531 57.085938 327.582031 57.378906 326.144531 57.398438 L 326.144531 62.523438 C 326.082031 64.359375 325.6875 65.773438 324.980469 66.816406 L 325.605469 67.460938 C 326.457031 66.234375 326.917969 64.585938 326.980469 62.523438 L 326.980469 61.109375 L 328.75 61.109375 L 328.75 67.503906 L 329.605469 67.503906 L 329.605469 61.109375 L 330.855469 61.109375 L 330.855469 60.273438 L 326.980469 60.273438 L 326.980469 58.085938 C 328.269531 58.023438 329.4375 57.773438 330.5 57.359375 Z M 320.0625 57.523438 L 320.0625 58.316406 L 325.480469 58.316406 L 325.480469 57.523438 L 323.207031 57.523438 C 323.042969 57.085938 322.875 56.691406 322.6875 56.316406 L 321.8125 56.460938 C 322 56.773438 322.1875 57.128906 322.355469 57.523438 Z M 319.9375 60.234375 L 319.9375 61.023438 L 322.375 61.023438 L 322.375 62.359375 L 320.144531 62.359375 L 320.144531 63.148438 L 322.375 63.148438 L 322.375 66.335938 C 322.375 66.628906 322.207031 66.773438 321.894531 66.773438 C 321.730469 66.773438 321.5625 66.753906 321.355469 66.710938 L 321.542969 67.523438 L 322.1875 67.523438 C 322.875 67.523438 323.230469 67.191406 323.230469 66.546875 L 323.230469 63.148438 L 325.355469 63.148438 L 325.355469 62.359375 L 323.230469 62.359375 L 323.230469 61.023438 L 325.542969 61.023438 L 325.542969 60.234375 L 324.1875 60.234375 C 324.417969 59.835938 324.625 59.359375 324.8125 58.835938 L 324.042969 58.585938 C 323.855469 59.148438 323.644531 59.710938 323.417969 60.234375 L 322.082031 60.234375 C 321.894531 59.585938 321.6875 59.046875 321.457031 58.609375 L 320.6875 58.878906 C 320.9375 59.296875 321.144531 59.753906 321.332031 60.234375 Z M 320.980469 63.796875 C 320.707031 64.859375 320.3125 65.816406 319.75 66.691406 L 320.457031 67.128906 C 321.019531 66.234375 321.457031 65.191406 321.769531 63.960938 Z M 324.417969 63.710938 L 323.707031 63.921875 C 324.042969 64.628906 324.3125 65.378906 324.542969 66.128906 L 325.269531 65.859375 C 325.0625 65.210938 324.792969 64.503906 324.417969 63.710938 Z M 324.417969 63.710938 "/>
<path style=" stroke:none;fill-rule:nonzero;fill:rgb(0%,0%,0%);fill-opacity:1;" d="M 340.9375 67.378906 C 341.730469 67.378906 342.125 66.960938 342.125 66.148438 L 342.125 57.085938 L 336.667969 57.085938 L 336.667969 57.878906 L 341.292969 57.878906 L 341.292969 65.921875 C 341.292969 66.378906 341.105469 66.609375 340.75 66.609375 L 339.6875 66.566406 L 339.894531 67.378906 Z M 332.519531 58.460938 L 332.519531 67.484375 L 333.355469 67.484375 L 333.355469 58.460938 Z M 334.269531 56.359375 L 333.480469 56.710938 C 334.019531 57.359375 334.519531 58.109375 334.980469 58.941406 L 335.75 58.523438 C 335.3125 57.734375 334.8125 57.023438 334.269531 56.359375 Z M 334.269531 56.359375 "/>
<path style=" stroke:none;fill-rule:nonzero;fill:rgb(0%,0%,0%);fill-opacity:1;" d="M 327.824219 79.378906 L 327.511719 79.378906 C 327.175781 80.398438 327.011719 80.898438 326.34375 81.378906 C 325.84375 81.734375 325.050781 81.859375 323.90625 81.859375 L 322.925781 81.859375 L 327.46875 74.359375 L 327.46875 74.171875 L 321.199219 74.171875 L 320.925781 76.648438 L 321.261719 76.648438 C 321.800781 74.921875 322.300781 74.691406 324.136719 74.628906 L 325.136719 74.585938 L 320.550781 82.085938 L 320.550781 82.273438 L 327.511719 82.273438 Z M 327.824219 79.378906 "/>
<path style=" stroke:none;fill-rule:nonzero;fill:rgb(0%,0%,0%);fill-opacity:1;" d="M 330.597656 82.859375 L 329.953125 82.859375 L 330.183594 82.023438 C 330.183594 82.003906 330.183594 81.960938 330.183594 81.960938 C 330.183594 81.921875 330.160156 81.898438 330.121094 81.898438 C 330.078125 81.898438 330.035156 81.921875 329.996094 81.984375 C 329.703125 82.421875 329.183594 82.796875 328.933594 82.859375 C 328.746094 82.898438 328.683594 82.960938 328.683594 83.066406 C 328.683594 83.066406 328.683594 83.085938 328.683594 83.109375 L 329.285156 83.109375 L 328.660156 85.484375 C 328.597656 85.734375 328.535156 85.984375 328.535156 86.066406 C 328.535156 86.273438 328.683594 86.359375 328.890625 86.359375 C 329.308594 86.359375 329.558594 86.128906 330.035156 85.398438 L 329.933594 85.335938 C 329.535156 85.835938 329.410156 85.960938 329.285156 85.960938 C 329.222656 85.960938 329.160156 85.941406 329.160156 85.835938 C 329.160156 85.816406 329.183594 85.753906 329.183594 85.734375 L 329.871094 83.109375 L 330.558594 83.109375 Z M 330.597656 82.859375 "/>
<path style="fill:none;stroke-width:1;stroke-linecap:round;stroke-linejoin:round;stroke:rgb(0%,0%,0%);stroke-opacity:1;stroke-miterlimit:10;" d="M 316.549805 310.582031 L 316.063477 357.9375 C 316.02832 361.250977 318.688477 363.963867 321.999023 363.999023 C 322.019531 363.999023 322.042969 363.999023 322.063477 363.999023 L 333.19043 363.999023 " transform="matrix(1.333333,0,0,1.333333,-196,-308)"/>
<path style="fill:none;stroke-width:1;stroke-linecap:round;stroke-linejoin:round;stroke:rgb(0%,0%,0%);stroke-opacity:1;stroke-miterlimit:10;" d="M 320.317383 351.999023 L 386.000977 351.999023 C 389.311523 351.999023 392.000977 349.3125 392.000977 345.999023 L 392.000977 341.897461 " transform="matrix(1.333333,0,0,1.333333,-196,-308)"/>
<path style="fill:none;stroke-width:1;stroke-linecap:butt;stroke-linejoin:miter;stroke:rgb(0%,0%,0%);stroke-opacity:1;stroke-miterlimit:10;" d="M 392.000977 337.898438 L 392.000977 341.897461 M 390.500977 341.897461 L 392.000977 337.898438 L 393.500977 341.897461 " transform="matrix(1.333333,0,0,1.333333,-196,-308)"/>
<path style="fill:none;stroke-width:1;stroke-linecap:round;stroke-linejoin:round;stroke:rgb(0%,0%,0%);stroke-opacity:1;stroke-miterlimit:10;" d="M 300.038086 384.500977 L 300.008789 358.007812 C 300.00293 354.691406 302.686523 352.004883 306 351.999023 C 306.00293 351.999023 306.00293 351.999023 306.008789 351.999023 L 325.933594 351.999023 " transform="matrix(1.333333,0,0,1.333333,-196,-308)"/>
<path style=" stroke:none;fill-rule:nonzero;fill:rgb(40.000001%,74.901962%,100%);fill-opacity:1;" d="M 377.703125 140 L 415.035156 140 L 415.035156 118.667969 L 377.703125 118.667969 Z M 377.703125 140 "/>
<path style="fill:none;stroke-width:1;stroke-linecap:round;stroke-linejoin:round;stroke:rgb(0%,0%,0%);stroke-opacity:1;stroke-miterlimit:10;" d="M 430.277344 320.000977 L 458.276367 320.000977 L 458.276367 336 L 430.277344 336 Z M 430.277344 320.000977 " transform="matrix(1.333333,0,0,1.333333,-196,-308)"/>
<path style=" stroke:none;fill-rule:nonzero;fill:rgb(0%,0%,0%);fill-opacity:1;" d="M 387.796875 132.199219 L 387.941406 133.117188 C 387.636719 133.183594 387.371094 133.21875 387.152344 133.21875 C 386.761719 133.21875 386.464844 133.15625 386.253906 133.03125 C 386.046875 132.90625 385.890625 132.75 385.796875 132.554688 C 385.714844 132.359375 385.671875 131.949219 385.671875 131.324219 L 385.671875 127.742188 L 384.902344 127.742188 L 384.902344 126.90625 L 385.671875 126.90625 L 385.671875 125.367188 L 386.734375 124.742188 L 386.734375 126.90625 L 387.796875 126.90625 L 387.796875 127.742188 L 386.734375 127.742188 L 386.734375 131.367188 C 386.734375 131.671875 386.746094 131.867188 386.777344 131.949219 C 386.816406 132.03125 386.878906 132.105469 386.964844 132.15625 C 387.046875 132.214844 387.160156 132.242188 387.316406 132.242188 C 387.441406 132.242188 387.597656 132.230469 387.796875 132.199219 Z M 387.796875 132.199219 "/>
<path style=" stroke:none;fill-rule:nonzero;fill:rgb(0%,0%,0%);fill-opacity:1;" d="M 392.878906 132.367188 C 392.488281 132.699219 392.113281 132.9375 391.753906 133.074219 C 391.390625 133.210938 391.003906 133.28125 390.589844 133.28125 C 389.90625 133.28125 389.378906 133.117188 389.003906 132.78125 C 388.640625 132.449219 388.464844 132.023438 388.464844 131.492188 C 388.464844 131.1875 388.53125 130.90625 388.671875 130.65625 C 388.808594 130.40625 388.988281 130.210938 389.214844 130.054688 C 389.433594 129.902344 389.683594 129.78125 389.964844 129.699219 C 390.171875 129.65625 390.484375 129.609375 390.902344 129.554688 C 391.761719 129.460938 392.390625 129.335938 392.796875 129.179688 C 392.796875 129.042969 392.796875 128.949219 392.796875 128.90625 C 392.796875 128.480469 392.699219 128.179688 392.503906 128.011719 C 392.222656 127.761719 391.824219 127.636719 391.296875 127.636719 C 390.796875 127.636719 390.425781 127.730469 390.191406 127.90625 C 389.953125 128.074219 389.78125 128.382812 389.671875 128.824219 L 388.652344 128.699219 C 388.734375 128.257812 388.878906 127.902344 389.089844 127.636719 C 389.308594 127.359375 389.621094 127.152344 390.027344 127.011719 C 390.441406 126.859375 390.910156 126.78125 391.441406 126.78125 C 391.984375 126.78125 392.410156 126.84375 392.734375 126.96875 C 393.066406 127.09375 393.308594 127.257812 393.464844 127.449219 C 393.628906 127.632812 393.738281 127.867188 393.796875 128.15625 C 393.839844 128.339844 393.859375 128.65625 393.859375 129.117188 L 393.859375 130.53125 C 393.859375 131.507812 393.878906 132.125 393.921875 132.386719 C 393.964844 132.652344 394.050781 132.902344 394.191406 133.136719 L 393.089844 133.136719 C 392.972656 132.917969 392.90625 132.65625 392.878906 132.367188 Z M 392.796875 130.011719 C 392.40625 130.167969 391.828125 130.296875 391.066406 130.40625 C 390.636719 130.480469 390.328125 130.554688 390.152344 130.636719 C 389.96875 130.710938 389.828125 130.820312 389.734375 130.96875 C 389.636719 131.125 389.589844 131.292969 389.589844 131.46875 C 389.589844 131.75 389.691406 131.984375 389.902344 132.179688 C 390.109375 132.359375 390.421875 132.449219 390.839844 132.449219 C 391.238281 132.449219 391.597656 132.359375 391.921875 132.179688 C 392.238281 132 392.472656 131.757812 392.628906 131.449219 C 392.738281 131.214844 392.796875 130.867188 392.796875 130.40625 Z M 392.796875 130.011719 "/>
<path style=" stroke:none;fill-rule:nonzero;fill:rgb(0%,0%,0%);fill-opacity:1;" d="M 395.488281 133.136719 L 395.488281 126.90625 L 396.445312 126.90625 L 396.445312 127.804688 C 396.890625 127.125 397.550781 126.78125 398.425781 126.78125 C 398.800781 126.78125 399.140625 126.855469 399.445312 126.992188 C 399.765625 127.117188 400 127.292969 400.15625 127.511719 C 400.304688 127.71875 400.414062 127.980469 400.488281 128.28125 C 400.53125 128.480469 400.550781 128.820312 400.550781 129.304688 L 400.550781 133.136719 L 399.488281 133.136719 L 399.488281 129.34375 C 399.488281 128.917969 399.445312 128.59375 399.363281 128.386719 C 399.28125 128.179688 399.132812 128.011719 398.925781 127.886719 C 398.71875 127.75 398.472656 127.679688 398.195312 127.679688 C 397.75 127.679688 397.363281 127.824219 397.03125 128.117188 C 396.707031 128.398438 396.550781 128.9375 396.550781 129.742188 L 396.550781 133.136719 Z M 395.488281 133.136719 "/>
<path style=" stroke:none;fill-rule:nonzero;fill:rgb(0%,0%,0%);fill-opacity:1;" d="M 402.15625 133.136719 L 402.15625 124.554688 L 403.21875 124.554688 L 403.21875 127.636719 C 403.703125 127.070312 404.324219 126.78125 405.074219 126.78125 C 405.53125 126.78125 405.929688 126.875 406.261719 127.054688 C 406.605469 127.234375 406.851562 127.484375 406.992188 127.804688 C 407.140625 128.125 407.21875 128.589844 407.21875 129.199219 L 407.21875 133.136719 L 406.179688 133.136719 L 406.179688 129.199219 C 406.179688 128.671875 406.058594 128.292969 405.824219 128.054688 C 405.601562 127.804688 405.28125 127.679688 404.867188 127.679688 C 404.542969 127.679688 404.246094 127.761719 403.96875 127.929688 C 403.6875 128.085938 403.496094 128.296875 403.386719 128.574219 C 403.273438 128.855469 403.21875 129.242188 403.21875 129.742188 L 403.21875 133.136719 Z M 402.15625 133.136719 "/>
<path style="fill:none;stroke-width:1;stroke-linecap:round;stroke-linejoin:round;stroke:rgb(0%,0%,0%);stroke-opacity:1;stroke-miterlimit:10;" d="M 300.026367 376.171875 L 300.014648 370.016602 C 300.008789 366.700195 302.686523 364.007812 306 363.999023 C 306.00293 363.999023 306.008789 363.999023 306.014648 363.999023 L 438.046875 363.999023 C 441.342773 363.999023 444.020508 361.344727 444.046875 358.045898 L 444.172852 341.897461 " transform="matrix(1.333333,0,0,1.333333,-196,-308)"/>
<path style="fill:none;stroke-width:1;stroke-linecap:butt;stroke-linejoin:miter;stroke:rgb(0%,0%,0%);stroke-opacity:1;stroke-miterlimit:10;" d="M 444.202148 337.898438 L 444.172852 341.897461 M 442.672852 341.885742 L 444.202148 337.898438 L 445.672852 341.90918 " transform="matrix(1.333333,0,0,1.333333,-196,-308)"/>
<path style="fill:none;stroke-width:1;stroke-linecap:round;stroke-linejoin:round;stroke:rgb(0%,0%,0%);stroke-opacity:1;stroke-miterlimit:10;" d="M 277.230469 252.316406 L 310.02832 252.046875 C 313.333008 252.023438 316.03418 254.668945 316.078125 257.973633 L 316.473633 288.682617 " transform="matrix(1.333333,0,0,1.333333,-196,-308)"/>
<path style="fill:none;stroke-width:1;stroke-linecap:butt;stroke-linejoin:miter;stroke:rgb(0%,0%,0%);stroke-opacity:1;stroke-miterlimit:10;" d="M 316.526367 292.68457 L 316.473633 288.682617 M 317.973633 288.665039 L 316.526367 292.68457 L 314.973633 288.703125 " transform="matrix(1.333333,0,0,1.333333,-196,-308)"/>
<path style=" stroke:none;fill-rule:nonzero;fill:rgb(0%,0%,0%);fill-opacity:1;" d="M 187.378906 218.207031 L 187.378906 219.980469 L 186.191406 219.980469 C 186.480469 219.207031 186.773438 218.332031 187.023438 217.355469 L 189.335938 217.355469 L 189.335938 216.542969 L 187.230469 216.542969 C 187.335938 216.0625 187.441406 215.542969 187.566406 215 L 186.773438 214.832031 C 186.648438 215.417969 186.542969 216 186.417969 216.542969 L 185.230469 216.542969 L 185.230469 217.355469 L 186.230469 217.355469 C 185.960938 218.417969 185.667969 219.332031 185.316406 220.042969 L 185.503906 220.769531 L 187.378906 220.769531 L 187.378906 222.5625 C 186.667969 222.6875 185.941406 222.8125 185.148438 222.894531 L 185.253906 223.75 C 185.980469 223.625 186.691406 223.519531 187.378906 223.375 L 187.378906 225.875 L 188.167969 225.875 L 188.167969 223.207031 L 189.316406 222.917969 L 189.316406 222.105469 C 188.960938 222.1875 188.585938 222.292969 188.167969 222.394531 L 188.167969 220.769531 L 189.273438 220.769531 L 189.273438 219.980469 L 188.167969 219.980469 L 188.167969 218.207031 Z M 190.917969 217.582031 L 190.917969 218.292969 L 194.355469 218.292969 L 194.355469 217.582031 L 190.917969 217.582031 C 191.523438 217 192.105469 216.355469 192.667969 215.667969 C 193.585938 216.832031 194.605469 217.832031 195.730469 218.644531 L 196.191406 217.980469 C 195.105469 217.207031 194.042969 216.1875 192.980469 214.894531 L 192.378906 214.894531 C 191.398438 216.082031 190.292969 217.144531 189.066406 218.042969 L 189.542969 218.769531 C 190.003906 218.394531 190.460938 218 190.917969 217.582031 Z M 191.753906 225.792969 C 192.335938 225.792969 192.648438 225.480469 192.648438 224.855469 L 192.648438 219.25 L 189.816406 219.25 L 189.816406 225.875 L 190.566406 225.875 L 190.566406 223.625 L 191.917969 223.625 L 191.917969 224.707031 C 191.917969 224.957031 191.773438 225.105469 191.523438 225.105469 L 190.980469 225.082031 L 191.167969 225.792969 Z M 190.566406 222.957031 L 190.566406 221.8125 L 191.917969 221.8125 L 191.917969 222.957031 Z M 190.566406 221.144531 L 190.566406 219.957031 L 191.917969 219.957031 L 191.917969 221.144531 Z M 193.355469 219.582031 L 193.355469 223.894531 L 194.042969 223.894531 L 194.042969 219.582031 Z M 194.667969 225.8125 C 195.253906 225.8125 195.542969 225.457031 195.542969 224.769531 L 195.542969 219.042969 L 194.792969 219.042969 L 194.792969 224.582031 C 194.792969 224.917969 194.667969 225.105469 194.398438 225.105469 C 194.105469 225.105469 193.792969 225.082031 193.480469 225.042969 L 193.648438 225.8125 Z M 194.667969 225.8125 "/>
<path style=" stroke:none;fill-rule:nonzero;fill:rgb(0%,0%,0%);fill-opacity:1;" d="M 202.105469 217.644531 C 201.335938 220.832031 199.667969 223.292969 197.085938 224.957031 L 197.605469 225.707031 C 200.128906 224.0625 201.792969 221.707031 202.585938 218.644531 C 202.648438 218.792969 202.691406 218.957031 202.773438 219.167969 C 204.003906 222.332031 205.585938 224.519531 207.542969 225.6875 L 208.085938 225 C 206.167969 223.8125 204.667969 221.769531 203.542969 218.917969 C 202.816406 216.957031 201.898438 215.605469 200.835938 214.855469 L 200.128906 215.3125 C 200.878906 215.875 201.542969 216.644531 202.105469 217.644531 Z M 202.105469 217.644531 "/>
<path style=" stroke:none;fill-rule:nonzero;fill:rgb(0%,0%,0%);fill-opacity:1;" d="M 221.019531 224.667969 L 221.019531 224.375 C 220.601562 224.355469 220.414062 224.207031 219.851562 223.332031 L 217.664062 219.9375 L 218.625 218.605469 C 219.664062 217.144531 219.976562 216.9375 220.875 216.855469 L 220.875 216.5625 L 217.875 216.5625 L 217.875 216.855469 L 218.125 216.875 C 218.582031 216.917969 218.75 217.019531 218.75 217.292969 C 218.75 217.5625 218.601562 217.792969 218.039062 218.5625 L 217.375 219.5 L 216.207031 217.6875 C 216.0625 217.457031 216.039062 217.394531 216.039062 217.25 C 216.039062 217 216.164062 216.894531 216.601562 216.875 L 216.976562 216.855469 L 216.976562 216.5625 L 212.832031 216.5625 L 212.832031 216.855469 C 213.269531 216.894531 213.414062 217.019531 213.789062 217.542969 L 216.164062 221.042969 L 214.0625 223.6875 C 213.707031 224.144531 213.414062 224.292969 212.8125 224.375 L 212.8125 224.667969 L 215.8125 224.667969 L 215.8125 224.375 C 215.082031 224.292969 214.851562 224.167969 214.851562 223.855469 C 214.851562 223.605469 215.082031 223.230469 215.976562 222.019531 L 216.4375 221.417969 L 217.644531 223.355469 C 217.789062 223.582031 217.894531 223.855469 217.894531 224 C 217.894531 224.207031 217.6875 224.3125 217.269531 224.332031 L 216.9375 224.375 L 216.9375 224.667969 Z M 221.019531 224.667969 "/>
<path style=" stroke:none;fill-rule:nonzero;fill:rgb(0%,0%,0%);fill-opacity:1;" d="M 223.664062 225.25 L 223.015625 225.25 L 223.246094 224.417969 C 223.246094 224.394531 223.246094 224.355469 223.246094 224.355469 C 223.246094 224.3125 223.226562 224.292969 223.183594 224.292969 C 223.140625 224.292969 223.101562 224.3125 223.058594 224.375 C 222.765625 224.8125 222.246094 225.1875 221.996094 225.25 C 221.808594 225.292969 221.746094 225.355469 221.746094 225.457031 C 221.746094 225.457031 221.746094 225.480469 221.746094 225.5 L 222.351562 225.5 L 221.726562 227.875 C 221.664062 228.125 221.601562 228.375 221.601562 228.457031 C 221.601562 228.667969 221.746094 228.75 221.953125 228.75 C 222.371094 228.75 222.621094 228.519531 223.101562 227.792969 L 222.996094 227.730469 C 222.601562 228.230469 222.476562 228.355469 222.351562 228.355469 C 222.289062 228.355469 222.226562 228.332031 222.226562 228.230469 C 222.226562 228.207031 222.246094 228.144531 222.246094 228.125 L 222.933594 225.5 L 223.621094 225.5 Z M 223.664062 225.25 "/>
<path style=" stroke:none;fill-rule:nonzero;fill:rgb(0%,0%,0%);fill-opacity:1;" d="M 109.957031 21.269531 L 109.957031 17.1875 L 108.0625 17.1875 C 108.4375 16.769531 108.792969 16.25 109.167969 15.667969 L 109.167969 15.019531 L 106.375 15.019531 C 106.5 14.792969 106.625 14.519531 106.707031 14.25 L 105.855469 14.144531 C 105.4375 15.25 104.644531 16.167969 103.480469 16.9375 L 103.980469 17.605469 C 104.125 17.5 104.269531 17.394531 104.4375 17.269531 L 104.4375 17.957031 L 109.125 17.957031 L 109.125 18.875 L 104.269531 18.875 L 104.269531 19.625 L 109.125 19.625 L 109.125 20.519531 L 104 20.519531 L 104 21.269531 Z M 105.917969 15.769531 L 108.207031 15.769531 C 107.855469 16.3125 107.5 16.792969 107.144531 17.1875 L 104.542969 17.1875 C 105.0625 16.769531 105.519531 16.3125 105.917969 15.769531 Z M 100.332031 14.6875 L 100.332031 25.207031 L 101.1875 25.207031 L 101.1875 15.5 L 102.917969 15.5 C 102.625 16.519531 102.230469 17.644531 101.730469 18.894531 C 102.375 19.917969 102.6875 20.855469 102.6875 21.667969 C 102.6875 21.917969 102.625 22.105469 102.542969 22.207031 C 102.4375 22.3125 102.230469 22.375 101.9375 22.394531 C 101.8125 22.394531 101.644531 22.375 101.480469 22.355469 L 101.75 23.230469 C 102.4375 23.230469 102.9375 23.082031 103.230469 22.792969 C 103.417969 22.5625 103.519531 22.1875 103.519531 21.667969 C 103.480469 20.8125 103.167969 19.832031 102.582031 18.769531 C 103.042969 17.582031 103.4375 16.457031 103.769531 15.375 L 103.769531 14.6875 Z M 109.792969 21.769531 L 109.042969 22.019531 C 109.457031 22.75 109.855469 23.582031 110.207031 24.519531 L 110.917969 24.1875 C 110.582031 23.332031 110.207031 22.542969 109.792969 21.769531 Z M 104.105469 22 C 103.917969 22.855469 103.625 23.644531 103.230469 24.355469 L 103.9375 24.8125 C 104.332031 24.0625 104.644531 23.1875 104.875 22.167969 Z M 108.082031 25.105469 C 108.4375 25.105469 108.707031 25.019531 108.875 24.875 C 109.082031 24.6875 109.230469 24.1875 109.292969 23.375 L 108.542969 23.125 C 108.5 23.707031 108.4375 24.0625 108.355469 24.1875 C 108.269531 24.269531 108.125 24.332031 107.9375 24.332031 L 106.644531 24.332031 C 106.355469 24.332031 106.207031 24.144531 106.207031 23.8125 L 106.207031 21.855469 L 105.394531 21.855469 L 105.394531 24 C 105.394531 24.730469 105.730469 25.105469 106.394531 25.105469 Z M 107.292969 21.582031 L 106.6875 21.980469 C 107.125 22.5 107.480469 22.957031 107.730469 23.394531 L 108.375 22.9375 C 108.125 22.5625 107.75 22.105469 107.292969 21.582031 Z M 107.292969 21.582031 "/>
<path style=" stroke:none;fill-rule:nonzero;fill:rgb(0%,0%,0%);fill-opacity:1;" d="M 114.5625 19.957031 C 113.75 20.832031 112.832031 21.605469 111.832031 22.25 L 112.105469 23.167969 C 113.019531 22.480469 113.832031 21.75 114.5625 20.980469 L 114.5625 25.167969 L 115.417969 25.167969 L 115.417969 14.269531 L 114.5625 14.269531 Z M 112.8125 15.457031 L 112 15.730469 C 112.457031 16.625 112.875 17.6875 113.25 18.894531 L 114 18.542969 C 113.667969 17.457031 113.269531 16.417969 112.8125 15.457031 Z M 120.917969 14.4375 L 120.230469 14.855469 C 120.855469 15.5625 121.375 16.207031 121.730469 16.8125 L 122.394531 16.332031 C 122.042969 15.792969 121.5625 15.144531 120.917969 14.4375 Z M 119.582031 14.230469 L 118.730469 14.230469 C 118.730469 14.957031 118.707031 16.042969 118.667969 17.417969 L 116.207031 17.417969 L 116.207031 18.25 L 118.625 18.25 C 118.375 20.625 117.457031 22.730469 115.855469 24.519531 L 116.417969 25.167969 C 117.792969 23.707031 118.730469 21.894531 119.25 19.707031 C 119.769531 21.894531 120.792969 23.707031 122.292969 25.144531 L 122.894531 24.5 C 121.230469 23.019531 120.144531 20.9375 119.644531 18.25 L 122.480469 18.25 L 122.480469 17.417969 L 119.542969 17.417969 C 119.5625 16.167969 119.582031 15.125 119.582031 14.230469 Z M 119.582031 14.230469 "/>
<path style=" stroke:none;fill-rule:nonzero;fill:rgb(0%,0%,0%);fill-opacity:1;" d="M 128.894531 14.082031 C 128.855469 14.5625 128.75 15.019531 128.625 15.457031 L 124.394531 15.457031 L 124.394531 16.292969 L 128.332031 16.292969 C 128.105469 16.75 127.855469 17.167969 127.5 17.542969 C 126.75 18.332031 125.519531 18.957031 123.8125 19.375 L 124.144531 20.167969 C 125.582031 19.792969 126.707031 19.3125 127.5 18.730469 C 128.082031 19.167969 128.667969 19.6875 129.230469 20.269531 L 129.832031 19.667969 C 129.1875 19.082031 128.605469 18.605469 128.082031 18.230469 C 128.125 18.1875 128.167969 18.144531 128.207031 18.105469 C 128.644531 17.582031 129 16.980469 129.269531 16.292969 L 129.457031 16.292969 C 130.0625 17.917969 131.667969 19.207031 134.332031 20.144531 L 134.792969 19.394531 C 132.394531 18.644531 130.917969 17.625 130.332031 16.292969 L 134.167969 16.292969 L 134.167969 15.457031 L 129.542969 15.457031 C 129.625 15.042969 129.707031 14.625 129.769531 14.167969 Z M 125.042969 21.1875 C 124.8125 22.25 124.457031 23.25 123.9375 24.125 L 124.6875 24.605469 C 125.207031 23.6875 125.605469 22.605469 125.894531 21.355469 Z M 129.605469 20.75 L 128.832031 20.980469 C 129.230469 21.605469 129.582031 22.3125 129.917969 23.105469 L 130.707031 22.769531 C 130.394531 22.042969 130.019531 21.375 129.605469 20.75 Z M 133.1875 21 L 132.355469 21.269531 C 132.917969 22.125 133.4375 23.105469 133.894531 24.230469 L 134.6875 23.875 C 134.269531 22.855469 133.769531 21.894531 133.1875 21 Z M 130.980469 24.957031 C 131.4375 24.957031 131.769531 24.832031 131.980469 24.644531 C 132.230469 24.394531 132.394531 23.75 132.480469 22.667969 L 131.667969 22.394531 C 131.605469 23.230469 131.519531 23.730469 131.375 23.894531 C 131.269531 24.042969 131.082031 24.105469 130.832031 24.105469 L 128.207031 24.105469 C 127.855469 24.105469 127.6875 23.9375 127.6875 23.5625 L 127.6875 21.144531 L 126.792969 21.144531 L 126.792969 23.75 C 126.792969 24.542969 127.167969 24.957031 127.9375 24.957031 Z M 130.980469 24.957031 "/>
<path style=" stroke:none;fill-rule:nonzero;fill:rgb(0%,0%,0%);fill-opacity:1;" d="M 115.917969 40 L 115.917969 39.707031 C 115.0625 39.582031 114.855469 39.457031 114.855469 38.832031 L 114.855469 33.082031 C 114.855469 32.4375 115.105469 32.25 115.917969 32.1875 L 115.917969 31.894531 L 111.855469 31.894531 L 111.855469 32.1875 C 112.6875 32.25 112.917969 32.394531 112.917969 33.082031 L 112.917969 35.519531 L 110.023438 35.519531 L 110.023438 33.082031 C 110.023438 32.394531 110.25 32.25 111.105469 32.1875 L 111.105469 31.894531 L 107.0625 31.894531 L 107.0625 32.1875 C 107.875 32.25 108.085938 32.417969 108.085938 33.082031 L 108.085938 38.832031 C 108.085938 39.457031 107.898438 39.582031 107.0625 39.707031 L 107.0625 40 L 111.105469 40 L 111.105469 39.707031 C 110.230469 39.605469 110.023438 39.457031 110.023438 38.832031 L 110.023438 36.082031 L 112.917969 36.082031 L 112.917969 38.832031 C 112.917969 39.4375 112.730469 39.605469 111.855469 39.707031 L 111.855469 40 Z M 115.917969 40 "/>
<path style=" stroke:none;fill-rule:nonzero;fill:rgb(0%,0%,0%);fill-opacity:1;" d="M 118.523438 40.582031 L 117.878906 40.582031 L 118.109375 39.75 C 118.109375 39.730469 118.109375 39.6875 118.109375 39.6875 C 118.109375 39.644531 118.085938 39.625 118.046875 39.625 C 118.003906 39.625 117.960938 39.644531 117.921875 39.707031 C 117.628906 40.144531 117.109375 40.519531 116.859375 40.582031 C 116.671875 40.625 116.609375 40.6875 116.609375 40.792969 C 116.609375 40.792969 116.609375 40.8125 116.609375 40.832031 L 117.210938 40.832031 L 116.585938 43.207031 C 116.523438 43.457031 116.460938 43.707031 116.460938 43.792969 C 116.460938 44 116.609375 44.082031 116.816406 44.082031 C 117.234375 44.082031 117.484375 43.855469 117.960938 43.125 L 117.859375 43.0625 C 117.460938 43.5625 117.335938 43.6875 117.210938 43.6875 C 117.148438 43.6875 117.085938 43.667969 117.085938 43.5625 C 117.085938 43.542969 117.109375 43.480469 117.109375 43.457031 L 117.796875 40.832031 L 118.484375 40.832031 Z M 118.523438 40.582031 "/>
<path style=" stroke:none;fill-rule:nonzero;fill:rgb(0%,0%,0%);fill-opacity:1;" d="M 123.332031 42.25 L 123.332031 41.707031 L 118.894531 41.707031 L 118.894531 42.25 Z M 123.332031 42.25 "/>
<path style=" stroke:none;fill-rule:nonzero;fill:rgb(0%,0%,0%);fill-opacity:1;" d="M 127 44 L 127 43.875 C 126.394531 43.875 126.25 43.730469 126.25 43.394531 L 126.25 38.625 L 126.164062 38.582031 L 124.75 39.3125 L 124.75 39.4375 L 124.957031 39.355469 C 125.101562 39.292969 125.226562 39.25 125.3125 39.25 C 125.476562 39.25 125.5625 39.375 125.5625 39.644531 L 125.5625 43.25 C 125.5625 43.6875 125.394531 43.855469 124.789062 43.875 L 124.789062 44 Z M 127 44 "/>
<path style=" stroke:none;fill-rule:nonzero;fill:rgb(0%,0%,0%);fill-opacity:1;" d="M 368.894531 56.855469 C 368.375 58.707031 367.542969 60.355469 366.417969 61.792969 L 366.6875 62.707031 C 367.125 62.207031 367.5 61.707031 367.855469 61.144531 L 367.855469 67.894531 L 368.667969 67.894531 L 368.667969 59.75 C 369.0625 58.957031 369.394531 58.105469 369.667969 57.207031 Z M 369.6875 59.042969 L 369.6875 66.125 L 370.480469 66.125 L 370.480469 59.042969 Z M 371.019531 59.5625 L 371.019531 60.332031 L 377.144531 60.332031 L 377.144531 59.5625 L 375.917969 59.5625 L 375.917969 57.375 L 371.582031 57.375 L 371.582031 58.144531 L 375.0625 58.144531 L 375.0625 59.5625 Z M 372.355469 62.3125 L 373.6875 62.3125 L 373.6875 62.4375 C 373.6875 62.894531 373.625 63.332031 373.542969 63.769531 L 370.980469 63.769531 L 370.980469 64.519531 L 373.3125 64.519531 C 372.832031 65.75 371.855469 66.644531 370.375 67.207031 L 370.917969 67.917969 C 372.417969 67.269531 373.457031 66.269531 374.019531 64.917969 C 374.625 66 375.605469 66.980469 376.9375 67.875 L 377.5 67.167969 C 376.125 66.375 375.167969 65.5 374.605469 64.519531 L 377.355469 64.519531 L 377.355469 63.769531 L 374.375 63.769531 C 374.457031 63.3125 374.5 62.832031 374.519531 62.3125 L 376.855469 62.3125 L 376.855469 61.542969 L 372.75 61.542969 C 372.855469 61.292969 372.980469 61.019531 373.082031 60.769531 L 372.355469 60.605469 C 371.980469 61.519531 371.542969 62.292969 370.957031 62.855469 L 371.480469 63.480469 C 371.792969 63.144531 372.105469 62.75 372.355469 62.3125 Z M 372.355469 62.3125 "/>
<path style=" stroke:none;fill-rule:nonzero;fill:rgb(0%,0%,0%);fill-opacity:1;" d="M 379.519531 57.0625 L 378.917969 57.625 C 379.769531 58.292969 380.457031 58.917969 380.9375 59.519531 L 381.542969 58.917969 C 380.980469 58.3125 380.3125 57.6875 379.519531 57.0625 Z M 386.480469 67.644531 L 389.269531 67.644531 L 389.480469 66.792969 C 389.167969 66.8125 388.707031 66.8125 388.125 66.832031 C 387.519531 66.855469 386.9375 66.855469 386.355469 66.855469 C 385.4375 66.855469 384.644531 66.855469 384.019531 66.832031 C 383.292969 66.8125 382.75 66.707031 382.375 66.542969 C 382.042969 66.394531 381.730469 66.144531 381.4375 65.792969 C 381.355469 65.6875 381.25 65.582031 381.144531 65.519531 L 381.144531 61.019531 L 378.644531 61.019531 L 378.644531 61.8125 L 380.355469 61.8125 L 380.355469 65.457031 C 379.855469 65.6875 379.292969 66.3125 378.644531 67.332031 L 379.292969 67.917969 C 379.957031 66.792969 380.4375 66.230469 380.730469 66.230469 C 380.875 66.230469 381.042969 66.332031 381.207031 66.542969 C 381.582031 66.957031 382 67.269531 382.457031 67.417969 C 382.9375 67.542969 383.582031 67.625 384.355469 67.625 C 385.125 67.644531 385.832031 67.644531 386.480469 67.644531 Z M 385.457031 56.832031 L 385.457031 58.355469 L 383.875 58.355469 C 384.019531 57.980469 384.144531 57.582031 384.269531 57.167969 L 383.4375 57 C 383.144531 58.082031 382.6875 59.0625 382.042969 59.980469 L 382.792969 60.4375 C 383.042969 60.0625 383.292969 59.644531 383.5 59.1875 L 385.457031 59.1875 L 385.457031 60.917969 L 382.332031 60.917969 L 382.332031 61.75 L 384.269531 61.75 C 384.230469 62.5 384.105469 63.144531 383.894531 63.667969 C 383.582031 64.394531 382.957031 64.980469 381.980469 65.457031 L 382.542969 66.144531 C 383.667969 65.5625 384.417969 64.8125 384.730469 63.894531 C 384.917969 63.292969 385.042969 62.582031 385.082031 61.75 L 386.292969 61.75 L 386.292969 65.144531 C 386.292969 65.417969 386.355469 65.625 386.542969 65.8125 C 386.6875 65.980469 386.917969 66.0625 387.230469 66.0625 L 388.082031 66.0625 C 388.5 66.042969 388.792969 65.9375 388.957031 65.769531 C 389.144531 65.582031 389.269531 65 389.332031 64 L 388.582031 63.75 C 388.542969 64.605469 388.4375 65.082031 388.292969 65.1875 C 388.207031 65.269531 388.082031 65.292969 387.917969 65.292969 L 387.480469 65.292969 C 387.207031 65.292969 387.105469 65.1875 387.105469 64.957031 L 387.105469 61.75 L 389.105469 61.75 L 389.105469 60.917969 L 386.292969 60.917969 L 386.292969 59.1875 L 388.6875 59.1875 L 388.6875 58.355469 L 386.292969 58.355469 L 386.292969 56.832031 Z M 385.457031 56.832031 "/>
<path style=" stroke:none;fill-rule:nonzero;fill:rgb(0%,0%,0%);fill-opacity:1;" d="M 400.625 63.9375 L 400.625 59.855469 L 398.730469 59.855469 C 399.105469 59.4375 399.457031 58.917969 399.832031 58.332031 L 399.832031 57.6875 L 397.042969 57.6875 C 397.167969 57.457031 397.292969 57.1875 397.375 56.917969 L 396.519531 56.8125 C 396.105469 57.917969 395.3125 58.832031 394.144531 59.605469 L 394.644531 60.269531 C 394.792969 60.167969 394.9375 60.0625 395.105469 59.9375 L 395.105469 60.625 L 399.792969 60.625 L 399.792969 61.542969 L 394.9375 61.542969 L 394.9375 62.292969 L 399.792969 62.292969 L 399.792969 63.1875 L 394.667969 63.1875 L 394.667969 63.9375 Z M 396.582031 58.4375 L 398.875 58.4375 C 398.519531 58.980469 398.167969 59.457031 397.8125 59.855469 L 395.207031 59.855469 C 395.730469 59.4375 396.1875 58.980469 396.582031 58.4375 Z M 391 57.355469 L 391 67.875 L 391.855469 67.875 L 391.855469 58.167969 L 393.582031 58.167969 C 393.292969 59.1875 392.894531 60.3125 392.394531 61.5625 C 393.042969 62.582031 393.355469 63.519531 393.355469 64.332031 C 393.355469 64.582031 393.292969 64.769531 393.207031 64.875 C 393.105469 64.980469 392.894531 65.042969 392.605469 65.0625 C 392.480469 65.0625 392.3125 65.042969 392.144531 65.019531 L 392.417969 65.894531 C 393.105469 65.894531 393.605469 65.75 393.894531 65.457031 C 394.082031 65.230469 394.1875 64.855469 394.1875 64.332031 C 394.144531 63.480469 393.832031 62.5 393.25 61.4375 C 393.707031 60.25 394.105469 59.125 394.4375 58.042969 L 394.4375 57.355469 Z M 400.457031 64.4375 L 399.707031 64.6875 C 400.125 65.417969 400.519531 66.25 400.875 67.1875 L 401.582031 66.855469 C 401.25 66 400.875 65.207031 400.457031 64.4375 Z M 394.769531 64.667969 C 394.582031 65.519531 394.292969 66.3125 393.894531 67.019531 L 394.605469 67.480469 C 395 66.730469 395.3125 65.855469 395.542969 64.832031 Z M 398.75 67.769531 C 399.105469 67.769531 399.375 67.6875 399.542969 67.542969 C 399.75 67.355469 399.894531 66.855469 399.957031 66.042969 L 399.207031 65.792969 C 399.167969 66.375 399.105469 66.730469 399.019531 66.855469 C 398.9375 66.9375 398.792969 67 398.605469 67 L 397.3125 67 C 397.019531 67 396.875 66.8125 396.875 66.480469 L 396.875 64.519531 L 396.0625 64.519531 L 396.0625 66.667969 C 396.0625 67.394531 396.394531 67.769531 397.0625 67.769531 Z M 397.957031 64.25 L 397.355469 64.644531 C 397.792969 65.167969 398.144531 65.625 398.394531 66.0625 L 399.042969 65.605469 C 398.792969 65.230469 398.417969 64.769531 397.957031 64.25 Z M 397.957031 64.25 "/>
<path style=" stroke:none;fill-rule:nonzero;fill:rgb(0%,0%,0%);fill-opacity:1;" d="M 405.230469 62.625 C 404.417969 63.5 403.5 64.269531 402.5 64.917969 L 402.769531 65.832031 C 403.6875 65.144531 404.5 64.417969 405.230469 63.644531 L 405.230469 67.832031 L 406.082031 67.832031 L 406.082031 56.9375 L 405.230469 56.9375 Z M 403.480469 58.125 L 402.667969 58.394531 C 403.125 59.292969 403.542969 60.355469 403.917969 61.5625 L 404.667969 61.207031 C 404.332031 60.125 403.9375 59.082031 403.480469 58.125 Z M 411.582031 57.105469 L 410.894531 57.519531 C 411.519531 58.230469 412.042969 58.875 412.394531 59.480469 L 413.0625 59 C 412.707031 58.457031 412.230469 57.8125 411.582031 57.105469 Z M 410.25 56.894531 L 409.394531 56.894531 C 409.394531 57.625 409.375 58.707031 409.332031 60.082031 L 406.875 60.082031 L 406.875 60.917969 L 409.292969 60.917969 C 409.042969 63.292969 408.125 65.394531 406.519531 67.1875 L 407.082031 67.832031 C 408.457031 66.375 409.394531 64.5625 409.917969 62.375 C 410.4375 64.5625 411.457031 66.375 412.957031 67.8125 L 413.5625 67.167969 C 411.894531 65.6875 410.8125 63.605469 410.3125 60.917969 L 413.144531 60.917969 L 413.144531 60.082031 L 410.207031 60.082031 C 410.230469 58.832031 410.25 57.792969 410.25 56.894531 Z M 410.25 56.894531 "/>
<path style=" stroke:none;fill-rule:nonzero;fill:rgb(0%,0%,0%);fill-opacity:1;" d="M 419.5625 56.75 C 419.519531 57.230469 419.417969 57.6875 419.292969 58.125 L 415.0625 58.125 L 415.0625 58.957031 L 419 58.957031 C 418.769531 59.417969 418.519531 59.832031 418.167969 60.207031 C 417.417969 61 416.1875 61.625 414.480469 62.042969 L 414.8125 62.832031 C 416.25 62.457031 417.375 61.980469 418.167969 61.394531 C 418.75 61.832031 419.332031 62.355469 419.894531 62.9375 L 420.5 62.332031 C 419.855469 61.75 419.269531 61.269531 418.75 60.894531 C 418.792969 60.855469 418.832031 60.8125 418.875 60.769531 C 419.3125 60.25 419.667969 59.644531 419.9375 58.957031 L 420.125 58.957031 C 420.730469 60.582031 422.332031 61.875 425 62.8125 L 425.457031 62.0625 C 423.0625 61.3125 421.582031 60.292969 421 58.957031 L 424.832031 58.957031 L 424.832031 58.125 L 420.207031 58.125 C 420.292969 57.707031 420.375 57.292969 420.4375 56.832031 Z M 415.707031 63.855469 C 415.480469 64.917969 415.125 65.917969 414.605469 66.792969 L 415.355469 67.269531 C 415.875 66.355469 416.269531 65.269531 416.5625 64.019531 Z M 420.269531 63.417969 L 419.5 63.644531 C 419.894531 64.269531 420.25 64.980469 420.582031 65.769531 L 421.375 65.4375 C 421.0625 64.707031 420.6875 64.042969 420.269531 63.417969 Z M 423.855469 63.667969 L 423.019531 63.9375 C 423.582031 64.792969 424.105469 65.769531 424.5625 66.894531 L 425.355469 66.542969 C 424.9375 65.519531 424.4375 64.5625 423.855469 63.667969 Z M 421.644531 67.625 C 422.105469 67.625 422.4375 67.5 422.644531 67.3125 C 422.894531 67.0625 423.0625 66.417969 423.144531 65.332031 L 422.332031 65.0625 C 422.269531 65.894531 422.1875 66.394531 422.042969 66.5625 C 421.9375 66.707031 421.75 66.769531 421.5 66.769531 L 418.875 66.769531 C 418.519531 66.769531 418.355469 66.605469 418.355469 66.230469 L 418.355469 63.8125 L 417.457031 63.8125 L 417.457031 66.417969 C 417.457031 67.207031 417.832031 67.625 418.605469 67.625 Z M 421.644531 67.625 "/>
<path style=" stroke:none;fill-rule:nonzero;fill:rgb(0%,0%,0%);fill-opacity:1;" d="M 399.324219 82.667969 L 399.324219 82.375 C 398.46875 82.25 398.261719 82.125 398.261719 81.5 L 398.261719 75.75 C 398.261719 75.105469 398.511719 74.917969 399.324219 74.855469 L 399.324219 74.5625 L 395.261719 74.5625 L 395.261719 74.855469 C 396.09375 74.917969 396.324219 75.0625 396.324219 75.75 L 396.324219 78.1875 L 393.429688 78.1875 L 393.429688 75.75 C 393.429688 75.0625 393.65625 74.917969 394.511719 74.855469 L 394.511719 74.5625 L 390.46875 74.5625 L 390.46875 74.855469 C 391.28125 74.917969 391.492188 75.082031 391.492188 75.75 L 391.492188 81.5 C 391.492188 82.125 391.304688 82.25 390.46875 82.375 L 390.46875 82.667969 L 394.511719 82.667969 L 394.511719 82.375 C 393.636719 82.269531 393.429688 82.125 393.429688 81.5 L 393.429688 78.75 L 396.324219 78.75 L 396.324219 81.5 C 396.324219 82.105469 396.136719 82.269531 395.261719 82.375 L 395.261719 82.667969 Z M 399.324219 82.667969 "/>
<path style=" stroke:none;fill-rule:nonzero;fill:rgb(0%,0%,0%);fill-opacity:1;" d="M 401.929688 83.25 L 401.285156 83.25 L 401.515625 82.417969 C 401.515625 82.394531 401.515625 82.355469 401.515625 82.355469 C 401.515625 82.3125 401.492188 82.292969 401.453125 82.292969 C 401.410156 82.292969 401.367188 82.3125 401.328125 82.375 C 401.035156 82.8125 400.515625 83.1875 400.265625 83.25 C 400.078125 83.292969 400.015625 83.355469 400.015625 83.457031 C 400.015625 83.457031 400.015625 83.480469 400.015625 83.5 L 400.617188 83.5 L 399.992188 85.875 C 399.929688 86.125 399.867188 86.375 399.867188 86.457031 C 399.867188 86.667969 400.015625 86.75 400.222656 86.75 C 400.640625 86.75 400.890625 86.519531 401.367188 85.792969 L 401.265625 85.730469 C 400.867188 86.230469 400.742188 86.355469 400.617188 86.355469 C 400.554688 86.355469 400.492188 86.332031 400.492188 86.230469 C 400.492188 86.207031 400.515625 86.144531 400.515625 86.125 L 401.203125 83.5 L 401.890625 83.5 Z M 401.929688 83.25 "/>
<path style="fill:none;stroke-width:1;stroke-linecap:round;stroke-linejoin:round;stroke:rgb(0%,0%,0%);stroke-opacity:1;stroke-miterlimit:10;" d="M 391.769531 320.000977 L 391.432617 304.605469 " transform="matrix(1.333333,0,0,1.333333,-196,-308)"/>
<path style="fill:none;stroke-width:1;stroke-linecap:butt;stroke-linejoin:miter;stroke:rgb(0%,0%,0%);stroke-opacity:1;stroke-miterlimit:10;" d="M 391.347656 300.606445 L 391.432617 304.605469 M 389.932617 304.637695 L 391.347656 300.606445 L 392.932617 304.570312 " transform="matrix(1.333333,0,0,1.333333,-196,-308)"/>
<path style="fill:none;stroke-width:1;stroke-linecap:round;stroke-linejoin:round;stroke:rgb(0%,0%,0%);stroke-opacity:1;stroke-miterlimit:10;" d="M 444.225586 320.000977 L 444.128906 304.898438 " transform="matrix(1.333333,0,0,1.333333,-196,-308)"/>
<path style="fill:none;stroke-width:1;stroke-linecap:butt;stroke-linejoin:miter;stroke:rgb(0%,0%,0%);stroke-opacity:1;stroke-miterlimit:10;" d="M 444.102539 300.899414 L 444.128906 304.898438 M 442.628906 304.910156 L 444.102539 300.899414 L 445.628906 304.889648 " transform="matrix(1.333333,0,0,1.333333,-196,-308)"/>
<path style=" stroke:none;fill-rule:nonzero;fill:rgb(0%,0%,0%);fill-opacity:1;" d="M 391.578125 70.730469 L 391.578125 69.542969 C 391.992188 69.074219 392.539062 68.832031 393.222656 68.832031 C 393.457031 68.832031 393.703125 68.871094 393.953125 68.9375 C 394.210938 69.011719 394.582031 69.140625 395.054688 69.332031 C 395.316406 69.457031 395.519531 69.542969 395.660156 69.582031 C 395.796875 69.613281 395.9375 69.625 396.078125 69.625 C 396.328125 69.625 396.582031 69.550781 396.847656 69.394531 C 397.125 69.246094 397.367188 69.050781 397.578125 68.8125 L 397.578125 70.0625 C 397.328125 70.300781 397.066406 70.472656 396.804688 70.582031 C 396.554688 70.683594 396.269531 70.730469 395.953125 70.730469 C 395.710938 70.730469 395.492188 70.703125 395.285156 70.644531 C 395.078125 70.59375 394.734375 70.457031 394.265625 70.25 C 393.804688 70.042969 393.421875 69.9375 393.117188 69.9375 C 392.867188 69.9375 392.628906 69.996094 392.410156 70.105469 C 392.1875 70.21875 391.910156 70.425781 391.578125 70.730469 Z M 391.578125 70.730469 "/>
<path style=" stroke:none;fill-rule:nonzero;fill:rgb(40.000001%,74.901962%,100%);fill-opacity:1;" d="M 1.332031 273.332031 L 38.667969 273.332031 L 38.667969 252 L 1.332031 252 Z M 1.332031 273.332031 "/>
<path style="fill:none;stroke-width:1;stroke-linecap:round;stroke-linejoin:round;stroke:rgb(0%,0%,0%);stroke-opacity:1;stroke-miterlimit:10;" d="M 147.999023 420 L 176.000977 420 L 176.000977 435.999023 L 147.999023 435.999023 Z M 147.999023 420 " transform="matrix(1.333333,0,0,1.333333,-196,-308)"/>
<path style=" stroke:none;fill-rule:nonzero;fill:rgb(0%,0%,0%);fill-opacity:1;" d="M 24.109375 260.242188 L 23.945312 261.136719 L 22.382812 261.136719 C 22.683594 261.570312 22.839844 262.109375 22.839844 262.761719 C 22.839844 263.777344 22.539062 264.671875 21.945312 265.449219 C 21.34375 266.230469 20.53125 266.617188 19.507812 266.617188 C 18.714844 266.617188 18.089844 266.386719 17.632812 265.929688 C 17.183594 265.460938 16.964844 264.84375 16.964844 264.09375 C 16.964844 262.984375 17.265625 262.046875 17.882812 261.28125 C 18.507812 260.507812 19.308594 260.117188 20.296875 260.117188 C 20.617188 260.117188 20.90625 260.15625 21.171875 260.242188 Z M 18.027344 264.074219 C 18.027344 264.574219 18.15625 264.984375 18.421875 265.304688 C 18.683594 265.625 19.046875 265.78125 19.507812 265.78125 C 20.214844 265.78125 20.765625 265.449219 21.171875 264.78125 C 21.574219 264.105469 21.777344 263.417969 21.777344 262.71875 C 21.777344 262.136719 21.640625 261.695312 21.382812 261.386719 C 21.132812 261.085938 20.78125 260.929688 20.339844 260.929688 C 19.632812 260.929688 19.070312 261.25 18.652344 261.886719 C 18.234375 262.527344 18.027344 263.257812 18.027344 264.074219 Z M 18.027344 264.074219 "/>
<path style="fill:none;stroke-width:1;stroke-linecap:round;stroke-linejoin:round;stroke:rgb(0%,0%,0%);stroke-opacity:1;stroke-miterlimit:10;" d="M 468 423.999023 L 490.101562 423.999023 " transform="matrix(1.333333,0,0,1.333333,-196,-308)"/>
<path style="fill:none;stroke-width:1;stroke-linecap:butt;stroke-linejoin:miter;stroke:rgb(0%,0%,0%);stroke-opacity:1;stroke-miterlimit:10;" d="M 494.100586 423.999023 L 490.101562 423.999023 M 490.101562 422.499023 L 494.100586 423.999023 L 490.101562 425.499023 " transform="matrix(1.333333,0,0,1.333333,-196,-308)"/>
<path style="fill:none;stroke-width:1;stroke-linecap:round;stroke-linejoin:round;stroke:rgb(0%,0%,0%);stroke-opacity:1;stroke-miterlimit:10;" d="M 477 435.999023 L 477 429.999023 C 477 426.688477 479.686523 423.999023 483 423.999023 L 493.790039 423.999023 " transform="matrix(1.333333,0,0,1.333333,-196,-308)"/>
<path style="fill:none;stroke-width:1;stroke-linecap:round;stroke-linejoin:round;stroke:rgb(0%,0%,0%);stroke-opacity:1;stroke-miterlimit:10;" d="M 387.999023 435 L 410.100586 435 " transform="matrix(1.333333,0,0,1.333333,-196,-308)"/>
<path style="fill:none;stroke-width:1;stroke-linecap:butt;stroke-linejoin:miter;stroke:rgb(0%,0%,0%);stroke-opacity:1;stroke-miterlimit:10;" d="M 414.102539 435 L 410.100586 435 M 410.100586 433.5 L 414.102539 435 L 410.100586 436.5 " transform="matrix(1.333333,0,0,1.333333,-196,-308)"/>
<path style="fill:none;stroke-width:1;stroke-linecap:round;stroke-linejoin:round;stroke:rgb(0%,0%,0%);stroke-opacity:1;stroke-miterlimit:10;" d="M 387.999023 435 L 393.999023 435 C 397.3125 435 399.999023 432.313477 399.999023 429 L 399.999023 424.898438 " transform="matrix(1.333333,0,0,1.333333,-196,-308)"/>
<path style="fill:none;stroke-width:1;stroke-linecap:butt;stroke-linejoin:miter;stroke:rgb(0%,0%,0%);stroke-opacity:1;stroke-miterlimit:10;" d="M 399.999023 420.899414 L 399.999023 424.898438 M 398.499023 424.898438 L 399.999023 420.899414 L 401.499023 424.898438 " transform="matrix(1.333333,0,0,1.333333,-196,-308)"/>
<path style="fill-rule:nonzero;fill:rgb(69.803923%,85.09804%,100%);fill-opacity:1;stroke-width:1;stroke-linecap:round;stroke-linejoin:round;stroke:rgb(0%,0%,0%);stroke-opacity:1;stroke-miterlimit:10;" d="M 297.65625 422.34375 C 300.782227 425.469727 300.782227 430.532227 297.65625 433.655273 C 294.530273 436.78125 289.467773 436.78125 286.344727 433.655273 C 283.21875 430.532227 283.21875 425.469727 286.344727 422.34375 C 289.467773 419.217773 294.530273 419.217773 297.65625 422.34375 " transform="matrix(1.333333,0,0,1.333333,-196,-308)"/>
<path style=" stroke:none;fill-rule:nonzero;fill:rgb(0%,0%,0%);fill-opacity:1;" d="M 227.105469 258.230469 L 224.292969 258.230469 C 224.125 257.6875 223.957031 257.207031 223.769531 256.769531 L 222.894531 256.917969 C 223.082031 257.3125 223.269531 257.75 223.4375 258.230469 L 220.667969 258.230469 L 220.667969 260.644531 L 221.480469 260.644531 L 221.480469 259.019531 L 226.269531 259.019531 L 226.269531 260.605469 L 227.105469 260.605469 Z M 222.894531 259.769531 C 222.730469 260.4375 222.542969 261.082031 222.355469 261.707031 L 220.375 261.707031 L 220.375 262.519531 L 222.0625 262.519531 C 221.792969 263.207031 221.5 263.832031 221.1875 264.4375 C 221.980469 264.855469 222.730469 265.269531 223.417969 265.667969 C 222.605469 266.25 221.417969 266.730469 219.832031 267.105469 L 220.167969 267.917969 C 222.042969 267.480469 223.394531 266.875 224.230469 266.144531 C 225.3125 266.769531 226.207031 267.355469 226.9375 267.875 L 227.519531 267.1875 C 226.832031 266.707031 225.917969 266.144531 224.792969 265.519531 C 225.4375 264.730469 225.855469 263.730469 226.042969 262.519531 L 227.480469 262.519531 L 227.480469 261.707031 L 223.230469 261.707031 C 223.394531 261.144531 223.5625 260.519531 223.75 259.832031 Z M 225.207031 262.519531 C 225.019531 263.582031 224.625 264.4375 224.019531 265.105469 C 223.457031 264.8125 222.855469 264.5 222.207031 264.167969 C 222.457031 263.707031 222.6875 263.144531 222.9375 262.519531 Z M 217.917969 267.75 C 218.582031 267.75 218.9375 267.417969 218.9375 266.707031 L 218.9375 263.25 C 219.3125 263.082031 219.6875 262.917969 220.0625 262.730469 L 220.0625 261.855469 C 219.6875 262.042969 219.3125 262.230469 218.9375 262.394531 L 218.9375 260 L 220.0625 260 L 220.0625 259.167969 L 218.9375 259.167969 L 218.9375 256.894531 L 218.042969 256.894531 L 218.042969 259.167969 L 216.644531 259.167969 L 216.644531 260 L 218.042969 260 L 218.042969 262.75 C 217.519531 262.9375 216.980469 263.105469 216.417969 263.230469 L 216.625 264.105469 C 217.082031 263.957031 217.5625 263.792969 218.042969 263.605469 L 218.042969 266.5 C 218.042969 266.8125 217.894531 266.957031 217.605469 266.957031 C 217.3125 266.957031 217.019531 266.9375 216.707031 266.917969 L 216.894531 267.75 Z M 217.917969 267.75 "/>
<path style=" stroke:none;fill-rule:nonzero;fill:rgb(0%,0%,0%);fill-opacity:1;" d="M 229.792969 257.542969 L 229.792969 258.375 L 238.082031 258.375 L 238.082031 257.542969 Z M 228.875 261.0625 L 228.875 261.894531 L 231.980469 261.894531 L 231.980469 262.082031 C 231.957031 263.394531 231.6875 264.457031 231.207031 265.269531 C 230.707031 266.0625 229.792969 266.6875 228.5 267.167969 L 228.980469 267.894531 C 230.3125 267.417969 231.269531 266.730469 231.855469 265.855469 C 232.457031 264.894531 232.792969 263.644531 232.832031 262.082031 L 232.832031 261.894531 L 234.980469 261.894531 L 234.980469 266.5625 C 234.980469 267.3125 235.355469 267.667969 236.105469 267.667969 L 237.855469 267.667969 C 238.292969 267.667969 238.605469 267.542969 238.8125 267.3125 C 239.042969 267.019531 239.207031 266.230469 239.292969 264.917969 L 238.5 264.667969 C 238.457031 265.75 238.375 266.394531 238.230469 266.625 C 238.125 266.792969 237.957031 266.894531 237.6875 266.894531 L 236.355469 266.894531 C 236 266.894531 235.832031 266.707031 235.832031 266.375 L 235.832031 261.894531 L 239.144531 261.894531 L 239.144531 261.0625 Z M 228.875 261.0625 "/>
<path style=" stroke:none;fill-rule:nonzero;fill:rgb(0%,0%,0%);fill-opacity:1;" d="M 241.355469 257.6875 L 241.355469 258.394531 L 245.582031 258.394531 L 245.582031 259.207031 L 241.855469 259.207031 L 241.855469 259.894531 L 245.582031 259.894531 L 245.582031 260.707031 L 240.832031 260.707031 L 240.832031 261.4375 L 244.730469 261.4375 C 243.980469 262 243.332031 262.375 242.769531 262.582031 C 242.625 262.644531 242.457031 262.6875 242.269531 262.707031 L 242.4375 263.332031 C 243.5625 263.292969 244.625 263.25 245.644531 263.230469 C 244.457031 263.769531 243.269531 264.1875 242.082031 264.5 L 241.605469 264.457031 L 241.769531 265.1875 L 242.792969 265.144531 C 243.457031 265.144531 244.417969 265.105469 245.644531 265.042969 L 245.644531 266.730469 C 245.644531 267.019531 245.519531 267.167969 245.269531 267.167969 C 244.9375 267.167969 244.605469 267.125 244.230469 267.105469 L 244.394531 267.875 L 245.542969 267.875 C 246.167969 267.875 246.5 267.5625 246.5 266.917969 L 246.5 265 C 247.355469 264.957031 248.355469 264.875 249.5 264.792969 C 249.75 265.0625 249.980469 265.355469 250.1875 265.625 L 250.792969 265.207031 C 250.3125 264.582031 249.605469 263.832031 248.6875 262.980469 L 248.105469 263.355469 C 248.417969 263.644531 248.707031 263.9375 248.980469 264.207031 C 246.917969 264.394531 245.167969 264.5 243.730469 264.542969 C 245.480469 264 247.230469 263.230469 248.957031 262.207031 L 248.292969 261.792969 C 247.792969 262.082031 247.292969 262.375 246.792969 262.644531 C 245.730469 262.6875 244.667969 262.730469 243.605469 262.769531 C 244.3125 262.4375 245.019531 261.980469 245.730469 261.4375 L 251.167969 261.4375 L 251.167969 260.707031 L 246.457031 260.707031 L 246.457031 259.894531 L 250.144531 259.894531 L 250.144531 259.207031 L 246.457031 259.207031 L 246.457031 258.394531 L 250.644531 258.394531 L 250.644531 257.6875 L 246.457031 257.6875 L 246.457031 256.832031 L 245.582031 256.832031 L 245.582031 257.6875 Z M 244.0625 265.457031 C 243.1875 266.082031 242.0625 266.582031 240.707031 266.957031 L 241.0625 267.6875 C 242.457031 267.25 243.605469 266.6875 244.542969 266.019531 Z M 247.832031 265.4375 L 247.417969 266.042969 C 248.582031 266.457031 249.730469 267.019531 250.855469 267.730469 L 251.269531 267.0625 C 250.230469 266.417969 249.082031 265.894531 247.832031 265.4375 Z M 247.832031 265.4375 "/>
<path style=" stroke:none;fill-rule:nonzero;fill:rgb(0%,0%,0%);fill-opacity:1;" d="M 253.480469 256.980469 L 252.875 257.542969 C 253.75 258.25 254.4375 258.875 254.9375 259.480469 L 255.542969 258.875 C 254.980469 258.25 254.292969 257.625 253.480469 256.980469 Z M 260.480469 267.644531 L 263.269531 267.644531 L 263.480469 266.792969 C 263.167969 266.8125 262.707031 266.8125 262.125 266.832031 C 261.519531 266.855469 260.9375 266.855469 260.355469 266.855469 C 259.4375 266.855469 258.667969 266.855469 258.042969 266.832031 C 257.355469 266.8125 256.8125 266.707031 256.457031 266.542969 C 256.125 266.394531 255.8125 266.144531 255.519531 265.792969 C 255.4375 265.6875 255.355469 265.605469 255.25 265.519531 L 255.25 261.019531 L 252.730469 261.019531 L 252.730469 261.8125 L 254.457031 261.8125 L 254.457031 265.457031 C 253.9375 265.6875 253.375 266.292969 252.730469 267.3125 L 253.375 267.894531 C 254.042969 266.792969 254.542969 266.230469 254.8125 266.230469 C 254.957031 266.230469 255.125 266.332031 255.269531 266.542969 C 255.644531 266.957031 256.0625 267.269531 256.519531 267.417969 C 257 267.542969 257.625 267.625 258.375 267.625 C 259.144531 267.644531 259.832031 267.644531 260.480469 267.644531 Z M 256.894531 257.542969 L 256.894531 258.332031 L 262.394531 258.332031 L 262.394531 257.542969 Z M 256.167969 260.269531 L 256.167969 261.105469 L 258.6875 261.105469 C 257.75 263.457031 257.042969 264.730469 256.542969 264.875 L 256.75 265.625 C 258.894531 265.417969 260.625 265.167969 261.9375 264.855469 C 262.082031 265.1875 262.207031 265.542969 262.332031 265.917969 L 263.105469 265.707031 C 262.605469 264.3125 262.019531 263.042969 261.375 261.9375 L 260.667969 262.167969 C 261.019531 262.792969 261.332031 263.4375 261.625 264.105469 C 260.605469 264.355469 259.3125 264.5625 257.75 264.730469 C 258.292969 264.019531 258.875 262.8125 259.542969 261.105469 L 263.269531 261.105469 L 263.269531 260.269531 Z M 256.167969 260.269531 "/>
<path style=" stroke:none;fill-rule:nonzero;fill:rgb(0%,0%,0%);fill-opacity:1;" d="M 266.125 259.582031 L 266.125 264.292969 L 267.644531 264.292969 L 267.644531 264.75 C 267.644531 264.855469 267.644531 264.980469 267.625 265.105469 L 264.6875 265.105469 L 264.6875 265.855469 L 267.417969 265.855469 C 267.332031 266 267.25 266.144531 267.144531 266.269531 C 266.8125 266.625 266.230469 266.9375 265.394531 267.167969 L 265.832031 267.855469 C 266.75 267.582031 267.4375 267.230469 267.832031 266.769531 C 268.0625 266.519531 268.207031 266.207031 268.332031 265.855469 L 271.75 265.855469 L 271.75 267.894531 L 272.582031 267.894531 L 272.582031 265.855469 L 275.3125 265.855469 L 275.3125 265.105469 L 272.582031 265.105469 L 272.582031 264.292969 L 274.019531 264.292969 L 274.019531 259.582031 Z M 268.519531 264.292969 L 271.75 264.292969 L 271.75 265.105469 L 268.480469 265.105469 C 268.5 264.980469 268.519531 264.875 268.519531 264.75 Z M 273.1875 263.625 L 266.957031 263.625 L 266.957031 262.875 L 273.1875 262.875 Z M 266.957031 262.25 L 266.957031 261.582031 L 273.1875 261.582031 L 273.1875 262.25 Z M 266.957031 260.957031 L 266.957031 260.25 L 273.1875 260.25 L 273.1875 260.957031 Z M 266.480469 258.394531 L 267.417969 258.394531 C 267.644531 258.730469 267.855469 259.0625 268.0625 259.394531 L 268.769531 259.125 C 268.644531 258.894531 268.480469 258.667969 268.269531 258.394531 L 269.855469 258.394531 L 269.855469 257.667969 L 266.875 257.667969 C 266.957031 257.4375 267.0625 257.207031 267.167969 256.957031 L 266.332031 256.769531 C 266.019531 257.6875 265.480469 258.519531 264.75 259.292969 L 265.480469 259.75 C 265.855469 259.332031 266.1875 258.875 266.480469 258.394531 Z M 271.417969 258.355469 L 272.332031 258.355469 C 272.582031 258.707031 272.8125 259.042969 273.019531 259.417969 L 273.730469 259.144531 C 273.582031 258.894531 273.417969 258.644531 273.207031 258.355469 L 275.207031 258.355469 L 275.207031 257.625 L 271.792969 257.625 L 272.042969 256.980469 L 271.207031 256.8125 C 270.9375 257.625 270.5 258.375 269.894531 259.042969 L 270.605469 259.5 C 270.917969 259.144531 271.167969 258.769531 271.417969 258.355469 Z M 271.417969 258.355469 "/>
<path style=" stroke:none;fill-rule:nonzero;fill:rgb(0%,0%,0%);fill-opacity:1;" d="M 278.394531 258.8125 L 279.269531 258.8125 C 279.582031 259.269531 279.832031 259.75 280.0625 260.25 L 280.875 259.9375 C 280.6875 259.582031 280.457031 259.207031 280.1875 258.8125 L 281.875 258.8125 L 281.875 258.019531 L 278.792969 258.019531 C 278.9375 257.6875 279.0625 257.332031 279.1875 256.957031 L 278.355469 256.769531 C 277.980469 257.957031 277.355469 259.042969 276.519531 260.019531 L 277.25 260.480469 C 277.6875 259.980469 278.0625 259.417969 278.394531 258.8125 Z M 283.394531 258.8125 L 284.457031 258.8125 C 284.75 259.269531 285.019531 259.75 285.25 260.25 L 286.042969 259.957031 C 285.875 259.605469 285.644531 259.207031 285.375 258.8125 L 287.230469 258.8125 L 287.230469 258.019531 L 283.707031 258.019531 C 283.855469 257.6875 283.957031 257.3125 284.082031 256.9375 L 283.230469 256.75 C 282.917969 257.9375 282.417969 259.019531 281.707031 259.980469 L 282.4375 260.457031 C 282.792969 259.957031 283.105469 259.417969 283.394531 258.8125 Z M 279.019531 260.082031 C 278.5 261.4375 277.6875 262.625 276.5625 263.6875 L 276.832031 264.582031 C 277.355469 264.125 277.8125 263.625 278.230469 263.105469 L 278.230469 267.8125 L 279.082031 267.8125 L 279.082031 261.855469 C 279.332031 261.394531 279.5625 260.9375 279.75 260.417969 Z M 280.019531 261.875 L 280.019531 262.707031 L 284.9375 262.707031 L 284.9375 266.417969 C 284.9375 266.792969 284.730469 267 284.355469 267 C 283.832031 267 283.25 266.980469 282.667969 266.9375 L 282.855469 267.769531 L 284.667969 267.769531 C 285.417969 267.769531 285.769531 267.394531 285.769531 266.625 L 285.769531 262.707031 L 287.3125 262.707031 L 287.3125 261.875 L 285.769531 261.875 L 285.769531 260.605469 L 284.9375 260.605469 L 284.9375 261.875 Z M 281.542969 263.394531 L 280.875 263.792969 C 281.625 264.644531 282.207031 265.394531 282.644531 266.082031 L 283.3125 265.625 C 282.917969 264.980469 282.3125 264.25 281.542969 263.394531 Z M 281.542969 263.394531 "/>
<path style=" stroke:none;fill-rule:nonzero;fill:rgb(0%,0%,0%);fill-opacity:1;" d="M 62 247.519531 L 62 248.355469 L 63.792969 248.355469 L 63.792969 249.625 L 64.582031 249.625 L 64.582031 248.355469 L 66.875 248.355469 L 66.875 249.667969 L 67.707031 249.667969 L 67.707031 248.355469 L 70.019531 248.355469 L 70.019531 249.625 L 70.832031 249.625 L 70.832031 248.355469 L 72.667969 248.355469 L 72.667969 247.519531 L 70.832031 247.519531 L 70.832031 246.292969 L 70.019531 246.292969 L 70.019531 247.519531 L 67.707031 247.519531 L 67.707031 246.25 L 66.875 246.25 L 66.875 247.519531 L 64.582031 247.519531 L 64.582031 246.292969 L 63.792969 246.292969 L 63.792969 247.519531 Z M 72.269531 250.355469 L 62.394531 250.355469 L 62.394531 252.707031 L 63.230469 252.707031 L 63.230469 251.167969 L 66.875 251.167969 L 66.875 252.480469 L 63.875 252.480469 L 63.875 256.394531 L 64.707031 256.394531 L 64.707031 253.292969 L 66.875 253.292969 L 66.875 257.207031 L 67.75 257.207031 L 67.75 253.292969 L 70 253.292969 L 70 255.144531 C 70 255.4375 69.875 255.582031 69.605469 255.582031 L 68.5625 255.542969 L 68.792969 256.375 L 69.875 256.375 C 70.519531 256.375 70.855469 256.019531 70.855469 255.3125 L 70.855469 252.480469 L 67.75 252.480469 L 67.75 251.167969 L 71.417969 251.167969 L 71.417969 252.667969 L 72.269531 252.667969 Z M 72.269531 250.355469 "/>
<path style=" stroke:none;fill-rule:nonzero;fill:rgb(0%,0%,0%);fill-opacity:1;" d="M 76.75 247.25 L 76.75 251 L 77.792969 251 L 78.144531 252.019531 L 76.292969 252.019531 L 76.292969 252.75 L 77.480469 252.75 C 77.355469 253.667969 77.1875 254.394531 76.980469 254.9375 C 76.75 255.519531 76.394531 256.042969 75.917969 256.519531 L 76.4375 257.207031 C 77 256.644531 77.417969 256.019531 77.707031 255.3125 C 77.8125 255.042969 77.894531 254.75 77.980469 254.394531 L 79.457031 254.394531 C 79.4375 255.230469 79.394531 255.75 79.332031 255.980469 C 79.269531 256.207031 79.0625 256.3125 78.75 256.332031 L 78.019531 256.332031 L 78.230469 257.082031 L 78.980469 257.082031 C 79.457031 257.0625 79.8125 256.894531 80 256.542969 C 80.1875 256.207031 80.292969 255.25 80.292969 253.6875 L 78.125 253.6875 C 78.167969 253.394531 78.207031 253.105469 78.269531 252.75 L 80.667969 252.75 L 80.667969 252.019531 L 78.957031 252.019531 L 78.605469 251 L 80.144531 251 L 80.625 251.582031 C 80.769531 251.375 80.9375 251.125 81.105469 250.855469 C 81.375 252.105469 81.75 253.207031 82.207031 254.144531 C 81.75 255.0625 81.144531 255.8125 80.394531 256.417969 L 80.855469 257.167969 C 81.582031 256.582031 82.1875 255.855469 82.667969 255 C 83.167969 255.875 83.75 256.5625 84.417969 257.082031 L 84.917969 256.355469 C 84.1875 255.855469 83.582031 255.105469 83.0625 254.167969 C 83.667969 252.8125 83.980469 251.144531 84.042969 249.1875 L 84.730469 249.1875 L 84.730469 248.375 L 82.125 248.375 C 82.292969 247.75 82.4375 247.0625 82.542969 246.332031 L 81.75 246.1875 C 81.480469 248 81.019531 249.480469 80.332031 250.605469 L 80.332031 247.25 L 78.75 247.25 C 78.875 246.9375 78.980469 246.625 79.042969 246.292969 L 78.1875 246.167969 C 78.125 246.542969 78.042969 246.894531 77.917969 247.25 Z M 81.582031 249.894531 C 81.6875 249.667969 81.769531 249.417969 81.875 249.1875 L 83.25 249.1875 C 83.230469 250.730469 83 252.082031 82.605469 253.230469 C 82.1875 252.269531 81.855469 251.167969 81.582031 249.894531 Z M 79.582031 250.355469 L 77.5 250.355469 L 77.5 249.480469 L 79.582031 249.480469 Z M 77.5 248.832031 L 77.5 247.894531 L 79.582031 247.894531 L 79.582031 248.832031 Z M 74.5 246.417969 L 73.9375 246.957031 C 74.730469 247.542969 75.332031 248.105469 75.792969 248.625 L 76.355469 248.082031 C 75.832031 247.519531 75.230469 246.980469 74.5 246.417969 Z M 74.332031 249.332031 L 73.75 249.894531 C 74.480469 250.5 75.042969 251.0625 75.480469 251.625 L 76.042969 251.042969 C 75.582031 250.457031 75 249.894531 74.332031 249.332031 Z M 75.417969 252.894531 C 74.980469 254.207031 74.5 255.5 73.917969 256.769531 L 74.6875 257.082031 C 75.207031 255.875 75.707031 254.5625 76.144531 253.167969 Z M 75.417969 252.894531 "/>
<path style=" stroke:none;fill-rule:nonzero;fill:rgb(0%,0%,0%);fill-opacity:1;" d="M 89.019531 249.6875 L 89.019531 250.519531 L 92.457031 250.519531 L 92.457031 252.375 L 89.832031 252.375 L 89.832031 257.207031 L 90.6875 257.207031 L 90.6875 256.542969 L 95.1875 256.542969 L 95.1875 257.1875 L 96.042969 257.1875 L 96.042969 252.375 L 93.332031 252.375 L 93.332031 250.519531 L 96.792969 250.519531 L 96.792969 249.6875 L 93.332031 249.6875 L 93.332031 247.6875 C 94.4375 247.542969 95.394531 247.3125 96.230469 247.019531 L 95.8125 246.269531 C 94.082031 246.855469 91.894531 247.144531 89.292969 247.144531 L 89.542969 247.9375 C 90.582031 247.9375 91.542969 247.894531 92.457031 247.8125 L 92.457031 249.6875 Z M 90.6875 255.730469 L 90.6875 253.1875 L 95.1875 253.1875 L 95.1875 255.730469 Z M 86.855469 246.355469 L 86.269531 246.9375 C 87.125 247.5 87.8125 248.042969 88.3125 248.542969 L 88.894531 247.957031 C 88.355469 247.417969 87.667969 246.894531 86.855469 246.355469 Z M 86.582031 249.230469 L 85.980469 249.8125 C 86.855469 250.4375 87.542969 251.042969 88.042969 251.605469 L 88.644531 251 C 88.082031 250.417969 87.394531 249.8125 86.582031 249.230469 Z M 88 252.417969 C 87.5 253.875 86.875 255.292969 86.1875 256.6875 L 87.042969 257.0625 C 87.667969 255.707031 88.25 254.25 88.769531 252.730469 Z M 88 252.417969 "/>
<path style=" stroke:none;fill-rule:nonzero;fill:rgb(0%,0%,0%);fill-opacity:1;" d="M 99.875 254.542969 C 101.019531 253.8125 102.105469 252.957031 103.125 251.980469 L 103.125 253.832031 C 103.125 254.230469 102.957031 254.417969 102.625 254.417969 C 102.269531 254.417969 101.9375 254.394531 101.625 254.394531 L 101.855469 255.1875 L 102.9375 255.1875 C 103.582031 255.1875 103.917969 254.832031 103.917969 254.144531 L 103.917969 252.125 C 104.644531 252.6875 105.542969 253.457031 106.582031 254.480469 L 107.082031 253.730469 C 106 252.792969 104.957031 251.980469 103.917969 251.25 L 103.917969 249.417969 C 105.105469 248.769531 106.167969 248.125 107.125 247.457031 L 107.125 246.644531 L 99.6875 246.644531 L 99.6875 247.457031 L 105.832031 247.457031 C 105.230469 247.855469 104.332031 248.355469 103.125 248.9375 L 103.125 251 C 101.980469 252.082031 100.8125 252.980469 99.5625 253.6875 Z M 107.332031 248.832031 L 107.332031 255.75 L 99.332031 255.75 L 99.332031 248.832031 L 98.5 248.832031 L 98.5 257.207031 L 99.332031 257.207031 L 99.332031 256.542969 L 107.332031 256.542969 L 107.332031 257.230469 L 108.167969 257.230469 L 108.167969 248.832031 Z M 100.625 249.207031 L 100 249.605469 C 100.6875 250.269531 101.25 250.855469 101.667969 251.417969 L 102.332031 250.957031 C 101.9375 250.457031 101.375 249.875 100.625 249.207031 Z M 106.082031 249.125 C 105.644531 249.855469 105.082031 250.5 104.457031 251.019531 L 105.082031 251.457031 C 105.730469 250.894531 106.3125 250.230469 106.792969 249.457031 Z M 106.082031 249.125 "/>
<path style=" stroke:none;fill-rule:nonzero;fill:rgb(0%,0%,0%);fill-opacity:1;" d="M 117.230469 248.855469 L 119 248.855469 C 118.957031 250.480469 118.707031 251.894531 118.230469 253.105469 C 117.75 252.105469 117.375 250.894531 117.082031 249.480469 Z M 117.832031 253.980469 C 117.292969 255 116.5625 255.8125 115.625 256.457031 L 116.0625 257.1875 C 116.957031 256.542969 117.707031 255.730469 118.292969 254.769531 C 118.875 255.792969 119.605469 256.605469 120.4375 257.207031 L 120.917969 256.5 C 120.042969 255.894531 119.3125 255.082031 118.6875 254 C 119.375 252.582031 119.730469 250.855469 119.792969 248.855469 L 120.582031 248.855469 L 120.582031 248.042969 L 117.417969 248.042969 C 117.5 247.5 117.605469 246.9375 117.667969 246.3125 L 116.832031 246.167969 C 116.582031 248.457031 116.105469 250.269531 115.394531 251.605469 L 115.9375 252.269531 C 116.1875 251.832031 116.4375 251.355469 116.644531 250.792969 C 116.980469 252 117.375 253.042969 117.832031 253.980469 Z M 112.144531 251.769531 C 112.0625 252.019531 111.980469 252.269531 111.875 252.542969 L 110.105469 252.542969 L 110.105469 253.292969 L 111.519531 253.292969 C 111.292969 253.769531 111.019531 254.25 110.707031 254.792969 C 111.292969 255 111.832031 255.230469 112.375 255.457031 C 111.667969 255.855469 110.8125 256.1875 109.832031 256.4375 L 110.25 257.167969 C 111.4375 256.832031 112.4375 256.375 113.230469 255.832031 C 113.9375 256.144531 114.5625 256.457031 115.082031 256.769531 L 115.542969 256.105469 C 115.019531 255.8125 114.480469 255.5625 113.894531 255.292969 C 114.519531 254.707031 114.957031 254.042969 115.230469 253.25 L 115.230469 252.542969 L 112.707031 252.542969 C 112.792969 252.3125 112.875 252.105469 112.957031 251.875 Z M 113.105469 254.957031 C 112.667969 254.769531 112.207031 254.605469 111.730469 254.4375 C 111.980469 254.082031 112.1875 253.6875 112.375 253.292969 L 114.4375 253.292969 C 114.167969 253.917969 113.707031 254.480469 113.105469 254.957031 Z M 111.0625 246.417969 L 110.375 246.644531 C 110.667969 247.105469 110.9375 247.625 111.1875 248.207031 L 111.8125 247.917969 C 111.582031 247.394531 111.355469 246.894531 111.0625 246.417969 Z M 114.707031 246.394531 C 114.5 246.894531 114.1875 247.394531 113.792969 247.917969 L 114.417969 248.230469 C 114.792969 247.730469 115.082031 247.207031 115.332031 246.667969 Z M 110.144531 248.5 L 110.144531 249.25 L 111.832031 249.25 C 111.480469 249.917969 110.832031 250.519531 109.917969 251.0625 L 110.332031 251.75 C 111.355469 251.0625 112.082031 250.25 112.480469 249.292969 L 112.480469 251.5625 L 113.292969 251.5625 L 113.292969 250.019531 C 113.707031 250.292969 114.230469 250.6875 114.832031 251.167969 L 115.269531 250.5 C 114.605469 250.082031 113.9375 249.707031 113.292969 249.394531 L 113.292969 249.25 L 115.457031 249.25 L 115.457031 248.5 L 113.292969 248.5 L 113.292969 246.207031 L 112.480469 246.207031 L 112.480469 248.5 Z M 110.144531 248.5 "/>
<path style=" stroke:none;fill-rule:nonzero;fill:rgb(0%,0%,0%);fill-opacity:1;" d="M 126.1875 248.269531 L 124.25 248.269531 C 124.480469 247.667969 124.667969 247.019531 124.8125 246.3125 L 123.957031 246.1875 C 123.832031 246.894531 123.667969 247.605469 123.4375 248.269531 L 122.3125 248.269531 L 122.3125 256.8125 L 123.167969 256.8125 L 123.167969 255.769531 L 125.332031 255.769531 L 125.332031 256.457031 L 126.1875 256.457031 Z M 123.167969 254.957031 L 123.167969 252.332031 L 125.332031 252.332031 L 125.332031 254.957031 Z M 123.167969 251.5625 L 123.167969 249.082031 L 125.332031 249.082031 L 125.332031 251.5625 Z M 128.269531 251.0625 L 127.582031 251.480469 C 128.394531 252.480469 129.0625 253.355469 129.5625 254.144531 L 130.230469 253.667969 C 129.792969 252.9375 129.125 252.042969 128.269531 251.0625 Z M 132.375 248.292969 L 128.5625 248.292969 C 128.769531 247.667969 128.9375 246.980469 129.082031 246.269531 L 128.230469 246.167969 C 127.917969 247.875 127.355469 249.3125 126.519531 250.5 L 127.042969 251.167969 C 127.5 250.5625 127.894531 249.875 128.230469 249.125 L 131.542969 249.125 C 131.5 252.582031 131.457031 254.644531 131.394531 255.332031 C 131.292969 255.9375 130.980469 256.25 130.394531 256.25 C 130.042969 256.25 129.605469 256.25 129.105469 256.207031 L 129.292969 257 C 129.875 257.042969 130.292969 257.0625 130.519531 257.0625 C 131.542969 257.0625 132.082031 256.582031 132.207031 255.667969 C 132.332031 254.75 132.375 252.269531 132.375 248.292969 Z M 132.375 248.292969 "/>
<path style=" stroke:none;fill-rule:nonzero;fill:rgb(0%,0%,0%);fill-opacity:1;" d="M 79.019531 263.5625 C 77.625 265.082031 75.875 266.355469 73.769531 267.375 L 74.1875 268.125 C 76.3125 267.0625 78.019531 265.792969 79.332031 264.355469 C 80.75 265.875 82.4375 267.105469 84.4375 268.0625 L 84.875 267.292969 C 82.894531 266.375 81.167969 265.144531 79.644531 263.5625 Z M 75.980469 267.355469 L 75.980469 268.1875 L 78.894531 268.1875 L 78.894531 270.269531 L 75.417969 270.269531 L 75.417969 271.105469 L 78.894531 271.105469 L 78.894531 273.3125 L 74.332031 273.3125 L 74.332031 274.167969 L 84.332031 274.167969 L 84.332031 273.3125 L 79.769531 273.3125 L 79.769531 271.105469 L 83.25 271.105469 L 83.25 270.269531 L 79.769531 270.269531 L 79.769531 268.1875 L 82.6875 268.1875 L 82.6875 267.355469 Z M 75.980469 267.355469 "/>
<path style=" stroke:none;fill-rule:nonzero;fill:rgb(0%,0%,0%);fill-opacity:1;" d="M 86.875 263.730469 L 86.292969 264.292969 C 87.125 264.980469 87.8125 265.605469 88.292969 266.1875 L 88.917969 265.582031 C 88.355469 264.957031 87.667969 264.355469 86.875 263.730469 Z M 93.832031 274.3125 L 96.582031 274.3125 L 96.792969 273.457031 C 96.480469 273.480469 96.019531 273.480469 95.457031 273.5 C 94.855469 273.519531 94.292969 273.519531 93.730469 273.519531 C 92.792969 273.519531 92.019531 273.519531 91.394531 273.5 C 90.6875 273.480469 90.167969 273.375 89.792969 273.207031 C 89.457031 273.0625 89.167969 272.8125 88.875 272.457031 C 88.769531 272.355469 88.6875 272.25 88.582031 272.1875 L 88.582031 267.6875 L 86.0625 267.6875 L 86.0625 268.480469 L 87.792969 268.480469 L 87.792969 272.125 C 87.292969 272.355469 86.730469 272.957031 86.082031 273.980469 L 86.730469 274.5625 C 87.394531 273.457031 87.875 272.894531 88.144531 272.894531 C 88.292969 272.894531 88.457031 273 88.605469 273.207031 C 88.980469 273.625 89.394531 273.9375 89.875 274.082031 C 90.355469 274.207031 90.957031 274.292969 91.730469 274.292969 C 92.480469 274.3125 93.1875 274.3125 93.832031 274.3125 Z M 89.417969 264.769531 L 89.417969 265.5625 L 91 265.5625 C 90.605469 266.417969 90.167969 267.144531 89.6875 267.707031 L 89.875 268.5 L 92.644531 268.5 L 92.644531 269.9375 L 89.3125 269.9375 L 89.3125 270.75 L 92.644531 270.75 L 92.644531 272.980469 L 93.480469 272.980469 L 93.480469 270.75 L 96.605469 270.75 L 96.605469 269.9375 L 93.480469 269.9375 L 93.480469 268.5 L 96.082031 268.5 L 96.082031 267.707031 L 93.480469 267.707031 L 93.480469 266.292969 L 92.644531 266.292969 L 92.644531 267.707031 L 90.707031 267.707031 C 91.144531 267.082031 91.542969 266.375 91.917969 265.5625 L 96.457031 265.5625 L 96.457031 264.769531 L 92.25 264.769531 C 92.394531 264.394531 92.519531 264.042969 92.644531 263.644531 L 91.832031 263.4375 C 91.6875 263.894531 91.519531 264.355469 91.355469 264.769531 Z M 89.417969 264.769531 "/>
<path style=" stroke:none;fill-rule:nonzero;fill:rgb(0%,0%,0%);fill-opacity:1;" d="M 103.6875 265.5625 L 102.980469 265.894531 C 103.230469 266.332031 103.457031 266.8125 103.707031 267.332031 L 101.875 267.332031 L 101.875 268.167969 L 108.5625 268.167969 L 108.5625 267.332031 L 106.625 267.332031 C 106.894531 266.855469 107.144531 266.3125 107.375 265.707031 L 106.5625 265.417969 C 106.3125 266.105469 106.042969 266.730469 105.707031 267.332031 L 104.542969 267.332031 C 104.269531 266.6875 104 266.105469 103.6875 265.5625 Z M 105.269531 263.457031 L 104.375 263.605469 C 104.5 263.894531 104.644531 264.230469 104.792969 264.605469 L 102.144531 264.605469 L 102.144531 265.394531 L 108.355469 265.394531 L 108.355469 264.605469 L 105.667969 264.605469 C 105.519531 264.1875 105.394531 263.792969 105.269531 263.457031 Z M 99.269531 274.417969 C 99.980469 274.417969 100.355469 274.082031 100.355469 273.375 L 100.355469 269.832031 C 100.6875 269.667969 101.019531 269.5 101.355469 269.332031 L 101.355469 268.457031 C 101.019531 268.625 100.6875 268.792969 100.355469 268.957031 L 100.355469 266.667969 L 101.332031 266.667969 L 101.332031 265.832031 L 100.355469 265.832031 L 100.355469 263.5625 L 99.457031 263.5625 L 99.457031 265.832031 L 98 265.832031 L 98 266.667969 L 99.457031 266.667969 L 99.457031 269.332031 C 98.894531 269.5625 98.332031 269.730469 97.769531 269.875 L 98 270.75 C 98.480469 270.582031 98.980469 270.394531 99.457031 270.207031 L 99.457031 273.167969 C 99.457031 273.480469 99.292969 273.625 98.980469 273.625 C 98.6875 273.625 98.375 273.605469 98.0625 273.582031 L 98.230469 274.417969 Z M 104.207031 268.5 C 104.082031 268.832031 103.9375 269.167969 103.769531 269.519531 L 101.707031 269.519531 L 101.707031 270.375 L 103.3125 270.375 C 103.0625 270.832031 102.792969 271.292969 102.457031 271.792969 C 103.292969 272.125 104.082031 272.4375 104.8125 272.792969 C 104.0625 273.207031 102.980469 273.542969 101.582031 273.792969 L 101.9375 274.582031 C 103.667969 274.25 104.917969 273.769531 105.707031 273.207031 C 106.667969 273.667969 107.5 274.105469 108.207031 274.542969 L 108.6875 273.855469 C 107.9375 273.417969 107.144531 273 106.3125 272.625 C 106.875 272.019531 107.25 271.25 107.4375 270.375 L 108.75 270.375 L 108.75 269.519531 L 104.644531 269.519531 C 104.792969 269.230469 104.917969 268.917969 105.042969 268.582031 Z M 106.625 270.375 C 106.4375 271.144531 106.0625 271.769531 105.519531 272.269531 C 104.875 271.980469 104.207031 271.707031 103.519531 271.4375 C 103.75 271.105469 103.980469 270.75 104.1875 270.375 Z M 106.625 270.375 "/>
<path style=" stroke:none;fill-rule:nonzero;fill:rgb(0%,0%,0%);fill-opacity:1;" d="M 113.230469 268.125 L 113.230469 268.894531 L 119.730469 268.894531 L 119.730469 268.125 Z M 112.375 270.082031 L 112.375 270.875 L 115 270.875 C 114.167969 272.230469 113.457031 273.0625 112.9375 273.375 C 112.875 273.394531 112.832031 273.4375 112.75 273.457031 L 112.9375 274.1875 C 115.207031 274.042969 117.292969 273.832031 119.1875 273.582031 C 119.4375 273.875 119.644531 274.1875 119.855469 274.5 L 120.542969 274.019531 C 120.019531 273.25 119.25 272.332031 118.269531 271.292969 L 117.625 271.6875 C 117.980469 272.105469 118.332031 272.5 118.667969 272.894531 C 117.125 273.125 115.5625 273.292969 113.980469 273.394531 C 114.542969 272.894531 115.1875 272.042969 115.917969 270.875 L 120.519531 270.875 L 120.519531 270.082031 Z M 119.0625 264.8125 L 119.0625 266.207031 L 112 266.207031 L 112 264.8125 Z M 112 266.980469 L 119.894531 266.980469 L 119.894531 264 L 111.167969 264 L 111.167969 267.980469 C 111.144531 270.394531 110.730469 272.355469 109.894531 273.875 L 110.519531 274.457031 C 111.5 272.644531 112 270.480469 112 267.980469 Z M 112 266.980469 "/>
<path style=" stroke:none;fill-rule:nonzero;fill:rgb(0%,0%,0%);fill-opacity:1;" d="M 494.875 257.0625 L 494.292969 257.625 C 495.125 258.3125 495.8125 258.9375 496.292969 259.519531 L 496.917969 258.917969 C 496.355469 258.292969 495.667969 257.6875 494.875 257.0625 Z M 501.832031 267.644531 L 504.582031 267.644531 L 504.792969 266.792969 C 504.480469 266.8125 504.019531 266.8125 503.457031 266.832031 C 502.855469 266.855469 502.292969 266.855469 501.730469 266.855469 C 500.792969 266.855469 500.019531 266.855469 499.394531 266.832031 C 498.6875 266.8125 498.167969 266.707031 497.792969 266.542969 C 497.457031 266.394531 497.167969 266.144531 496.875 265.792969 C 496.769531 265.6875 496.6875 265.582031 496.582031 265.519531 L 496.582031 261.019531 L 494.0625 261.019531 L 494.0625 261.8125 L 495.792969 261.8125 L 495.792969 265.457031 C 495.292969 265.6875 494.730469 266.292969 494.082031 267.3125 L 494.730469 267.894531 C 495.394531 266.792969 495.875 266.230469 496.144531 266.230469 C 496.292969 266.230469 496.457031 266.332031 496.605469 266.542969 C 496.980469 266.957031 497.394531 267.269531 497.875 267.417969 C 498.355469 267.542969 498.957031 267.625 499.730469 267.625 C 500.480469 267.644531 501.1875 267.644531 501.832031 267.644531 Z M 497.417969 258.105469 L 497.417969 258.894531 L 499 258.894531 C 498.605469 259.75 498.167969 260.480469 497.6875 261.042969 L 497.875 261.832031 L 500.644531 261.832031 L 500.644531 263.269531 L 497.3125 263.269531 L 497.3125 264.082031 L 500.644531 264.082031 L 500.644531 266.3125 L 501.480469 266.3125 L 501.480469 264.082031 L 504.605469 264.082031 L 504.605469 263.269531 L 501.480469 263.269531 L 501.480469 261.832031 L 504.082031 261.832031 L 504.082031 261.042969 L 501.480469 261.042969 L 501.480469 259.625 L 500.644531 259.625 L 500.644531 261.042969 L 498.707031 261.042969 C 499.144531 260.417969 499.542969 259.707031 499.917969 258.894531 L 504.457031 258.894531 L 504.457031 258.105469 L 500.25 258.105469 C 500.394531 257.730469 500.519531 257.375 500.644531 256.980469 L 499.832031 256.769531 C 499.6875 257.230469 499.519531 257.6875 499.355469 258.105469 Z M 497.417969 258.105469 "/>
<path style=" stroke:none;fill-rule:nonzero;fill:rgb(0%,0%,0%);fill-opacity:1;" d="M 510.269531 265.457031 C 509.0625 265.917969 507.644531 266.269531 506 266.542969 L 506.105469 267.375 C 507.667969 267.082031 509.0625 266.730469 510.269531 266.292969 Z M 508.0625 256.832031 C 507.582031 258.25 507 259.519531 506.332031 260.625 C 506.230469 260.769531 506.105469 260.875 505.980469 260.9375 L 506.1875 261.730469 C 506.875 261.644531 507.5625 261.542969 508.25 261.4375 C 507.582031 262.5625 507.019531 263.355469 506.5625 263.8125 C 506.457031 263.917969 506.3125 264 506.167969 264.082031 L 506.394531 264.855469 C 507.582031 264.707031 508.832031 264.394531 510.125 263.957031 L 510.125 263.1875 C 509.25 263.480469 508.355469 263.730469 507.4375 263.917969 C 508.167969 263.042969 509.082031 261.605469 510.167969 259.582031 L 509.417969 259.292969 C 509.167969 259.75 508.9375 260.207031 508.707031 260.625 C 508.125 260.730469 507.5625 260.8125 507 260.875 C 507.625 259.9375 508.25 258.707031 508.855469 257.144531 Z M 510.125 258.355469 L 510.125 259.1875 L 513 259.1875 L 513 260.957031 L 510.519531 260.957031 L 510.519531 261.8125 L 516.375 261.8125 L 516.375 260.957031 L 513.875 260.957031 L 513.875 259.1875 L 516.730469 259.1875 L 516.730469 258.355469 L 513.875 258.355469 L 513.875 256.894531 L 513 256.894531 L 513 258.355469 Z M 516.042969 263 L 510.917969 263 L 510.917969 267.832031 L 511.769531 267.832031 L 511.769531 267.25 L 515.1875 267.25 L 515.1875 267.832031 L 516.042969 267.832031 Z M 511.769531 266.4375 L 511.769531 263.8125 L 515.1875 263.8125 L 515.1875 266.4375 Z M 511.769531 266.4375 "/>
<path style=" stroke:none;fill-rule:nonzero;fill:rgb(0%,0%,0%);fill-opacity:1;" d="M 376.667969 258.5 L 384.082031 258.5 L 384.082031 257.75 L 377.0625 257.75 C 377.1875 257.480469 377.292969 257.1875 377.394531 256.894531 L 376.542969 256.75 C 376.082031 258.105469 375.25 259.230469 374.019531 260.167969 L 374.542969 260.832031 C 375.0625 260.4375 375.519531 260 375.917969 259.542969 L 375.917969 263.125 L 377.457031 263.125 C 376.8125 264 375.8125 264.707031 374.417969 265.25 L 374.875 265.980469 C 375.5 265.6875 376.0625 265.375 376.542969 265.042969 C 377.1875 265.605469 377.9375 266.082031 378.75 266.480469 C 377.5 266.832031 376.019531 267.042969 374.292969 267.125 L 374.625 267.875 C 376.644531 267.75 378.355469 267.4375 379.769531 266.917969 C 381.125 267.4375 382.707031 267.75 384.457031 267.832031 L 384.667969 267.042969 C 383.25 267 381.957031 266.792969 380.792969 266.457031 C 381.792969 265.957031 382.582031 265.332031 383.167969 264.5625 L 383.167969 263.9375 L 377.792969 263.9375 C 378.019531 263.6875 378.207031 263.417969 378.394531 263.125 L 383.144531 263.125 L 383.144531 259.332031 L 376.082031 259.332031 C 376.292969 259.0625 376.480469 258.792969 376.667969 258.5 Z M 379.769531 266.125 C 378.8125 265.75 377.9375 265.25 377.167969 264.644531 L 382.105469 264.644531 C 381.519531 265.230469 380.730469 265.730469 379.769531 266.125 Z M 382.3125 262.4375 L 376.769531 262.4375 L 376.769531 261.542969 L 382.3125 261.542969 Z M 376.769531 260.894531 L 376.769531 260.019531 L 382.3125 260.019531 L 382.3125 260.894531 Z M 376.769531 260.894531 "/>
<path style=" stroke:none;fill-rule:nonzero;fill:rgb(0%,0%,0%);fill-opacity:1;" d="M 387.207031 259.1875 L 388.875 259.1875 L 388.875 260.730469 L 385.980469 260.730469 L 385.980469 261.542969 L 388.875 261.542969 L 388.875 262.8125 L 386.519531 262.8125 L 386.519531 267.125 L 387.355469 267.125 L 387.355469 263.605469 L 388.875 263.605469 L 388.875 267.875 L 389.75 267.875 L 389.75 263.605469 L 391.269531 263.605469 L 391.269531 265.792969 C 391.269531 266.105469 391.082031 266.25 390.75 266.25 L 390.167969 266.230469 L 390.375 267.042969 L 391 267.042969 C 391.730469 267.042969 392.082031 266.6875 392.082031 265.980469 L 392.082031 262.8125 L 389.75 262.8125 L 389.75 261.542969 L 392.332031 261.542969 L 392.332031 260.730469 L 389.75 260.730469 L 389.75 259.1875 L 392 259.1875 L 392 258.394531 L 389.75 258.394531 L 389.75 256.894531 L 388.875 256.894531 L 388.875 258.394531 L 387.5 258.394531 C 387.582031 258.0625 387.667969 257.707031 387.730469 257.332031 L 386.894531 257.207031 C 386.730469 258.332031 386.355469 259.230469 385.75 259.875 L 386.457031 260.375 C 386.730469 260.0625 386.980469 259.667969 387.207031 259.1875 Z M 393.042969 257.980469 L 393.042969 265.394531 L 393.894531 265.394531 L 393.894531 257.980469 Z M 395.25 267.75 C 395.980469 267.75 396.355469 267.375 396.355469 266.625 L 396.355469 256.894531 L 395.5 256.894531 L 395.5 266.417969 C 395.5 266.792969 395.3125 267 394.9375 267 C 394.417969 267 393.875 266.957031 393.292969 266.9375 L 393.480469 267.75 Z M 395.25 267.75 "/>
</g>
</svg>
