<?xml version="1.0" encoding="UTF-8"?>
<svg xmlns="http://www.w3.org/2000/svg" xmlns:xlink="http://www.w3.org/1999/xlink" width="325.333333" height="184" viewBox="0 0 325.333333 184" version="1.1">
<defs>
<clipPath id="clip1">
  <path d="M 17.332031 87 L 23.667969 87 L 23.667969 93 L 17.332031 93 Z M 17.332031 87 "/>
</clipPath>
<clipPath id="clip2">
  <path d="M 302 87 L 308.332031 87 L 308.332031 93 L 302 93 Z M 302 87 "/>
</clipPath>
</defs>
<g id="surface1">
<path style="fill:none;stroke-width:1;stroke-linecap:round;stroke-linejoin:round;stroke:rgb(0%,0%,0%);stroke-opacity:1;stroke-miterlimit:10;" d="M 471.399414 309.254883 L 549.000977 309.254883 L 549.000977 327.254883 L 471.399414 327.254883 Z M 471.399414 309.254883 " transform="matrix(1.333333,0,0,1.333333,-593.333333,-292)"/>
<path style=" stroke:none;fill-rule:nonzero;fill:rgb(0%,0%,0%);fill-opacity:1;" d="M 69.726562 131.527344 L 69.726562 132.300781 L 70.640625 132.300781 L 70.640625 138.089844 L 71.476562 138.089844 L 71.476562 137.445312 L 74.164062 137.445312 L 74.164062 132.300781 L 75.058594 132.300781 L 75.058594 131.527344 L 74.164062 131.527344 L 74.164062 130.339844 L 73.328125 130.339844 L 73.328125 131.527344 L 71.476562 131.527344 L 71.476562 130.320312 L 70.640625 130.320312 L 70.640625 131.527344 Z M 71.476562 136.652344 L 71.476562 134.820312 L 73.328125 134.820312 L 73.328125 136.652344 Z M 73.328125 134.050781 L 71.476562 134.050781 L 71.476562 132.300781 L 73.328125 132.300781 Z M 74.515625 127.257812 L 74.515625 128.945312 L 71.390625 128.945312 L 71.390625 127.652344 L 70.515625 127.652344 L 70.515625 129.714844 L 79.308594 129.714844 L 79.308594 127.632812 L 78.433594 127.632812 L 78.433594 128.945312 L 75.390625 128.945312 L 75.390625 127.257812 Z M 76.121094 130.050781 C 75.933594 131.632812 75.476562 132.882812 74.789062 133.757812 L 75.453125 134.214844 C 75.890625 133.675781 76.246094 132.964844 76.496094 132.113281 L 79.039062 132.113281 C 78.890625 132.777344 78.683594 133.382812 78.453125 133.925781 L 79.203125 134.132812 C 79.476562 133.402344 79.703125 132.632812 79.890625 131.863281 L 79.890625 131.339844 L 76.703125 131.339844 C 76.789062 130.988281 76.871094 130.589844 76.933594 130.175781 Z M 76.996094 132.714844 C 76.996094 133.820312 76.871094 134.738281 76.621094 135.445312 C 76.289062 136.277344 75.601562 136.988281 74.558594 137.550781 L 75.078125 138.214844 C 76.289062 137.527344 77.078125 136.675781 77.414062 135.632812 L 77.433594 135.550781 C 77.996094 136.613281 78.851562 137.507812 79.953125 138.214844 L 80.496094 137.570312 C 79.164062 136.800781 78.226562 135.757812 77.664062 134.445312 C 77.746094 133.902344 77.789062 133.339844 77.789062 132.714844 Z M 76.996094 132.714844 "/>
<path style=" stroke:none;fill-rule:nonzero;fill:rgb(0%,0%,0%);fill-opacity:1;" d="M 86.414062 129.988281 C 85.640625 133.175781 83.976562 135.632812 81.390625 137.300781 L 81.914062 138.050781 C 84.433594 136.402344 86.101562 134.050781 86.890625 130.988281 C 86.953125 131.132812 86.996094 131.300781 87.078125 131.507812 C 88.308594 134.675781 89.890625 136.863281 91.851562 138.027344 L 92.390625 137.339844 C 90.476562 136.152344 88.976562 134.113281 87.851562 131.257812 C 87.121094 129.300781 86.203125 127.945312 85.140625 127.195312 L 84.433594 127.652344 C 85.183594 128.214844 85.851562 128.988281 86.414062 129.988281 Z M 86.414062 129.988281 "/>
<path style=" stroke:none;fill-rule:nonzero;fill:rgb(0%,0%,0%);fill-opacity:1;" d="M 96.828125 131.800781 L 96.828125 132.570312 L 103.328125 132.570312 L 103.328125 131.800781 Z M 95.976562 133.757812 L 95.976562 134.550781 L 98.601562 134.550781 C 97.765625 135.902344 97.058594 136.738281 96.539062 137.050781 C 96.476562 137.070312 96.433594 137.113281 96.351562 137.132812 L 96.539062 137.863281 C 98.808594 137.714844 100.890625 137.507812 102.789062 137.257812 C 103.039062 137.550781 103.246094 137.863281 103.453125 138.175781 L 104.140625 137.695312 C 103.621094 136.925781 102.851562 136.007812 101.871094 134.964844 L 101.226562 135.363281 C 101.578125 135.777344 101.933594 136.175781 102.265625 136.570312 C 100.726562 136.800781 99.164062 136.964844 97.578125 137.070312 C 98.140625 136.570312 98.789062 135.714844 99.515625 134.550781 L 104.121094 134.550781 L 104.121094 133.757812 Z M 102.664062 128.488281 L 102.664062 129.882812 L 95.601562 129.882812 L 95.601562 128.488281 Z M 95.601562 130.652344 L 103.496094 130.652344 L 103.496094 127.675781 L 94.765625 127.675781 L 94.765625 131.652344 C 94.746094 134.070312 94.328125 136.027344 93.496094 137.550781 L 94.121094 138.132812 C 95.101562 136.320312 95.601562 134.152344 95.601562 131.652344 Z M 95.601562 130.652344 "/>
<path style=" stroke:none;fill-rule:nonzero;fill:rgb(0%,0%,0%);fill-opacity:1;" d="M 82.308594 167.238281 L 81.726562 167.800781 C 82.640625 168.464844 83.351562 169.089844 83.890625 169.652344 L 84.476562 169.070312 C 83.890625 168.464844 83.164062 167.863281 82.308594 167.238281 Z M 82.101562 170.175781 L 81.515625 170.738281 C 82.371094 171.382812 83.039062 171.964844 83.515625 172.550781 L 84.101562 171.945312 C 83.558594 171.363281 82.890625 170.777344 82.101562 170.175781 Z M 83.496094 173.425781 C 82.976562 174.839844 82.371094 176.238281 81.640625 177.613281 L 82.453125 177.964844 C 83.101562 176.632812 83.703125 175.214844 84.226562 173.695312 Z M 86.703125 169.382812 L 86.703125 173.589844 L 88.765625 173.589844 L 88.765625 176.777344 C 88.765625 177.089844 88.621094 177.238281 88.351562 177.238281 C 88.058594 177.238281 87.765625 177.214844 87.453125 177.175781 L 87.621094 177.964844 L 88.640625 177.964844 C 89.265625 177.964844 89.578125 177.632812 89.578125 176.988281 L 89.578125 173.589844 L 91.578125 173.589844 L 91.578125 169.382812 L 89.246094 169.382812 C 89.371094 169.027344 89.476562 168.652344 89.558594 168.257812 L 92.203125 168.257812 L 92.203125 167.464844 L 85.015625 167.464844 L 85.015625 171.757812 C 84.976562 174.175781 84.578125 176.050781 83.828125 177.402344 L 84.476562 177.988281 C 85.351562 176.425781 85.808594 174.339844 85.851562 171.757812 L 85.851562 168.257812 L 88.746094 168.257812 C 88.664062 168.632812 88.558594 169.007812 88.414062 169.382812 Z M 90.808594 172.902344 L 87.476562 172.902344 L 87.476562 171.820312 L 90.808594 171.820312 Z M 87.476562 171.175781 L 87.476562 170.070312 L 90.808594 170.070312 L 90.808594 171.175781 Z M 86.996094 174.445312 C 86.746094 175.363281 86.351562 176.195312 85.789062 176.945312 L 86.476562 177.382812 C 87.039062 176.589844 87.453125 175.675781 87.765625 174.613281 Z M 91.078125 174.382812 L 90.371094 174.632812 C 90.828125 175.425781 91.246094 176.339844 91.640625 177.363281 L 92.371094 177.050781 C 92.015625 176.113281 91.578125 175.214844 91.078125 174.382812 Z M 91.078125 174.382812 "/>
<path style="fill:none;stroke-width:1;stroke-linecap:round;stroke-linejoin:round;stroke:rgb(0%,0%,0%);stroke-opacity:1;stroke-miterlimit:10;" d="M 549.000977 286.344727 L 579.499023 286.344727 " transform="matrix(1.333333,0,0,1.333333,-593.333333,-292)"/>
<path style="fill:none;stroke-width:1;stroke-linecap:butt;stroke-linejoin:miter;stroke:rgb(0%,0%,0%);stroke-opacity:1;stroke-miterlimit:10;" d="M 583.500977 286.344727 L 579.499023 286.344727 M 579.499023 284.844727 L 583.500977 286.344727 L 579.499023 287.844727 " transform="matrix(1.333333,0,0,1.333333,-593.333333,-292)"/>
<path style="fill:none;stroke-width:1;stroke-linecap:round;stroke-linejoin:round;stroke:rgb(0%,0%,0%);stroke-opacity:1;stroke-miterlimit:10;" d="M 510.200195 339.600586 L 510.200195 333.155273 " transform="matrix(1.333333,0,0,1.333333,-593.333333,-292)"/>
<path style="fill:none;stroke-width:1;stroke-linecap:butt;stroke-linejoin:miter;stroke:rgb(0%,0%,0%);stroke-opacity:1;stroke-miterlimit:10;" d="M 510.200195 329.15625 L 510.200195 333.155273 M 508.700195 333.155273 L 510.200195 329.15625 L 511.700195 333.155273 " transform="matrix(1.333333,0,0,1.333333,-593.333333,-292)"/>
<path style=" stroke:none;fill-rule:nonzero;fill:rgb(0%,0%,0%);fill-opacity:1;" d="M 73.214844 18.644531 C 72.359375 19.082031 71.359375 19.417969 70.234375 19.667969 L 70.339844 20.519531 C 71.421875 20.25 72.382812 19.894531 73.214844 19.457031 Z M 71.984375 10.167969 C 71.546875 11.5625 71.027344 12.792969 70.421875 13.875 C 70.339844 14.019531 70.214844 14.125 70.089844 14.1875 L 70.296875 14.957031 C 70.945312 14.855469 71.570312 14.75 72.214844 14.625 C 71.589844 15.730469 71.070312 16.5 70.652344 16.957031 C 70.546875 17.0625 70.402344 17.144531 70.257812 17.207031 L 70.484375 17.980469 C 71.464844 17.832031 72.484375 17.582031 73.570312 17.230469 L 73.570312 16.457031 C 72.882812 16.707031 72.195312 16.894531 71.507812 17.042969 C 72.152344 16.230469 72.984375 14.855469 73.984375 12.917969 L 73.234375 12.625 C 73.027344 13.0625 72.796875 13.480469 72.609375 13.855469 C 72.109375 13.957031 71.589844 14.042969 71.070312 14.125 C 71.652344 13.230469 72.234375 12 72.796875 10.480469 Z M 79.839844 21.167969 C 80.382812 21.167969 80.652344 20.875 80.652344 20.332031 L 80.652344 15.5 L 75.171875 15.5 L 75.171875 21.207031 L 75.882812 21.207031 L 75.882812 18.542969 L 76.820312 18.542969 L 76.820312 21 L 77.464844 21 L 77.464844 18.542969 L 78.339844 18.542969 L 78.339844 21 L 78.964844 21 L 78.964844 18.542969 L 79.945312 18.542969 L 79.945312 20.144531 C 79.945312 20.394531 79.820312 20.519531 79.609375 20.519531 L 79.132812 20.5 L 79.320312 21.167969 Z M 75.882812 17.8125 L 75.882812 16.25 L 76.820312 16.25 L 76.820312 17.8125 Z M 77.464844 16.25 L 78.339844 16.25 L 78.339844 17.8125 L 77.464844 17.8125 Z M 78.964844 16.25 L 79.945312 16.25 L 79.945312 17.8125 L 78.964844 17.8125 Z M 79.820312 12.167969 L 79.820312 13.707031 L 75.132812 13.707031 L 75.132812 12.167969 Z M 75.132812 14.457031 L 80.609375 14.457031 L 80.609375 11.417969 L 77.902344 11.417969 C 77.757812 10.9375 77.609375 10.5 77.445312 10.144531 L 76.546875 10.269531 C 76.734375 10.625 76.902344 11 77.070312 11.417969 L 74.339844 11.417969 L 74.339844 14.332031 C 74.320312 16.894531 73.839844 19 72.882812 20.644531 L 73.507812 21.1875 C 74.546875 19.3125 75.089844 17.0625 75.132812 14.457031 Z M 75.132812 14.457031 "/>
<path style=" stroke:none;fill-rule:nonzero;fill:rgb(0%,0%,0%);fill-opacity:1;" d="M 86.132812 14.417969 L 83.921875 14.417969 C 84.234375 13.5625 84.464844 12.667969 84.632812 11.707031 L 86.445312 11.707031 L 86.445312 10.875 L 82.339844 10.875 L 82.339844 11.707031 L 83.820312 11.707031 C 83.527344 13.5 82.921875 15.082031 82.007812 16.480469 L 82.445312 17.1875 C 82.734375 16.769531 82.984375 16.355469 83.234375 15.917969 L 83.234375 20.8125 L 84.046875 20.8125 L 84.046875 19.894531 L 85.339844 19.894531 L 85.339844 20.582031 L 86.132812 20.582031 Z M 84.046875 19.105469 L 84.046875 15.207031 L 85.339844 15.207031 L 85.339844 19.105469 Z M 87.734375 12.355469 L 87.089844 16.25 L 91.945312 16.25 C 91.945312 18.167969 91.839844 19.332031 91.652344 19.730469 C 91.484375 20.125 90.921875 20.332031 90.007812 20.332031 C 89.777344 20.332031 89.421875 20.292969 88.882812 20.25 L 89.132812 21.082031 C 89.507812 21.125 89.859375 21.125 90.214844 21.125 C 91.257812 21.125 91.945312 20.894531 92.277344 20.457031 C 92.589844 20.019531 92.757812 18.355469 92.757812 15.4375 L 91.484375 15.4375 L 92.152344 10.707031 L 86.984375 10.707031 L 86.984375 11.519531 L 91.214844 11.519531 L 90.609375 15.4375 L 88.070312 15.4375 L 88.589844 12.417969 Z M 86.734375 17.769531 L 86.734375 18.582031 L 91.109375 18.582031 L 91.109375 17.769531 Z M 86.734375 17.769531 "/>
<path style=" stroke:none;fill-rule:nonzero;fill:rgb(0%,0%,0%);fill-opacity:1;" d="M 95.277344 10.644531 L 95.277344 13.5625 L 98.921875 13.5625 L 98.921875 10.644531 Z M 98.132812 12.832031 L 96.046875 12.832031 L 96.046875 11.394531 L 98.132812 11.394531 Z M 100.257812 10.644531 L 100.257812 13.5625 L 103.984375 13.5625 L 103.984375 10.644531 Z M 103.214844 12.832031 L 101.046875 12.832031 L 101.046875 11.394531 L 103.214844 11.394531 Z M 94.296875 14.769531 L 94.296875 15.542969 L 97.609375 15.542969 C 96.777344 16.25 95.589844 16.855469 94.046875 17.292969 L 94.445312 18 C 94.796875 17.894531 95.109375 17.792969 95.445312 17.667969 L 95.445312 21.207031 L 96.195312 21.207031 L 96.195312 20.6875 L 98.234375 20.6875 L 98.234375 21.207031 L 99.007812 21.207031 L 99.007812 17.4375 L 96.007812 17.4375 C 97.132812 16.9375 98.027344 16.3125 98.695312 15.542969 L 100.734375 15.542969 C 101.339844 16.269531 102.214844 16.894531 103.359375 17.4375 L 100.171875 17.4375 L 100.171875 21.207031 L 100.945312 21.207031 L 100.945312 20.6875 L 103.171875 20.6875 L 103.171875 21.207031 L 103.945312 21.207031 L 103.945312 17.6875 C 104.214844 17.769531 104.484375 17.894531 104.777344 17.980469 L 105.132812 17.25 C 103.589844 16.832031 102.421875 16.25 101.632812 15.542969 L 104.882812 15.542969 L 104.882812 14.769531 L 103.234375 14.769531 C 103.027344 14.394531 102.820312 14.042969 102.570312 13.707031 L 101.839844 13.957031 C 102.027344 14.1875 102.214844 14.457031 102.382812 14.769531 L 99.277344 14.769531 C 99.445312 14.480469 99.609375 14.1875 99.714844 13.875 L 98.902344 13.792969 C 98.757812 14.125 98.570312 14.457031 98.339844 14.769531 Z M 96.195312 19.957031 L 96.195312 18.144531 L 98.234375 18.144531 L 98.234375 19.957031 Z M 100.945312 19.957031 L 100.945312 18.144531 L 103.171875 18.144531 L 103.171875 19.957031 Z M 100.945312 19.957031 "/>
<path style=" stroke:none;fill-rule:nonzero;fill:rgb(0%,0%,0%);fill-opacity:1;" d="M 226.589844 16.644531 L 228.007812 16.644531 L 228.007812 18.105469 L 225.402344 18.105469 L 225.402344 18.875 L 228.007812 18.875 L 228.007812 21.230469 L 228.839844 21.230469 L 228.839844 18.875 L 230.882812 18.875 L 230.882812 18.105469 L 228.839844 18.105469 L 228.839844 16.644531 L 230.632812 16.644531 L 230.632812 15.855469 L 228.839844 15.855469 L 228.839844 14.75 L 228.007812 14.75 L 228.007812 15.855469 L 226.902344 15.855469 C 226.988281 15.582031 227.050781 15.292969 227.113281 14.957031 L 226.402344 14.832031 C 226.214844 15.792969 225.882812 16.542969 225.339844 17.125 L 225.839844 17.730469 C 226.132812 17.417969 226.382812 17.0625 226.589844 16.644531 Z M 227.089844 11.6875 C 227.007812 12.082031 226.863281 12.4375 226.695312 12.75 C 226.425781 13.167969 226.007812 13.5625 225.488281 13.875 L 225.988281 14.519531 C 226.589844 14.125 227.070312 13.644531 227.382812 13.144531 C 227.613281 12.730469 227.777344 12.230469 227.902344 11.6875 L 229.675781 11.6875 C 229.632812 12.542969 229.589844 13.082031 229.527344 13.292969 C 229.445312 13.5 229.238281 13.605469 228.902344 13.625 C 228.613281 13.605469 228.277344 13.582031 227.863281 13.5625 L 228.070312 14.269531 C 228.445312 14.292969 228.800781 14.332031 229.070312 14.332031 C 229.589844 14.332031 229.945312 14.144531 230.175781 13.855469 C 230.382812 13.519531 230.488281 12.542969 230.488281 10.917969 L 225.488281 10.917969 L 225.488281 11.6875 Z M 221.425781 16.019531 L 222.507812 16.019531 L 222.507812 17.582031 L 221.402344 17.582031 C 221.402344 17.5 221.425781 17.417969 221.425781 17.3125 Z M 221.382812 18.3125 L 222.507812 18.3125 L 222.507812 21.042969 L 223.214844 21.042969 L 223.214844 18.3125 L 224.320312 18.3125 L 224.320312 19.980469 C 224.320312 20.269531 224.195312 20.4375 223.925781 20.4375 C 223.738281 20.4375 223.527344 20.417969 223.300781 20.375 L 223.507812 21.105469 L 224.175781 21.105469 C 224.757812 21.105469 225.050781 20.8125 225.050781 20.25 L 225.050781 13.042969 L 223.613281 13.042969 C 223.882812 12.6875 224.152344 12.230469 224.425781 11.6875 L 224.425781 11.105469 L 222.277344 11.105469 C 222.382812 10.855469 222.488281 10.582031 222.589844 10.332031 L 221.800781 10.144531 C 221.339844 11.394531 220.757812 12.394531 220.027344 13.167969 L 220.550781 13.8125 C 220.589844 13.75 220.632812 13.730469 220.675781 13.667969 L 220.675781 17.355469 C 220.675781 18.730469 220.425781 19.875 219.964844 20.75 L 220.550781 21.292969 C 220.988281 20.5 221.257812 19.5 221.382812 18.3125 Z M 222.738281 13.042969 L 221.175781 13.042969 C 221.445312 12.667969 221.714844 12.25 221.945312 11.8125 L 223.507812 11.8125 C 223.238281 12.269531 222.988281 12.6875 222.738281 13.042969 Z M 224.320312 17.582031 L 223.214844 17.582031 L 223.214844 16.019531 L 224.320312 16.019531 Z M 224.320312 15.292969 L 223.214844 15.292969 L 223.214844 13.792969 L 224.320312 13.792969 Z M 222.507812 13.792969 L 222.507812 15.292969 L 221.425781 15.292969 L 221.425781 13.792969 Z M 222.507812 13.792969 "/>
<path style=" stroke:none;fill-rule:nonzero;fill:rgb(0%,0%,0%);fill-opacity:1;" d="M 236.007812 14.417969 L 233.800781 14.417969 C 234.113281 13.5625 234.339844 12.667969 234.507812 11.707031 L 236.320312 11.707031 L 236.320312 10.875 L 232.214844 10.875 L 232.214844 11.707031 L 233.695312 11.707031 C 233.402344 13.5 232.800781 15.082031 231.882812 16.480469 L 232.320312 17.1875 C 232.613281 16.769531 232.863281 16.355469 233.113281 15.917969 L 233.113281 20.8125 L 233.925781 20.8125 L 233.925781 19.894531 L 235.214844 19.894531 L 235.214844 20.582031 L 236.007812 20.582031 Z M 233.925781 19.105469 L 233.925781 15.207031 L 235.214844 15.207031 L 235.214844 19.105469 Z M 237.613281 12.355469 L 236.964844 16.25 L 241.820312 16.25 C 241.820312 18.167969 241.714844 19.332031 241.527344 19.730469 C 241.363281 20.125 240.800781 20.332031 239.882812 20.332031 C 239.652344 20.332031 239.300781 20.292969 238.757812 20.25 L 239.007812 21.082031 C 239.382812 21.125 239.738281 21.125 240.089844 21.125 C 241.132812 21.125 241.820312 20.894531 242.152344 20.457031 C 242.464844 20.019531 242.632812 18.355469 242.632812 15.4375 L 241.363281 15.4375 L 242.027344 10.707031 L 236.863281 10.707031 L 236.863281 11.519531 L 241.089844 11.519531 L 240.488281 15.4375 L 237.945312 15.4375 L 238.464844 12.417969 Z M 236.613281 17.769531 L 236.613281 18.582031 L 240.988281 18.582031 L 240.988281 17.769531 Z M 236.613281 17.769531 "/>
<path style=" stroke:none;fill-rule:nonzero;fill:rgb(0%,0%,0%);fill-opacity:1;" d="M 245.152344 10.644531 L 245.152344 13.5625 L 248.800781 13.5625 L 248.800781 10.644531 Z M 248.007812 12.832031 L 245.925781 12.832031 L 245.925781 11.394531 L 248.007812 11.394531 Z M 250.132812 10.644531 L 250.132812 13.5625 L 253.863281 13.5625 L 253.863281 10.644531 Z M 253.089844 12.832031 L 250.925781 12.832031 L 250.925781 11.394531 L 253.089844 11.394531 Z M 244.175781 14.769531 L 244.175781 15.542969 L 247.488281 15.542969 C 246.652344 16.25 245.464844 16.855469 243.925781 17.292969 L 244.320312 18 C 244.675781 17.894531 244.988281 17.792969 245.320312 17.667969 L 245.320312 21.207031 L 246.070312 21.207031 L 246.070312 20.6875 L 248.113281 20.6875 L 248.113281 21.207031 L 248.882812 21.207031 L 248.882812 17.4375 L 245.882812 17.4375 C 247.007812 16.9375 247.902344 16.3125 248.570312 15.542969 L 250.613281 15.542969 C 251.214844 16.269531 252.089844 16.894531 253.238281 17.4375 L 250.050781 17.4375 L 250.050781 21.207031 L 250.820312 21.207031 L 250.820312 20.6875 L 253.050781 20.6875 L 253.050781 21.207031 L 253.820312 21.207031 L 253.820312 17.6875 C 254.089844 17.769531 254.363281 17.894531 254.652344 17.980469 L 255.007812 17.25 C 253.464844 16.832031 252.300781 16.25 251.507812 15.542969 L 254.757812 15.542969 L 254.757812 14.769531 L 253.113281 14.769531 C 252.902344 14.394531 252.695312 14.042969 252.445312 13.707031 L 251.714844 13.957031 C 251.902344 14.1875 252.089844 14.457031 252.257812 14.769531 L 249.152344 14.769531 C 249.320312 14.480469 249.488281 14.1875 249.589844 13.875 L 248.777344 13.792969 C 248.632812 14.125 248.445312 14.457031 248.214844 14.769531 Z M 246.070312 19.957031 L 246.070312 18.144531 L 248.113281 18.144531 L 248.113281 19.957031 Z M 250.820312 19.957031 L 250.820312 18.144531 L 253.050781 18.144531 L 253.050781 19.957031 Z M 250.820312 19.957031 "/>
<path style=" stroke:none;fill-rule:nonzero;fill:rgb(69.803923%,85.09804%,100%);fill-opacity:1;" d="M 35.199219 101.792969 L 138.667969 101.792969 L 138.667969 77.792969 L 35.199219 77.792969 Z M 35.199219 101.792969 "/>
<path style="fill:none;stroke-width:1;stroke-linecap:round;stroke-linejoin:round;stroke:rgb(0%,0%,0%);stroke-opacity:1;stroke-miterlimit:10;" d="M 471.399414 277.344727 L 549.000977 277.344727 L 549.000977 295.344727 L 471.399414 295.344727 Z M 471.399414 277.344727 " transform="matrix(1.333333,0,0,1.333333,-593.333333,-292)"/>
<path style=" stroke:none;fill-rule:nonzero;fill:rgb(0%,0%,0%);fill-opacity:1;" d="M 79.539062 84.773438 C 77.703125 85.1875 75.640625 85.417969 73.371094 85.4375 L 73.371094 90.085938 C 73.308594 92.1875 72.953125 93.8125 72.289062 95 L 72.890625 95.648438 C 73.703125 94.25 74.121094 92.417969 74.183594 90.085938 L 74.183594 87.917969 L 76.933594 87.917969 L 76.828125 89.023438 L 74.914062 89.023438 L 74.914062 95.648438 L 75.726562 95.648438 L 75.726562 94.898438 L 78.933594 94.898438 L 78.933594 95.667969 L 79.746094 95.667969 L 79.746094 89.023438 L 77.664062 89.023438 C 77.703125 88.667969 77.746094 88.3125 77.789062 87.917969 L 80.246094 87.917969 L 80.246094 87.148438 L 77.851562 87.148438 L 77.890625 86.292969 L 77.039062 86.167969 L 76.996094 87.148438 L 74.183594 87.148438 L 74.183594 86.148438 C 76.308594 86.105469 78.226562 85.875 79.953125 85.5 Z M 75.726562 94.167969 L 75.726562 93.105469 L 78.933594 93.105469 L 78.933594 94.167969 Z M 75.726562 92.4375 L 75.726562 91.417969 L 78.933594 91.417969 L 78.933594 92.4375 Z M 75.726562 90.75 L 75.726562 89.75 L 78.933594 89.75 L 78.933594 90.75 Z M 71.914062 84.8125 C 71.433594 85.917969 70.640625 86.898438 69.578125 87.75 L 69.828125 88.605469 C 71.140625 87.605469 72.078125 86.460938 72.664062 85.167969 Z M 72.140625 87.835938 C 71.578125 89 70.683594 90.0625 69.433594 90.980469 L 69.683594 91.8125 C 70.101562 91.5 70.496094 91.1875 70.871094 90.855469 L 70.871094 95.605469 L 71.703125 95.605469 L 71.703125 90 C 72.183594 89.4375 72.578125 88.835938 72.890625 88.1875 Z M 72.140625 87.835938 "/>
<path style=" stroke:none;fill-rule:nonzero;fill:rgb(0%,0%,0%);fill-opacity:1;" d="M 90.164062 88.5 L 89.496094 88.917969 C 90.476562 90.148438 91.246094 91.25 91.828125 92.25 L 92.558594 91.75 C 91.996094 90.8125 91.183594 89.75 90.164062 88.5 Z M 81.765625 89.023438 L 81.765625 89.855469 L 83.101562 89.855469 L 83.101562 92.9375 C 82.539062 93.085938 81.996094 93.210938 81.433594 93.292969 L 81.640625 94.125 C 83.039062 93.8125 84.328125 93.417969 85.539062 92.960938 L 85.539062 92.125 C 85.015625 92.335938 84.476562 92.523438 83.933594 92.6875 L 83.933594 89.855469 L 85.308594 89.855469 L 85.308594 89.023438 L 83.933594 89.023438 L 83.933594 86.4375 L 85.476562 86.4375 L 85.476562 85.585938 L 81.578125 85.585938 L 81.578125 86.4375 L 83.101562 86.4375 L 83.101562 89.023438 Z M 85.953125 85.25 L 85.953125 86.085938 L 89.039062 86.085938 C 88.351562 88.273438 87.140625 90.148438 85.390625 91.710938 L 85.914062 92.375 C 86.953125 91.460938 87.808594 90.417969 88.496094 89.25 L 88.496094 95.648438 L 89.351562 95.648438 L 89.351562 87.605469 C 89.558594 87.105469 89.726562 86.605469 89.890625 86.085938 L 92.039062 86.085938 L 92.039062 85.25 Z M 85.953125 85.25 "/>
<path style=" stroke:none;fill-rule:nonzero;fill:rgb(0%,0%,0%);fill-opacity:1;" d="M 96.828125 89.25 L 96.828125 90.023438 L 103.328125 90.023438 L 103.328125 89.25 Z M 95.976562 91.210938 L 95.976562 92 L 98.601562 92 C 97.765625 93.355469 97.058594 94.1875 96.539062 94.5 C 96.476562 94.523438 96.433594 94.5625 96.351562 94.585938 L 96.539062 95.3125 C 98.808594 95.167969 100.890625 94.960938 102.789062 94.710938 C 103.039062 95 103.246094 95.3125 103.453125 95.625 L 104.140625 95.148438 C 103.621094 94.375 102.851562 93.460938 101.871094 92.417969 L 101.226562 92.8125 C 101.578125 93.230469 101.933594 93.625 102.265625 94.023438 C 100.726562 94.25 99.164062 94.417969 97.578125 94.523438 C 98.140625 94.023438 98.789062 93.167969 99.515625 92 L 104.121094 92 L 104.121094 91.210938 Z M 102.664062 85.9375 L 102.664062 87.335938 L 95.601562 87.335938 L 95.601562 85.9375 Z M 95.601562 88.105469 L 103.496094 88.105469 L 103.496094 85.125 L 94.765625 85.125 L 94.765625 89.105469 C 94.746094 91.523438 94.328125 93.480469 93.496094 95 L 94.121094 95.585938 C 95.101562 93.773438 95.601562 91.605469 95.601562 89.105469 Z M 95.601562 88.105469 "/>
<path style=" stroke:none;fill-rule:nonzero;fill:rgb(0%,0%,0%);fill-opacity:1;" d="M 13.253906 91.730469 C 13.171875 91.835938 13.085938 91.9375 13.003906 92.042969 C 12.648438 92.480469 12.441406 92.667969 12.273438 92.667969 C 12.128906 92.667969 12.085938 92.5625 12.085938 92.460938 C 12.085938 92.355469 12.128906 92.148438 12.253906 91.730469 L 12.921875 89.292969 C 12.984375 89.042969 13.046875 88.773438 13.046875 88.5625 C 13.046875 88.125 12.773438 87.835938 12.253906 87.835938 C 11.484375 87.835938 10.691406 88.5625 9.484375 90.480469 L 10.296875 87.855469 L 10.234375 87.835938 C 9.609375 87.960938 9.273438 88.023438 8.296875 88.210938 L 8.296875 88.398438 C 8.898438 88.417969 9.085938 88.480469 9.085938 88.730469 C 9.085938 88.792969 9.066406 88.875 9.046875 88.917969 L 7.898438 93.125 L 8.796875 93.125 C 9.359375 91.230469 9.460938 90.960938 10.003906 90.148438 C 10.753906 89.042969 11.296875 88.4375 11.773438 88.4375 C 11.960938 88.4375 12.066406 88.585938 12.066406 88.792969 C 12.066406 88.9375 11.984375 89.375 11.898438 89.75 L 11.378906 91.6875 C 11.191406 92.3125 11.171875 92.460938 11.171875 92.585938 C 11.171875 93.042969 11.441406 93.230469 11.734375 93.230469 C 12.296875 93.230469 12.609375 93 13.421875 91.875 Z M 13.253906 91.730469 "/>
<g clip-path="url(#clip1)" clip-rule="nonzero">
<path style=" stroke:none;fill-rule:nonzero;fill:rgb(0%,0%,0%);fill-opacity:1;" d="M 20.816406 89.984375 L 23.191406 87.609375 C 23.316406 87.460938 23.359375 87.441406 23.359375 87.359375 C 23.359375 87.210938 23.234375 87.109375 23.109375 87.109375 C 23.023438 87.109375 22.960938 87.148438 22.859375 87.273438 L 20.460938 89.648438 L 18.066406 87.273438 C 17.941406 87.128906 17.898438 87.109375 17.816406 87.109375 C 17.691406 87.109375 17.566406 87.210938 17.566406 87.359375 C 17.566406 87.441406 17.628906 87.503906 17.734375 87.609375 L 20.109375 89.984375 L 17.734375 92.378906 C 17.609375 92.484375 17.566406 92.566406 17.566406 92.628906 C 17.566406 92.773438 17.691406 92.878906 17.816406 92.878906 C 17.898438 92.878906 17.941406 92.859375 18.066406 92.710938 L 20.460938 90.335938 L 22.859375 92.710938 C 22.960938 92.835938 23.046875 92.878906 23.109375 92.878906 C 23.253906 92.878906 23.359375 92.773438 23.359375 92.628906 C 23.359375 92.546875 23.316406 92.523438 23.191406 92.378906 Z M 20.816406 89.984375 "/>
<path style=" stroke:none;fill-rule:nonzero;fill:rgb(0%,0%,0%);fill-opacity:1;" d="M 20.816406 89.984375 L 23.191406 87.609375 C 23.316406 87.460938 23.359375 87.441406 23.359375 87.359375 C 23.359375 87.210938 23.234375 87.109375 23.109375 87.109375 C 23.023438 87.109375 22.960938 87.148438 22.859375 87.273438 L 20.460938 89.648438 L 18.066406 87.273438 C 17.941406 87.128906 17.898438 87.109375 17.816406 87.109375 C 17.691406 87.109375 17.566406 87.210938 17.566406 87.359375 C 17.566406 87.441406 17.628906 87.503906 17.734375 87.609375 L 20.109375 89.984375 L 17.734375 92.378906 C 17.609375 92.484375 17.566406 92.566406 17.566406 92.628906 C 17.566406 92.773438 17.691406 92.878906 17.816406 92.878906 C 17.898438 92.878906 17.941406 92.859375 18.066406 92.710938 L 20.460938 90.335938 L 22.859375 92.710938 C 22.960938 92.835938 23.046875 92.878906 23.109375 92.878906 C 23.253906 92.878906 23.359375 92.773438 23.359375 92.628906 C 23.359375 92.546875 23.316406 92.523438 23.191406 92.378906 Z M 20.816406 89.984375 "/>
</g>
<path style="fill:none;stroke-width:1;stroke-linecap:round;stroke-linejoin:round;stroke:rgb(0%,0%,0%);stroke-opacity:1;stroke-miterlimit:10;" d="M 510.200195 309.254883 L 510.200195 301.245117 " transform="matrix(1.333333,0,0,1.333333,-593.333333,-292)"/>
<path style="fill:none;stroke-width:1;stroke-linecap:butt;stroke-linejoin:miter;stroke:rgb(0%,0%,0%);stroke-opacity:1;stroke-miterlimit:10;" d="M 510.200195 297.246094 L 510.200195 301.245117 M 508.700195 301.245117 L 510.200195 297.246094 L 511.700195 301.245117 " transform="matrix(1.333333,0,0,1.333333,-593.333333,-292)"/>
<path style="fill:none;stroke-width:1;stroke-linecap:round;stroke-linejoin:round;stroke:rgb(0%,0%,0%);stroke-opacity:1;stroke-miterlimit:10;" d="M 585.399414 309.254883 L 663.000977 309.254883 L 663.000977 327.254883 L 585.399414 327.254883 Z M 585.399414 309.254883 " transform="matrix(1.333333,0,0,1.333333,-593.333333,-292)"/>
<path style=" stroke:none;fill-rule:nonzero;fill:rgb(0%,0%,0%);fill-opacity:1;" d="M 221.726562 131.527344 L 221.726562 132.300781 L 222.640625 132.300781 L 222.640625 138.089844 L 223.476562 138.089844 L 223.476562 137.445312 L 226.164062 137.445312 L 226.164062 132.300781 L 227.058594 132.300781 L 227.058594 131.527344 L 226.164062 131.527344 L 226.164062 130.339844 L 225.328125 130.339844 L 225.328125 131.527344 L 223.476562 131.527344 L 223.476562 130.320312 L 222.640625 130.320312 L 222.640625 131.527344 Z M 223.476562 136.652344 L 223.476562 134.820312 L 225.328125 134.820312 L 225.328125 136.652344 Z M 225.328125 134.050781 L 223.476562 134.050781 L 223.476562 132.300781 L 225.328125 132.300781 Z M 226.515625 127.257812 L 226.515625 128.945312 L 223.390625 128.945312 L 223.390625 127.652344 L 222.515625 127.652344 L 222.515625 129.714844 L 231.308594 129.714844 L 231.308594 127.632812 L 230.433594 127.632812 L 230.433594 128.945312 L 227.390625 128.945312 L 227.390625 127.257812 Z M 228.121094 130.050781 C 227.933594 131.632812 227.476562 132.882812 226.789062 133.757812 L 227.453125 134.214844 C 227.890625 133.675781 228.246094 132.964844 228.496094 132.113281 L 231.039062 132.113281 C 230.890625 132.777344 230.683594 133.382812 230.453125 133.925781 L 231.203125 134.132812 C 231.476562 133.402344 231.703125 132.632812 231.890625 131.863281 L 231.890625 131.339844 L 228.703125 131.339844 C 228.789062 130.988281 228.871094 130.589844 228.933594 130.175781 Z M 228.996094 132.714844 C 228.996094 133.820312 228.871094 134.738281 228.621094 135.445312 C 228.289062 136.277344 227.601562 136.988281 226.558594 137.550781 L 227.078125 138.214844 C 228.289062 137.527344 229.078125 136.675781 229.414062 135.632812 L 229.433594 135.550781 C 229.996094 136.613281 230.851562 137.507812 231.953125 138.214844 L 232.496094 137.570312 C 231.164062 136.800781 230.226562 135.757812 229.664062 134.445312 C 229.746094 133.902344 229.789062 133.339844 229.789062 132.714844 Z M 228.996094 132.714844 "/>
<path style=" stroke:none;fill-rule:nonzero;fill:rgb(0%,0%,0%);fill-opacity:1;" d="M 238.414062 129.988281 C 237.640625 133.175781 235.976562 135.632812 233.390625 137.300781 L 233.914062 138.050781 C 236.433594 136.402344 238.101562 134.050781 238.890625 130.988281 C 238.953125 131.132812 238.996094 131.300781 239.078125 131.507812 C 240.308594 134.675781 241.890625 136.863281 243.851562 138.027344 L 244.390625 137.339844 C 242.476562 136.152344 240.976562 134.113281 239.851562 131.257812 C 239.121094 129.300781 238.203125 127.945312 237.140625 127.195312 L 236.433594 127.652344 C 237.183594 128.214844 237.851562 128.988281 238.414062 129.988281 Z M 238.414062 129.988281 "/>
<path style=" stroke:none;fill-rule:nonzero;fill:rgb(0%,0%,0%);fill-opacity:1;" d="M 248.828125 131.800781 L 248.828125 132.570312 L 255.328125 132.570312 L 255.328125 131.800781 Z M 247.976562 133.757812 L 247.976562 134.550781 L 250.601562 134.550781 C 249.765625 135.902344 249.058594 136.738281 248.539062 137.050781 C 248.476562 137.070312 248.433594 137.113281 248.351562 137.132812 L 248.539062 137.863281 C 250.808594 137.714844 252.890625 137.507812 254.789062 137.257812 C 255.039062 137.550781 255.246094 137.863281 255.453125 138.175781 L 256.140625 137.695312 C 255.621094 136.925781 254.851562 136.007812 253.871094 134.964844 L 253.226562 135.363281 C 253.578125 135.777344 253.933594 136.175781 254.265625 136.570312 C 252.726562 136.800781 251.164062 136.964844 249.578125 137.070312 C 250.140625 136.570312 250.789062 135.714844 251.515625 134.550781 L 256.121094 134.550781 L 256.121094 133.757812 Z M 254.664062 128.488281 L 254.664062 129.882812 L 247.601562 129.882812 L 247.601562 128.488281 Z M 247.601562 130.652344 L 255.496094 130.652344 L 255.496094 127.675781 L 246.765625 127.675781 L 246.765625 131.652344 C 246.746094 134.070312 246.328125 136.027344 245.496094 137.550781 L 246.121094 138.132812 C 247.101562 136.320312 247.601562 134.152344 247.601562 131.652344 Z M 247.601562 130.652344 "/>
<path style=" stroke:none;fill-rule:nonzero;fill:rgb(0%,0%,0%);fill-opacity:1;" d="M 236.976562 167.589844 L 228.914062 167.589844 L 228.914062 178.007812 L 229.789062 178.007812 L 229.789062 177.214844 L 236.101562 177.214844 L 236.101562 177.988281 L 236.976562 177.988281 Z M 229.789062 176.363281 L 229.789062 174.113281 L 236.101562 174.113281 L 236.101562 176.363281 Z M 229.789062 173.320312 L 229.789062 171.214844 L 236.101562 171.214844 L 236.101562 173.320312 Z M 229.789062 170.425781 L 229.789062 168.425781 L 236.101562 168.425781 L 236.101562 170.425781 Z M 229.789062 170.425781 "/>
<path style=" stroke:none;fill-rule:nonzero;fill:rgb(0%,0%,0%);fill-opacity:1;" d="M 241.226562 167.027344 L 241.226562 169.300781 L 239.765625 169.300781 L 239.765625 170.132812 L 241.226562 170.132812 C 240.851562 171.632812 240.246094 172.988281 239.371094 174.175781 L 239.746094 175.113281 C 240.351562 174.175781 240.851562 173.132812 241.226562 172.007812 L 241.226562 177.988281 L 242.078125 177.988281 L 242.078125 171.964844 C 242.433594 172.425781 242.851562 173.027344 243.351562 173.777344 L 243.851562 173.050781 C 243.246094 172.320312 242.664062 171.652344 242.078125 171.050781 L 242.078125 170.132812 L 243.476562 170.132812 L 243.476562 169.300781 L 242.078125 169.300781 L 242.078125 167.027344 Z M 244.765625 172.445312 C 244.433594 173.945312 243.890625 175.277344 243.140625 176.507812 L 243.890625 176.988281 C 244.601562 175.757812 245.183594 174.320312 245.558594 172.632812 Z M 249.101562 172.402344 L 248.328125 172.652344 C 248.789062 173.945312 249.226562 175.425781 249.621094 177.089844 L 250.414062 176.738281 C 250.039062 175.195312 249.621094 173.757812 249.101562 172.402344 Z M 246.414062 177.863281 C 247.121094 177.863281 247.476562 177.507812 247.476562 176.800781 L 247.476562 171.464844 L 250.414062 171.464844 L 250.414062 170.632812 L 243.683594 170.632812 L 243.683594 171.464844 L 246.621094 171.464844 L 246.621094 176.589844 C 246.621094 176.925781 246.453125 177.113281 246.121094 177.113281 C 245.765625 177.113281 245.414062 177.089844 245.039062 177.070312 L 245.203125 177.863281 Z M 244.328125 167.714844 L 244.328125 168.527344 L 249.789062 168.527344 L 249.789062 167.714844 Z M 244.328125 167.714844 "/>
<path style="fill:none;stroke-width:1;stroke-linecap:round;stroke-linejoin:round;stroke:rgb(0%,0%,0%);stroke-opacity:1;stroke-miterlimit:10;" d="M 624.200195 339.600586 L 624.200195 333.155273 " transform="matrix(1.333333,0,0,1.333333,-593.333333,-292)"/>
<path style="fill:none;stroke-width:1;stroke-linecap:butt;stroke-linejoin:miter;stroke:rgb(0%,0%,0%);stroke-opacity:1;stroke-miterlimit:10;" d="M 624.200195 329.15625 L 624.200195 333.155273 M 622.700195 333.155273 L 624.200195 329.15625 L 625.700195 333.155273 " transform="matrix(1.333333,0,0,1.333333,-593.333333,-292)"/>
<path style="fill:none;stroke-width:1;stroke-linecap:round;stroke-linejoin:round;stroke:rgb(0%,0%,0%);stroke-opacity:1;stroke-miterlimit:10;" d="M 624.200195 309.254883 L 624.200195 301.245117 " transform="matrix(1.333333,0,0,1.333333,-593.333333,-292)"/>
<path style="fill:none;stroke-width:1;stroke-linecap:butt;stroke-linejoin:miter;stroke:rgb(0%,0%,0%);stroke-opacity:1;stroke-miterlimit:10;" d="M 624.200195 297.246094 L 624.200195 301.245117 M 622.700195 301.245117 L 624.200195 297.246094 L 625.700195 301.245117 " transform="matrix(1.333333,0,0,1.333333,-593.333333,-292)"/>
<path style=" stroke:none;fill-rule:nonzero;fill:rgb(69.803923%,85.09804%,100%);fill-opacity:1;" d="M 187.199219 101.792969 L 290.667969 101.792969 L 290.667969 77.792969 L 187.199219 77.792969 Z M 187.199219 101.792969 "/>
<path style="fill:none;stroke-width:1;stroke-linecap:round;stroke-linejoin:round;stroke:rgb(0%,0%,0%);stroke-opacity:1;stroke-miterlimit:10;" d="M 585.399414 277.344727 L 663.000977 277.344727 L 663.000977 295.344727 L 585.399414 295.344727 Z M 585.399414 277.344727 " transform="matrix(1.333333,0,0,1.333333,-593.333333,-292)"/>
<path style=" stroke:none;fill-rule:nonzero;fill:rgb(0%,0%,0%);fill-opacity:1;" d="M 231.539062 84.773438 C 229.703125 85.1875 227.640625 85.417969 225.371094 85.4375 L 225.371094 90.085938 C 225.308594 92.1875 224.953125 93.8125 224.289062 95 L 224.890625 95.648438 C 225.703125 94.25 226.121094 92.417969 226.183594 90.085938 L 226.183594 87.917969 L 228.933594 87.917969 L 228.828125 89.023438 L 226.914062 89.023438 L 226.914062 95.648438 L 227.726562 95.648438 L 227.726562 94.898438 L 230.933594 94.898438 L 230.933594 95.667969 L 231.746094 95.667969 L 231.746094 89.023438 L 229.664062 89.023438 C 229.703125 88.667969 229.746094 88.3125 229.789062 87.917969 L 232.246094 87.917969 L 232.246094 87.148438 L 229.851562 87.148438 L 229.890625 86.292969 L 229.039062 86.167969 L 228.996094 87.148438 L 226.183594 87.148438 L 226.183594 86.148438 C 228.308594 86.105469 230.226562 85.875 231.953125 85.5 Z M 227.726562 94.167969 L 227.726562 93.105469 L 230.933594 93.105469 L 230.933594 94.167969 Z M 227.726562 92.4375 L 227.726562 91.417969 L 230.933594 91.417969 L 230.933594 92.4375 Z M 227.726562 90.75 L 227.726562 89.75 L 230.933594 89.75 L 230.933594 90.75 Z M 223.914062 84.8125 C 223.433594 85.917969 222.640625 86.898438 221.578125 87.75 L 221.828125 88.605469 C 223.140625 87.605469 224.078125 86.460938 224.664062 85.167969 Z M 224.140625 87.835938 C 223.578125 89 222.683594 90.0625 221.433594 90.980469 L 221.683594 91.8125 C 222.101562 91.5 222.496094 91.1875 222.871094 90.855469 L 222.871094 95.605469 L 223.703125 95.605469 L 223.703125 90 C 224.183594 89.4375 224.578125 88.835938 224.890625 88.1875 Z M 224.140625 87.835938 "/>
<path style=" stroke:none;fill-rule:nonzero;fill:rgb(0%,0%,0%);fill-opacity:1;" d="M 242.164062 88.5 L 241.496094 88.917969 C 242.476562 90.148438 243.246094 91.25 243.828125 92.25 L 244.558594 91.75 C 243.996094 90.8125 243.183594 89.75 242.164062 88.5 Z M 233.765625 89.023438 L 233.765625 89.855469 L 235.101562 89.855469 L 235.101562 92.9375 C 234.539062 93.085938 233.996094 93.210938 233.433594 93.292969 L 233.640625 94.125 C 235.039062 93.8125 236.328125 93.417969 237.539062 92.960938 L 237.539062 92.125 C 237.015625 92.335938 236.476562 92.523438 235.933594 92.6875 L 235.933594 89.855469 L 237.308594 89.855469 L 237.308594 89.023438 L 235.933594 89.023438 L 235.933594 86.4375 L 237.476562 86.4375 L 237.476562 85.585938 L 233.578125 85.585938 L 233.578125 86.4375 L 235.101562 86.4375 L 235.101562 89.023438 Z M 237.953125 85.25 L 237.953125 86.085938 L 241.039062 86.085938 C 240.351562 88.273438 239.140625 90.148438 237.390625 91.710938 L 237.914062 92.375 C 238.953125 91.460938 239.808594 90.417969 240.496094 89.25 L 240.496094 95.648438 L 241.351562 95.648438 L 241.351562 87.605469 C 241.558594 87.105469 241.726562 86.605469 241.890625 86.085938 L 244.039062 86.085938 L 244.039062 85.25 Z M 237.953125 85.25 "/>
<path style=" stroke:none;fill-rule:nonzero;fill:rgb(0%,0%,0%);fill-opacity:1;" d="M 248.828125 89.25 L 248.828125 90.023438 L 255.328125 90.023438 L 255.328125 89.25 Z M 247.976562 91.210938 L 247.976562 92 L 250.601562 92 C 249.765625 93.355469 249.058594 94.1875 248.539062 94.5 C 248.476562 94.523438 248.433594 94.5625 248.351562 94.585938 L 248.539062 95.3125 C 250.808594 95.167969 252.890625 94.960938 254.789062 94.710938 C 255.039062 95 255.246094 95.3125 255.453125 95.625 L 256.140625 95.148438 C 255.621094 94.375 254.851562 93.460938 253.871094 92.417969 L 253.226562 92.8125 C 253.578125 93.230469 253.933594 93.625 254.265625 94.023438 C 252.726562 94.25 251.164062 94.417969 249.578125 94.523438 C 250.140625 94.023438 250.789062 93.167969 251.515625 92 L 256.121094 92 L 256.121094 91.210938 Z M 254.664062 85.9375 L 254.664062 87.335938 L 247.601562 87.335938 L 247.601562 85.9375 Z M 247.601562 88.105469 L 255.496094 88.105469 L 255.496094 85.125 L 246.765625 85.125 L 246.765625 89.105469 C 246.746094 91.523438 246.328125 93.480469 245.496094 95 L 246.121094 95.585938 C 247.101562 93.773438 247.601562 91.605469 247.601562 89.105469 Z M 247.601562 88.105469 "/>
<g clip-path="url(#clip2)" clip-rule="nonzero">
<path style=" stroke:none;fill-rule:nonzero;fill:rgb(0%,0%,0%);fill-opacity:1;" d="M 305.484375 89.984375 L 307.859375 87.609375 C 307.984375 87.460938 308.023438 87.441406 308.023438 87.359375 C 308.023438 87.210938 307.898438 87.109375 307.773438 87.109375 C 307.691406 87.109375 307.628906 87.148438 307.523438 87.273438 L 305.128906 89.648438 L 302.734375 87.273438 C 302.609375 87.128906 302.566406 87.109375 302.484375 87.109375 C 302.359375 87.109375 302.234375 87.210938 302.234375 87.359375 C 302.234375 87.441406 302.296875 87.503906 302.398438 87.609375 L 304.773438 89.984375 L 302.398438 92.378906 C 302.273438 92.484375 302.234375 92.566406 302.234375 92.628906 C 302.234375 92.773438 302.359375 92.878906 302.484375 92.878906 C 302.566406 92.878906 302.609375 92.859375 302.734375 92.710938 L 305.128906 90.335938 L 307.523438 92.710938 C 307.628906 92.835938 307.710938 92.878906 307.773438 92.878906 C 307.921875 92.878906 308.023438 92.773438 308.023438 92.628906 C 308.023438 92.546875 307.984375 92.523438 307.859375 92.378906 Z M 305.484375 89.984375 "/>
<path style=" stroke:none;fill-rule:nonzero;fill:rgb(0%,0%,0%);fill-opacity:1;" d="M 305.484375 89.984375 L 307.859375 87.609375 C 307.984375 87.460938 308.023438 87.441406 308.023438 87.359375 C 308.023438 87.210938 307.898438 87.109375 307.773438 87.109375 C 307.691406 87.109375 307.628906 87.148438 307.523438 87.273438 L 305.128906 89.648438 L 302.734375 87.273438 C 302.609375 87.128906 302.566406 87.109375 302.484375 87.109375 C 302.359375 87.109375 302.234375 87.210938 302.234375 87.359375 C 302.234375 87.441406 302.296875 87.503906 302.398438 87.609375 L 304.773438 89.984375 L 302.398438 92.378906 C 302.273438 92.484375 302.234375 92.566406 302.234375 92.628906 C 302.234375 92.773438 302.359375 92.878906 302.484375 92.878906 C 302.566406 92.878906 302.609375 92.859375 302.734375 92.710938 L 305.128906 90.335938 L 307.523438 92.710938 C 307.628906 92.835938 307.710938 92.878906 307.773438 92.878906 C 307.921875 92.878906 308.023438 92.773438 308.023438 92.628906 C 308.023438 92.546875 307.984375 92.523438 307.859375 92.378906 Z M 305.484375 89.984375 "/>
</g>
<path style=" stroke:none;fill-rule:nonzero;fill:rgb(0%,0%,0%);fill-opacity:1;" d="M 317.386719 91.730469 C 317.304688 91.835938 317.222656 91.9375 317.136719 92.042969 C 316.785156 92.480469 316.574219 92.667969 316.410156 92.667969 C 316.261719 92.667969 316.222656 92.5625 316.222656 92.460938 C 316.222656 92.355469 316.261719 92.148438 316.386719 91.730469 L 317.054688 89.292969 C 317.117188 89.042969 317.179688 88.773438 317.179688 88.5625 C 317.179688 88.125 316.910156 87.835938 316.386719 87.835938 C 315.617188 87.835938 314.824219 88.5625 313.617188 90.480469 L 314.429688 87.855469 L 314.367188 87.835938 C 313.742188 87.960938 313.410156 88.023438 312.429688 88.210938 L 312.429688 88.398438 C 313.035156 88.417969 313.222656 88.480469 313.222656 88.730469 C 313.222656 88.792969 313.199219 88.875 313.179688 88.917969 L 312.035156 93.125 L 312.929688 93.125 C 313.492188 91.230469 313.597656 90.960938 314.136719 90.148438 C 314.886719 89.042969 315.429688 88.4375 315.910156 88.4375 C 316.097656 88.4375 316.199219 88.585938 316.199219 88.792969 C 316.199219 88.9375 316.117188 89.375 316.035156 89.75 L 315.511719 91.6875 C 315.324219 92.3125 315.304688 92.460938 315.304688 92.585938 C 315.304688 93.042969 315.574219 93.230469 315.867188 93.230469 C 316.429688 93.230469 316.742188 93 317.554688 91.875 Z M 317.386719 91.730469 "/>
<path style="fill:none;stroke-width:1;stroke-linecap:round;stroke-linejoin:round;stroke:rgb(0%,0%,0%);stroke-opacity:1;stroke-miterlimit:10;" d="M 585.399414 245.43457 L 663.000977 245.43457 L 663.000977 263.43457 L 585.399414 263.43457 Z M 585.399414 245.43457 " transform="matrix(1.333333,0,0,1.333333,-593.333333,-292)"/>
<path style=" stroke:none;fill-rule:nonzero;fill:rgb(0%,0%,0%);fill-opacity:1;" d="M 220.621094 42.140625 C 219.226562 43.660156 217.476562 44.933594 215.371094 45.953125 L 215.789062 46.703125 C 217.914062 45.640625 219.621094 44.371094 220.933594 42.933594 C 222.351562 44.453125 224.039062 45.683594 226.039062 46.640625 L 226.476562 45.871094 C 224.496094 44.953125 222.765625 43.722656 221.246094 42.140625 Z M 217.578125 45.933594 L 217.578125 46.765625 L 220.496094 46.765625 L 220.496094 48.847656 L 217.015625 48.847656 L 217.015625 49.683594 L 220.496094 49.683594 L 220.496094 51.890625 L 215.933594 51.890625 L 215.933594 52.746094 L 225.933594 52.746094 L 225.933594 51.890625 L 221.371094 51.890625 L 221.371094 49.683594 L 224.851562 49.683594 L 224.851562 48.847656 L 221.371094 48.847656 L 221.371094 46.765625 L 224.289062 46.765625 L 224.289062 45.933594 Z M 217.578125 45.933594 "/>
<path style=" stroke:none;fill-rule:nonzero;fill:rgb(0%,0%,0%);fill-opacity:1;" d="M 228.476562 42.308594 L 227.890625 42.871094 C 228.726562 43.558594 229.414062 44.183594 229.890625 44.765625 L 230.515625 44.160156 C 229.953125 43.535156 229.265625 42.933594 228.476562 42.308594 Z M 235.433594 52.890625 L 238.183594 52.890625 L 238.390625 52.035156 C 238.078125 52.058594 237.621094 52.058594 237.058594 52.078125 C 236.453125 52.097656 235.890625 52.097656 235.328125 52.097656 C 234.390625 52.097656 233.621094 52.097656 232.996094 52.078125 C 232.289062 52.058594 231.765625 51.953125 231.390625 51.785156 C 231.058594 51.640625 230.765625 51.390625 230.476562 51.035156 C 230.371094 50.933594 230.289062 50.828125 230.183594 50.765625 L 230.183594 46.265625 L 227.664062 46.265625 L 227.664062 47.058594 L 229.390625 47.058594 L 229.390625 50.703125 C 228.890625 50.933594 228.328125 51.535156 227.683594 52.558594 L 228.328125 53.140625 C 228.996094 52.035156 229.476562 51.472656 229.746094 51.472656 C 229.890625 51.472656 230.058594 51.578125 230.203125 51.785156 C 230.578125 52.203125 230.996094 52.515625 231.476562 52.660156 C 231.953125 52.785156 232.558594 52.871094 233.328125 52.871094 C 234.078125 52.890625 234.789062 52.890625 235.433594 52.890625 Z M 231.015625 43.347656 L 231.015625 44.140625 L 232.601562 44.140625 C 232.203125 44.996094 231.765625 45.722656 231.289062 46.285156 L 231.476562 47.078125 L 234.246094 47.078125 L 234.246094 48.515625 L 230.914062 48.515625 L 230.914062 49.328125 L 234.246094 49.328125 L 234.246094 51.558594 L 235.078125 51.558594 L 235.078125 49.328125 L 238.203125 49.328125 L 238.203125 48.515625 L 235.078125 48.515625 L 235.078125 47.078125 L 237.683594 47.078125 L 237.683594 46.285156 L 235.078125 46.285156 L 235.078125 44.871094 L 234.246094 44.871094 L 234.246094 46.285156 L 232.308594 46.285156 C 232.746094 45.660156 233.140625 44.953125 233.515625 44.140625 L 238.058594 44.140625 L 238.058594 43.347656 L 233.851562 43.347656 C 233.996094 42.972656 234.121094 42.621094 234.246094 42.222656 L 233.433594 42.015625 C 233.289062 42.472656 233.121094 42.933594 232.953125 43.347656 Z M 231.015625 43.347656 "/>
<path style=" stroke:none;fill-rule:nonzero;fill:rgb(0%,0%,0%);fill-opacity:1;" d="M 245.289062 44.140625 L 244.578125 44.472656 C 244.828125 44.910156 245.058594 45.390625 245.308594 45.910156 L 243.476562 45.910156 L 243.476562 46.746094 L 250.164062 46.746094 L 250.164062 45.910156 L 248.226562 45.910156 C 248.496094 45.433594 248.746094 44.890625 248.976562 44.285156 L 248.164062 43.996094 C 247.914062 44.683594 247.640625 45.308594 247.308594 45.910156 L 246.140625 45.910156 C 245.871094 45.265625 245.601562 44.683594 245.289062 44.140625 Z M 246.871094 42.035156 L 245.976562 42.183594 C 246.101562 42.472656 246.246094 42.808594 246.390625 43.183594 L 243.746094 43.183594 L 243.746094 43.972656 L 249.953125 43.972656 L 249.953125 43.183594 L 247.265625 43.183594 C 247.121094 42.765625 246.996094 42.371094 246.871094 42.035156 Z M 240.871094 52.996094 C 241.578125 52.996094 241.953125 52.660156 241.953125 51.953125 L 241.953125 48.410156 C 242.289062 48.246094 242.621094 48.078125 242.953125 47.910156 L 242.953125 47.035156 C 242.621094 47.203125 242.289062 47.371094 241.953125 47.535156 L 241.953125 45.246094 L 242.933594 45.246094 L 242.933594 44.410156 L 241.953125 44.410156 L 241.953125 42.140625 L 241.058594 42.140625 L 241.058594 44.410156 L 239.601562 44.410156 L 239.601562 45.246094 L 241.058594 45.246094 L 241.058594 47.910156 C 240.496094 48.140625 239.933594 48.308594 239.371094 48.453125 L 239.601562 49.328125 C 240.078125 49.160156 240.578125 48.972656 241.058594 48.785156 L 241.058594 51.746094 C 241.058594 52.058594 240.890625 52.203125 240.578125 52.203125 C 240.289062 52.203125 239.976562 52.183594 239.664062 52.160156 L 239.828125 52.996094 Z M 245.808594 47.078125 C 245.683594 47.410156 245.539062 47.746094 245.371094 48.097656 L 243.308594 48.097656 L 243.308594 48.953125 L 244.914062 48.953125 C 244.664062 49.410156 244.390625 49.871094 244.058594 50.371094 C 244.890625 50.703125 245.683594 51.015625 246.414062 51.371094 C 245.664062 51.785156 244.578125 52.121094 243.183594 52.371094 L 243.539062 53.160156 C 245.265625 52.828125 246.515625 52.347656 247.308594 51.785156 C 248.265625 52.246094 249.101562 52.683594 249.808594 53.121094 L 250.289062 52.433594 C 249.539062 51.996094 248.746094 51.578125 247.914062 51.203125 C 248.476562 50.597656 248.851562 49.828125 249.039062 48.953125 L 250.351562 48.953125 L 250.351562 48.097656 L 246.246094 48.097656 C 246.390625 47.808594 246.515625 47.496094 246.640625 47.160156 Z M 248.226562 48.953125 C 248.039062 49.722656 247.664062 50.347656 247.121094 50.847656 C 246.476562 50.558594 245.808594 50.285156 245.121094 50.015625 C 245.351562 49.683594 245.578125 49.328125 245.789062 48.953125 Z M 248.226562 48.953125 "/>
<path style=" stroke:none;fill-rule:nonzero;fill:rgb(0%,0%,0%);fill-opacity:1;" d="M 254.828125 46.703125 L 254.828125 47.472656 L 261.328125 47.472656 L 261.328125 46.703125 Z M 253.976562 48.660156 L 253.976562 49.453125 L 256.601562 49.453125 C 255.765625 50.808594 255.058594 51.640625 254.539062 51.953125 C 254.476562 51.972656 254.433594 52.015625 254.351562 52.035156 L 254.539062 52.765625 C 256.808594 52.621094 258.890625 52.410156 260.789062 52.160156 C 261.039062 52.453125 261.246094 52.765625 261.453125 53.078125 L 262.140625 52.597656 C 261.621094 51.828125 260.851562 50.910156 259.871094 49.871094 L 259.226562 50.265625 C 259.578125 50.683594 259.933594 51.078125 260.265625 51.472656 C 258.726562 51.703125 257.164062 51.871094 255.578125 51.972656 C 256.140625 51.472656 256.789062 50.621094 257.515625 49.453125 L 262.121094 49.453125 L 262.121094 48.660156 Z M 260.664062 43.390625 L 260.664062 44.785156 L 253.601562 44.785156 L 253.601562 43.390625 Z M 253.601562 45.558594 L 261.496094 45.558594 L 261.496094 42.578125 L 252.765625 42.578125 L 252.765625 46.558594 C 252.746094 48.972656 252.328125 50.933594 251.496094 52.453125 L 252.121094 53.035156 C 253.101562 51.222656 253.601562 49.058594 253.601562 46.558594 Z M 253.601562 45.558594 "/>
<path style="fill:none;stroke-width:1;stroke-linecap:round;stroke-linejoin:round;stroke:rgb(0%,0%,0%);stroke-opacity:1;stroke-miterlimit:10;" d="M 624.200195 277.344727 L 624.200195 269.332031 " transform="matrix(1.333333,0,0,1.333333,-593.333333,-292)"/>
<path style="fill:none;stroke-width:1;stroke-linecap:butt;stroke-linejoin:miter;stroke:rgb(0%,0%,0%);stroke-opacity:1;stroke-miterlimit:10;" d="M 624.200195 265.333008 L 624.200195 269.332031 M 622.700195 269.332031 L 624.200195 265.333008 L 625.700195 269.332031 " transform="matrix(1.333333,0,0,1.333333,-593.333333,-292)"/>
</g>
</svg>
